<?xml version="1.0" encoding="utf-8"?>
<!-- Generator: Adobe Illustrator 19.0.0, SVG Export Plug-In . SVG Version: 6.00 Build 0)  -->
<svg version="1.1" id="图层_1" xmlns="http://www.w3.org/2000/svg" xmlns:xlink="http://www.w3.org/1999/xlink" x="0px" y="0px"
	 viewBox="0 0 1280 140" style="enable-background:new 0 0 1280 140;" xml:space="preserve">
<style type="text/css">
	.st0{fill:#F1F1FF;}
	.st1{opacity:0.3;fill:#D6E1F9;}
	.st2{opacity:0.4;fill:#D6E1F9;}
	.st3{opacity:0.15;fill:url(#XMLID_37_);}
	.st4{opacity:0.15;fill:url(#XMLID_204_);}
	.st5{opacity:0.15;fill:url(#XMLID_209_);}
	.st6{opacity:0.15;fill:url(#XMLID_210_);}
	.st7{opacity:0.15;fill:url(#XMLID_226_);}
	.st8{opacity:0.15;fill:url(#XMLID_227_);}
	.st9{fill:#EC8A21;}
	.st10{fill:#A5A5A5;}
	.st11{opacity:5.000000e-02;fill:#004AE5;}
	.st12{opacity:0.1;fill:#004AE5;}
	.st13{opacity:0.5;}
	.st14{fill:url(#XMLID_228_);}
	.st15{fill:url(#XMLID_229_);}
	.st16{opacity:0.1;}
	.st17{fill:#557AE7;}
	.st18{fill:url(#XMLID_232_);}
	.st19{fill:#FFFFFF;}
	.st20{fill:url(#XMLID_233_);}
	.st21{fill:url(#XMLID_234_);}
	.st22{fill:none;stroke:#FFFFFF;stroke-linecap:square;stroke-miterlimit:10;}
	.st23{opacity:0.22;}
	.st24{opacity:0.45;}
	.st25{fill:none;stroke:#004AE5;stroke-linecap:square;stroke-miterlimit:10;stroke-dasharray:4.0752,4.0752;}
	.st26{clip-path:url(#XMLID_235_);enable-background:new    ;}
	.st27{fill:#B2C5EB;}
	.st28{clip-path:url(#XMLID_236_);enable-background:new    ;}
	.st29{clip-path:url(#XMLID_237_);enable-background:new    ;}
	.st30{fill:#EEF3FD;}
	.st31{fill:url(#XMLID_238_);}
	.st32{clip-path:url(#XMLID_240_);enable-background:new    ;}
	.st33{fill:url(#XMLID_241_);}
	.st34{fill:url(#XMLID_242_);}
	.st35{fill:url(#XMLID_249_);}
	.st36{fill:url(#XMLID_250_);}
	.st37{fill:url(#XMLID_251_);}
	.st38{clip-path:url(#XMLID_252_);enable-background:new    ;}
	.st39{clip-path:url(#XMLID_253_);enable-background:new    ;}
	.st40{fill:url(#XMLID_254_);}
	.st41{clip-path:url(#XMLID_266_);enable-background:new    ;}
	.st42{clip-path:url(#XMLID_267_);enable-background:new    ;}
	.st43{clip-path:url(#XMLID_268_);enable-background:new    ;}
	.st44{fill:url(#XMLID_269_);}
	.st45{fill:url(#XMLID_270_);}
	.st46{opacity:0.1;fill:#BDD1FA;}
	.st47{opacity:0.15;fill:url(#XMLID_271_);}
	.st48{opacity:0.15;fill:url(#XMLID_272_);}
	.st49{opacity:6.000000e-02;fill:none;stroke:#4A90FF;stroke-miterlimit:10;}
	.st50{opacity:0.2;fill:#D6E1F9;}
</style>
<rect id="XMLID_96_" x="-8.5" y="-8.5" class="st0" width="1297" height="157"/>
<ellipse id="XMLID_102_" class="st1" cx="1022.5" cy="106.1" rx="89.2" ry="43.3"/>
<ellipse id="XMLID_97_" class="st2" cx="1022.3" cy="106.1" rx="53.2" ry="23.1"/>
<linearGradient id="XMLID_37_" gradientUnits="userSpaceOnUse" x1="795.0472" y1="46.6241" x2="817.0891" y2="46.6241">
	<stop  offset="0" style="stop-color:#F89117"/>
	<stop  offset="1" style="stop-color:#D2DEF9"/>
</linearGradient>
<path id="XMLID_100_" class="st3" d="M801.5,55.8c2,0.7,17.8-5.2,15.3-10.6c-2.4-5.3-9.1-2.6-10.3-3c-1.1-0.4-4.9-6.6-9.7-4.5
	C791.5,40.3,799.5,55.1,801.5,55.8z"/>
<linearGradient id="XMLID_204_" gradientUnits="userSpaceOnUse" x1="790.5178" y1="120.4205" x2="817.2439" y2="120.4205">
	<stop  offset="0" style="stop-color:#F89117"/>
	<stop  offset="1" style="stop-color:#D2DEF9"/>
</linearGradient>
<path id="XMLID_99_" class="st4" d="M803.9,107.1c-1.4,0-2.8,0.2-4.1,0.7c-7,2.3-10.9,9.8-8.6,16.8c1.8,5.5,6.9,9.3,12.7,9.3
	c1.4,0,2.8-0.2,4.1-0.7c7-2.3,10.9-9.8,8.6-16.8C814.8,110.8,809.7,107.1,803.9,107.1z"/>
<linearGradient id="XMLID_209_" gradientUnits="userSpaceOnUse" x1="247.1047" y1="72.7814" x2="285.2069" y2="72.7814">
	<stop  offset="0" style="stop-color:#F89117"/>
	<stop  offset="1" style="stop-color:#D2DEF9"/>
</linearGradient>
<circle id="XMLID_109_" class="st5" cx="266.2" cy="72.8" r="19.1"/>
<linearGradient id="XMLID_210_" gradientUnits="userSpaceOnUse" x1="-8.5039" y1="32.1468" x2="150.5841" y2="32.1468">
	<stop  offset="0" style="stop-color:#F89117"/>
	<stop  offset="1" style="stop-color:#D2DEF9"/>
</linearGradient>
<path id="XMLID_33_" class="st6" d="M-8.5-8.5v61.8C8.3,65.5,28.9,72.8,51.3,72.8c49.1,0,90-34.9,99.3-81.3H-8.5z"/>
<linearGradient id="XMLID_226_" gradientUnits="userSpaceOnUse" x1="1144.415" y1="32.1468" x2="1288.5039" y2="32.1468">
	<stop  offset="0" style="stop-color:#F89117"/>
	<stop  offset="1" style="stop-color:#D2DEF9"/>
</linearGradient>
<path id="XMLID_17_" class="st7" d="M1288.5-8.5h-144.1c9.3,46.4,50.2,81.3,99.3,81.3c16.1,0,31.3-3.8,44.8-10.4V-8.5z"/>
<linearGradient id="XMLID_227_" gradientUnits="userSpaceOnUse" x1="1238.0806" y1="125.7781" x2="1288.5039" y2="125.7781">
	<stop  offset="0" style="stop-color:#F89117"/>
	<stop  offset="1" style="stop-color:#D2DEF9"/>
</linearGradient>
<path id="XMLID_50_" class="st8" d="M1288.5,103.9c-2.7-0.6-5.6-0.9-8.5-0.9c-23.2,0-41.9,18.8-41.9,41.9c0,1.2,0.1,2.4,0.2,3.5
	h50.3V103.9z"/>
<g id="XMLID_172_">
	<path id="XMLID_173_" class="st9" d="M28.3,40.4c0.5-1.2,1-2.5,1.6-3.8l3.1,0.7c-0.4,1.1-0.8,2.1-1.3,3.1h14.8v3.1H30.2
		c-1.2,2.2-2.4,4.1-3.7,5.8h6.3v-3.9H36v3.9h8.9v2.9H36v3.5h11v3.1H36v6.1h-3.2v-6.1H21v-3.1h11.7v-3.5h-9.5l-0.7-2.9
		c1.5-1.5,2.9-3.5,4.2-5.8h-5.3v-3.1H28.3z"/>
	<path id="XMLID_175_" class="st9" d="M59,40.7c0.1-1.2,0.3-2.5,0.4-3.8h3.1c-0.1,1.3-0.3,2.6-0.4,3.8h15.2v3.1H61.7
		c-0.2,1.3-0.4,2.5-0.7,3.6h13.5v2.7c-1.1,3.1-2.8,5.8-5.2,8.1c2.3,1.6,5.2,2.8,8.5,3.6l-1.6,2.8c-3.7-1-6.9-2.5-9.3-4.4
		c-2.5,1.8-5.5,3.4-9.1,4.6l-1.6-3c3.3-0.9,6.1-2.1,8.4-3.6c-2-2.1-3.5-4.6-4.3-7.5c-0.3,1.1-0.6,2.1-1,3c-1.6,4-4,7.6-7.1,10.8
		l-2-2.6c2.8-2.8,4.8-6,6.2-9.5c0.8-2.3,1.6-5.2,2.1-8.5h-7.5v-3.1H59z M67,56.3c1.9-1.7,3.3-3.8,4.2-6H63
		C63.9,52.6,65.2,54.6,67,56.3z"/>
	<path id="XMLID_178_" class="st9" d="M89.2,51.7c-0.8,0.5-1.6,0.9-2.4,1.3v8.4c0,1.9-1,2.8-3,2.8h-2.6l-0.7-2.9
		c0.8,0.1,1.5,0.2,2.2,0.2c0.7,0,1-0.3,1-0.9v-6.2c-1,0.4-2,0.8-2.9,1.1l-0.8-3c1.2-0.3,2.5-0.8,3.7-1.2v-6.2h-3.2v-3h3.2V37h3.1
		v5.2h3v3h-3V50c0.8-0.5,1.6-0.9,2.4-1.4V51.7z M93.2,45.2c-0.5-1.2-1.1-2.2-1.7-3.1l2.3-0.9c0.6,1,1.2,2.1,1.6,3.2l-1.7,0.8h4.8
		c-0.5-1.3-1-2.4-1.6-3.3l2.3-0.9c0.6,1.1,1.1,2.2,1.6,3.5L99,45.2h3c0.7-1.4,1.3-3,1.8-4.9c-3.5,0.6-7.8,0.9-12.7,0.9l-0.9-2.7
		c6.2,0,11.5-0.4,15.8-1.2l1.3,2.3c-1,0.3-2.1,0.5-3.3,0.7l2.5,0.7c-0.5,1.5-1.1,2.9-1.8,4.2h1.9v2.7h-10c-0.1,0.6-0.1,1.1-0.2,1.7
		h10.9v2.8H96c-0.1,0.5-0.2,1.1-0.3,1.6h10v2.4c-0.6,1.5-1.6,2.9-3,4.1c1.5,0.6,3.2,1.1,5.1,1.4l-1.4,2.8c-2.4-0.5-4.5-1.3-6.3-2.3
		c-1.7,1-3.8,1.8-6.1,2.4L92.6,62c1.9-0.4,3.6-0.9,5-1.5c-1.1-0.9-2.1-2-2.9-3.1c0,0,0,0.1,0,0.1c-1,2.6-2.5,5-4.6,7.1l-1.9-2.4
		c1.8-1.8,3.1-3.8,4-6c0.4-1.1,0.8-2.4,1.1-3.8h-3.6v-2.8h4.1c0.1-0.6,0.1-1.1,0.2-1.7h-3.3v-2.7H93.2z M102.7,56.5h-5.5
		c0.8,1,1.8,1.9,3,2.6C101.2,58.3,102.1,57.5,102.7,56.5z"/>
	<path id="XMLID_182_" class="st9" d="M118.5,51.2c-0.2,0.5-0.3,0.9-0.5,1.3h6V55c-0.5,1.7-1.4,3.3-2.7,4.6c1.2,0.5,2.3,1,3.4,1.6
		l-1.7,2.5c-1.1-0.7-2.5-1.4-4.1-2.2c-2,1.3-4.4,2.2-7.4,3l-1.4-2.6c2.2-0.5,4-1.1,5.6-1.8c-1.2-0.5-2.5-1-3.8-1.5
		c0.7-1.2,1.4-2.4,1.9-3.5h-3v-2.7h4.2c0.2-0.6,0.4-1.1,0.6-1.7L118.5,51.2z M116.5,42.4v-5.4h2.9v5.4h5.1v2.7h-5.1v0.1
		c1.6,0.6,3.1,1.4,4.8,2.2l-1.6,2.5c-1.3-1-2.3-1.8-3.1-2.3v3.1h-2.9v-4.7c-1,2-2.6,3.8-4.7,5.4l-1.6-2.5c2-1.1,3.4-2.3,4.3-3.6
		h-3.6v-2.7H116.5z M115.5,40.9l-2.2,1c-0.6-1.4-1.2-2.7-1.9-3.8l2.4-0.8C114.4,38.4,115,39.6,115.5,40.9z M121.3,55.1h-4.4
		c-0.4,0.8-0.8,1.5-1.2,2.2c1,0.3,1.9,0.7,2.9,1C119.8,57.5,120.7,56.4,121.3,55.1z M124.4,38.3c-0.6,1.3-1.3,2.5-2.3,3.7l-2.2-1.1
		c1-1.2,1.7-2.4,2.3-3.6L124.4,38.3z M127.3,49.8c-0.4,1-0.9,1.9-1.4,2.8l-2-2.4c1.7-3.3,2.8-7.7,3.3-13.2l3.1,0.5
		c-0.2,1.3-0.4,2.5-0.6,3.7h7.5v3h-1.6c-0.2,4.8-1.1,8.9-2.6,12.4c1.4,2.4,3.1,4.3,5.1,5.6l-1.7,2.5c-1.9-1.4-3.5-3.2-4.9-5.4
		c-1.4,2.1-3.1,3.9-5.2,5.4l-1.6-2.6c2.2-1.4,3.9-3.3,5.2-5.6C128.8,54.5,128,52.2,127.3,49.8z M128.8,45.4c0.7,3,1.5,5.6,2.5,7.8
		c0.9-2.6,1.4-5.7,1.5-9.1h-3.7C129,44.6,128.9,45,128.8,45.4z"/>
	<path id="XMLID_190_" class="st9" d="M141.4,64.4l-0.7-2.9c0.8,0.1,1.5,0.2,2.2,0.2c0.6,0,1-0.4,1-1.1v-6.1c-1,0.4-2,0.7-3,1
		l-0.8-3.1c1.3-0.3,2.6-0.7,3.8-1.1v-6h-3.2v-3h3.2V37h3.1v5.3h2.5v3h-2.5v4.8c0.8-0.4,1.6-0.8,2.4-1.2V52c-0.8,0.4-1.6,0.8-2.4,1.2
		v8.1c0,2-1,3.1-3,3.1H141.4z M150,64.7l-2.5-2.2c2-3.8,2.9-8.7,3-14.7v-10H167v7.9h-5.4v2.8h6.1v2.8h-6.1v2.9h4.7v10.3h-2.9v-1.2
		h-6.8v1.2h-2.9V54.3h4.7v-2.9h-5.1C153.1,56.5,151.9,60.9,150,64.7z M153.6,45.8v2c0,0.3,0,0.5,0,0.8h5v-2.8H153.6z M153.6,40.7V43
		h10.3v-2.3H153.6z M163.5,60.7v-3.6h-6.8v3.6H163.5z"/>
	<path id="XMLID_196_" class="st9" d="M196.3,38V41h-10.8v10.3h11.9v3h-11.9v10.3h-3.2V54.4h-11.7v-3h11.7V41h-10.5V38H196.3z
		 M179.3,48.9l-2.9,1.4c-1-2.5-2-4.7-3.1-6.7l2.9-1.4C177.3,44.2,178.3,46.4,179.3,48.9z M194.9,43.4c-0.8,2.3-1.9,4.6-3.3,6.7
		l-2.8-1.4c1.4-2.2,2.5-4.4,3.3-6.6L194.9,43.4z"/>
	<path id="XMLID_200_" class="st9" d="M201.2,46.2c2.1-0.3,5.2-3.5,9.3-9.4l3.2,1.1c-2.3,3.2-4.7,5.9-7.1,8.2
		c4.9-0.2,9.6-0.6,14.2-1c-0.9-1.3-1.8-2.6-2.8-3.8l2.8-1.4c2.4,3,4.6,6.3,6.8,9.9l-3.1,1.5c-0.7-1.2-1.4-2.4-2-3.5
		c-6.2,0.6-13.2,1-20.8,1.3L201.2,46.2z M224.4,64.7h-3.2v-1.1h-14.3v1.1h-3.2V51.8h20.7V64.7z M221.2,60.6v-5.7h-14.3v5.7H221.2z"
		/>
</g>
<g id="XMLID_2_">
	<path id="XMLID_4_" class="st10" d="M24.4,94.3l0.4,1.8h0l0.4-1.8l2.4-8.1h0.9l2.4,8.1l0.4,1.8h0l0.4-1.8l2-8.1h1l-2.9,11.4H31
		l-2.6-8.7l-0.3-1.2h0l-0.3,1.2l-2.6,8.7h-0.9l-2.9-11.4h1L24.4,94.3z"/>
	<path id="XMLID_12_" class="st10" d="M39.4,97.7c-1.1,0-2-0.4-2.7-1.2c-0.7-0.8-1-1.8-1-3v-0.4c0-1.2,0.3-2.2,1-3
		c0.7-0.8,1.5-1.2,2.6-1.2c1,0,1.8,0.3,2.4,1c0.6,0.7,0.8,1.5,0.8,2.7v0.7h-5.9v0.3c0,1,0.2,1.8,0.7,2.4c0.5,0.6,1.2,1,2,1
		c0.5,0,1-0.1,1.4-0.3c0.4-0.2,0.8-0.4,1.1-0.7l0.4,0.6c-0.3,0.3-0.7,0.6-1.2,0.8C40.6,97.6,40,97.7,39.4,97.7z M39.3,89.7
		c-0.7,0-1.3,0.3-1.8,0.8c-0.5,0.5-0.7,1.2-0.8,2l0,0h4.8v-0.2c0-0.8-0.2-1.4-0.6-1.9C40.6,90,40,89.7,39.3,89.7z"/>
	<path id="XMLID_15_" class="st10" d="M45.4,97.5h-0.9V85.3h0.9V97.5z"/>
	<path id="XMLID_18_" class="st10" d="M51.1,96.9c0.6,0,1.1-0.2,1.6-0.5s0.7-0.8,0.7-1.5h0.8l0,0c0,0.8-0.3,1.4-0.9,2
		c-0.6,0.5-1.4,0.8-2.2,0.8c-1.1,0-2-0.4-2.6-1.2c-0.6-0.8-0.9-1.8-0.9-3v-0.3c0-1.2,0.3-2.2,0.9-3s1.5-1.2,2.6-1.2
		c0.9,0,1.7,0.3,2.3,0.8c0.6,0.5,0.9,1.3,0.9,2.2l0,0h-0.8c0-0.7-0.2-1.2-0.7-1.6c-0.4-0.4-1-0.6-1.6-0.6c-0.9,0-1.5,0.3-2,1
		c-0.4,0.7-0.6,1.5-0.6,2.4v0.3c0,1,0.2,1.8,0.6,2.5C49.6,96.6,50.2,96.9,51.1,96.9z"/>
	<path id="XMLID_20_" class="st10" d="M55.7,93.2c0-1.2,0.3-2.3,1-3.1c0.7-0.8,1.6-1.2,2.7-1.2c1.1,0,2,0.4,2.7,1.2
		c0.7,0.8,1,1.8,1,3.1v0.3c0,1.2-0.3,2.3-1,3.1s-1.6,1.2-2.7,1.2c-1.1,0-2-0.4-2.7-1.2c-0.7-0.8-1-1.8-1-3.1V93.2z M56.7,93.4
		c0,1,0.2,1.8,0.7,2.5c0.5,0.7,1.2,1,2.1,1c0.9,0,1.6-0.3,2.1-1c0.5-0.7,0.7-1.5,0.7-2.5v-0.3c0-1-0.2-1.8-0.8-2.5s-1.2-1-2.1-1
		s-1.6,0.3-2.1,1c-0.5,0.7-0.7,1.5-0.7,2.5V93.4z"/>
	<path id="XMLID_23_" class="st10" d="M66,89.1l0.1,1.4c0.3-0.5,0.6-0.9,1.1-1.1c0.5-0.3,1-0.4,1.6-0.4c0.6,0,1.2,0.2,1.6,0.5
		c0.4,0.3,0.7,0.8,0.9,1.4c0.3-0.6,0.6-1,1.1-1.4c0.5-0.3,1-0.5,1.7-0.5c0.9,0,1.6,0.3,2.1,0.9s0.7,1.5,0.7,2.8v4.9H76v-4.9
		c0-1-0.2-1.8-0.6-2.2c-0.4-0.4-0.9-0.6-1.5-0.6c-0.7,0-1.3,0.2-1.7,0.7s-0.6,1-0.7,1.7c0,0.1,0,0.1,0,0.2c0,0.1,0,0.1,0,0.2v5.1
		h-0.9v-4.9c0-1-0.2-1.8-0.6-2.2c-0.4-0.4-0.9-0.7-1.5-0.7c-0.7,0-1.2,0.2-1.6,0.5c-0.4,0.3-0.7,0.8-0.8,1.3v6h-0.9v-8.5H66z"/>
	<path id="XMLID_25_" class="st10" d="M82.6,97.7c-1.1,0-2-0.4-2.7-1.2c-0.7-0.8-1-1.8-1-3v-0.4c0-1.2,0.3-2.2,1-3
		c0.7-0.8,1.5-1.2,2.6-1.2c1,0,1.8,0.3,2.4,1c0.6,0.7,0.8,1.5,0.8,2.7v0.7h-5.9v0.3c0,1,0.2,1.8,0.7,2.4c0.5,0.6,1.2,1,2,1
		c0.5,0,1-0.1,1.4-0.3c0.4-0.2,0.8-0.4,1.1-0.7l0.4,0.6c-0.3,0.3-0.7,0.6-1.2,0.8C83.8,97.6,83.2,97.7,82.6,97.7z M82.5,89.7
		c-0.7,0-1.3,0.3-1.8,0.8c-0.5,0.5-0.7,1.2-0.8,2l0,0h4.8v-0.2c0-0.8-0.2-1.4-0.6-1.9C83.8,90,83.2,89.7,82.5,89.7z"/>
	<path id="XMLID_28_" class="st10" d="M92.9,86.9v2.2h1.9v0.8h-1.9v5.5c0,0.6,0.1,0.9,0.3,1.2c0.2,0.2,0.5,0.3,0.8,0.3
		c0.1,0,0.2,0,0.3,0c0.1,0,0.2,0,0.4-0.1l0.1,0.7c-0.1,0.1-0.3,0.1-0.5,0.2c-0.2,0-0.4,0.1-0.6,0.1c-0.6,0-1.1-0.2-1.4-0.6
		c-0.3-0.4-0.5-1-0.5-1.8v-5.5h-1.5v-0.8H92v-2.2H92.9z"/>
	<path id="XMLID_31_" class="st10" d="M96.1,93.2c0-1.2,0.3-2.3,1-3.1c0.7-0.8,1.6-1.2,2.7-1.2c1.1,0,2,0.4,2.7,1.2
		c0.7,0.8,1,1.8,1,3.1v0.3c0,1.2-0.3,2.3-1,3.1s-1.6,1.2-2.7,1.2c-1.1,0-2-0.4-2.7-1.2c-0.7-0.8-1-1.8-1-3.1V93.2z M97,93.4
		c0,1,0.2,1.8,0.7,2.5c0.5,0.7,1.2,1,2.1,1c0.9,0,1.6-0.3,2.1-1c0.5-0.7,0.7-1.5,0.7-2.5v-0.3c0-1-0.2-1.8-0.8-2.5s-1.2-1-2.1-1
		s-1.6,0.3-2.1,1c-0.5,0.7-0.7,1.5-0.7,2.5V93.4z"/>
	<path id="XMLID_35_" class="st10" d="M117.5,94L117.5,94c0,1.2-0.3,2.1-1.1,2.7s-1.7,1-3,1c-1.3,0-2.3-0.5-3.1-1.4
		c-0.8-0.9-1.2-2.1-1.2-3.6v-1.9c0-1.4,0.4-2.6,1.2-3.6c0.8-0.9,1.8-1.4,3.1-1.4c1.2,0,2.2,0.3,3,1s1.1,1.5,1.1,2.7l0,0h-0.9
		c0-0.9-0.3-1.6-0.8-2.1c-0.6-0.5-1.3-0.8-2.3-0.8c-1,0-1.8,0.4-2.4,1.2s-0.9,1.8-0.9,3v1.9c0,1.2,0.3,2.2,0.9,3s1.4,1.2,2.4,1.2
		c1,0,1.8-0.2,2.3-0.8c0.6-0.5,0.8-1.2,0.8-2.2H117.5z"/>
	<path id="XMLID_38_" class="st10" d="M120.6,90.5c0.3-0.5,0.7-0.9,1.1-1.2c0.5-0.3,1-0.4,1.6-0.4c0.9,0,1.6,0.3,2.1,0.8
		s0.7,1.4,0.7,2.6v5.2h-0.9v-5.2c0-0.9-0.2-1.6-0.5-2c-0.4-0.4-0.9-0.6-1.5-0.6c-0.7,0-1.2,0.2-1.6,0.5c-0.4,0.3-0.7,0.7-0.9,1.3v6
		h-0.9V85.3h0.9V90.5z"/>
	<path id="XMLID_40_" class="st10" d="M131.8,97.7c-1.1,0-2-0.4-2.7-1.2c-0.7-0.8-1-1.8-1-3v-0.4c0-1.2,0.3-2.2,1-3
		c0.7-0.8,1.5-1.2,2.6-1.2c1,0,1.8,0.3,2.4,1c0.6,0.7,0.8,1.5,0.8,2.7v0.7H129v0.3c0,1,0.2,1.8,0.7,2.4c0.5,0.6,1.2,1,2,1
		c0.5,0,1-0.1,1.4-0.3c0.4-0.2,0.8-0.4,1.1-0.7l0.4,0.6c-0.3,0.3-0.7,0.6-1.2,0.8C133,97.6,132.5,97.7,131.8,97.7z M131.7,89.7
		c-0.7,0-1.3,0.3-1.8,0.8c-0.5,0.5-0.7,1.2-0.8,2l0,0h4.8v-0.2c0-0.8-0.2-1.4-0.6-1.9C133,90,132.4,89.7,131.7,89.7z"/>
	<path id="XMLID_43_" class="st10" d="M140.5,92.5l3.5-6.3h1.1l-4.1,7.2v4.2H140v-4.2l-4.1-7.2h1.1L140.5,92.5z"/>
	<path id="XMLID_45_" class="st10" d="M145.6,93.2c0-1.2,0.3-2.3,1-3.1c0.7-0.8,1.6-1.2,2.7-1.2c1.1,0,2,0.4,2.7,1.2
		c0.7,0.8,1,1.8,1,3.1v0.3c0,1.2-0.3,2.3-1,3.1s-1.6,1.2-2.7,1.2c-1.1,0-2-0.4-2.7-1.2c-0.7-0.8-1-1.8-1-3.1V93.2z M146.5,93.4
		c0,1,0.2,1.8,0.7,2.5c0.5,0.7,1.2,1,2.1,1c0.9,0,1.6-0.3,2.1-1c0.5-0.7,0.7-1.5,0.7-2.5v-0.3c0-1-0.2-1.8-0.8-2.5s-1.2-1-2.1-1
		s-1.6,0.3-2.1,1c-0.5,0.7-0.7,1.5-0.7,2.5V93.4z"/>
	<path id="XMLID_48_" class="st10" d="M160.6,96.2c-0.3,0.5-0.6,0.9-1.1,1.1c-0.5,0.3-1,0.4-1.6,0.4c-0.9,0-1.6-0.3-2.1-0.9
		c-0.5-0.6-0.8-1.5-0.8-2.8v-4.9h0.9V94c0,1,0.2,1.8,0.5,2.2s0.9,0.7,1.5,0.7c0.7,0,1.3-0.2,1.7-0.5c0.4-0.3,0.7-0.7,0.9-1.3v-6h0.9
		v8.5h-0.8L160.6,96.2z"/>
	<path id="XMLID_51_" class="st10" d="M166.3,95.2l0.3,1h0l2.6-7.2h1l-3.7,9.8c-0.2,0.6-0.5,1.1-0.9,1.5c-0.3,0.4-0.9,0.6-1.5,0.6
		c-0.1,0-0.2,0-0.4,0s-0.3,0-0.3-0.1l0.1-0.8c0.1,0,0.2,0,0.3,0c0.1,0,0.2,0,0.3,0c0.4,0,0.7-0.1,1-0.4c0.2-0.3,0.5-0.7,0.6-1.1
		l0.4-1.1l-3.3-8.3h1L166.3,95.2z"/>
	<path id="XMLID_54_" class="st10" d="M177.3,96.2c-0.3,0.5-0.6,0.9-1.1,1.1c-0.5,0.3-1,0.4-1.6,0.4c-0.9,0-1.6-0.3-2.1-0.9
		c-0.5-0.6-0.8-1.5-0.8-2.8v-4.9h0.9V94c0,1,0.2,1.8,0.5,2.2s0.9,0.7,1.5,0.7c0.7,0,1.3-0.2,1.7-0.5c0.4-0.3,0.7-0.7,0.9-1.3v-6h0.9
		v8.5h-0.8L177.3,96.2z"/>
	<path id="XMLID_56_" class="st10" d="M186,97.5c-0.1-0.3-0.1-0.6-0.1-0.8c0-0.2,0-0.4,0-0.7c-0.3,0.5-0.7,0.8-1.2,1.1
		c-0.5,0.3-1.1,0.4-1.8,0.4c-0.8,0-1.5-0.2-1.9-0.7c-0.5-0.4-0.7-1-0.7-1.8s0.3-1.4,1-1.8c0.7-0.5,1.5-0.7,2.6-0.7h2.1v-1
		c0-0.6-0.2-1.1-0.6-1.4s-0.9-0.5-1.6-0.5c-0.6,0-1.2,0.2-1.6,0.5c-0.4,0.3-0.6,0.7-0.6,1.2h-0.9l0,0c0-0.6,0.2-1.2,0.8-1.7
		c0.6-0.5,1.3-0.7,2.3-0.7c0.9,0,1.7,0.2,2.2,0.7s0.8,1.2,0.8,2v4.2c0,0.3,0,0.6,0.1,0.9c0,0.3,0.1,0.6,0.2,0.8H186z M182.9,96.9
		c0.7,0,1.3-0.2,1.9-0.5c0.5-0.3,0.9-0.8,1.1-1.3v-1.6h-2.1c-0.8,0-1.4,0.2-1.9,0.5c-0.5,0.4-0.7,0.8-0.7,1.3c0,0.5,0.2,0.9,0.5,1.2
		C181.9,96.7,182.4,96.9,182.9,96.9z"/>
	<path id="XMLID_59_" class="st10" d="M190.1,89.1l0.1,1.5c0.3-0.5,0.6-0.9,1.1-1.2c0.5-0.3,1-0.4,1.6-0.4c0.9,0,1.6,0.3,2.1,0.8
		c0.5,0.6,0.7,1.4,0.7,2.6v5.1h-0.9v-5.1c0-1-0.2-1.7-0.5-2.1c-0.4-0.4-0.9-0.6-1.5-0.6c-0.7,0-1.2,0.2-1.6,0.5
		c-0.4,0.3-0.7,0.8-0.9,1.3v6h-0.9v-8.5H190.1z"/>
	<path id="XMLID_61_" class="st10" d="M202.3,97.5V86.2h3.5c1.4,0,2.5,0.5,3.4,1.4c0.9,0.9,1.4,2.1,1.4,3.6v1.5
		c0,1.5-0.5,2.6-1.4,3.6c-0.9,0.9-2.1,1.4-3.4,1.4H202.3z M203.2,87v9.8h2.5c1.1,0,2.1-0.4,2.8-1.2c0.7-0.8,1.1-1.8,1.1-3v-1.5
		c0-1.2-0.4-2.2-1.1-3c-0.7-0.8-1.7-1.2-2.8-1.2H203.2z"/>
	<path id="XMLID_75_" class="st10" d="M218.2,97.5c-0.1-0.3-0.1-0.6-0.1-0.8c0-0.2,0-0.4,0-0.7c-0.3,0.5-0.7,0.8-1.2,1.1
		c-0.5,0.3-1.1,0.4-1.8,0.4c-0.8,0-1.5-0.2-1.9-0.7c-0.5-0.4-0.7-1-0.7-1.8s0.3-1.4,1-1.8c0.7-0.5,1.5-0.7,2.6-0.7h2.1v-1
		c0-0.6-0.2-1.1-0.6-1.4s-0.9-0.5-1.6-0.5c-0.6,0-1.2,0.2-1.6,0.5c-0.4,0.3-0.6,0.7-0.6,1.2h-0.9l0,0c0-0.6,0.2-1.2,0.8-1.7
		c0.6-0.5,1.3-0.7,2.3-0.7c0.9,0,1.7,0.2,2.2,0.7s0.8,1.2,0.8,2v4.2c0,0.3,0,0.6,0.1,0.9c0,0.3,0.1,0.6,0.2,0.8H218.2z M215.1,96.9
		c0.7,0,1.3-0.2,1.9-0.5c0.5-0.3,0.9-0.8,1.1-1.3v-1.6h-2.1c-0.8,0-1.4,0.2-1.9,0.5c-0.5,0.4-0.7,0.8-0.7,1.3c0,0.5,0.2,0.9,0.5,1.2
		C214.1,96.7,214.5,96.9,215.1,96.9z"/>
	<path id="XMLID_81_" class="st10" d="M222.9,86.9v2.2h1.9v0.8h-1.9v5.5c0,0.6,0.1,0.9,0.3,1.2c0.2,0.2,0.5,0.3,0.8,0.3
		c0.1,0,0.2,0,0.3,0c0.1,0,0.2,0,0.4-0.1l0.1,0.7c-0.1,0.1-0.3,0.1-0.5,0.2c-0.2,0-0.4,0.1-0.6,0.1c-0.6,0-1.1-0.2-1.4-0.6
		c-0.3-0.4-0.5-1-0.5-1.8v-5.5h-1.5v-0.8h1.5v-2.2H222.9z"/>
	<path id="XMLID_86_" class="st10" d="M231.9,97.5c-0.1-0.3-0.1-0.6-0.1-0.8c0-0.2,0-0.4,0-0.7c-0.3,0.5-0.7,0.8-1.2,1.1
		c-0.5,0.3-1.1,0.4-1.8,0.4c-0.8,0-1.5-0.2-1.9-0.7c-0.5-0.4-0.7-1-0.7-1.8s0.3-1.4,1-1.8c0.7-0.5,1.5-0.7,2.6-0.7h2.1v-1
		c0-0.6-0.2-1.1-0.6-1.4s-0.9-0.5-1.6-0.5c-0.6,0-1.2,0.2-1.6,0.5c-0.4,0.3-0.6,0.7-0.6,1.2h-0.9l0,0c0-0.6,0.2-1.2,0.8-1.7
		c0.6-0.5,1.3-0.7,2.3-0.7c0.9,0,1.7,0.2,2.2,0.7s0.8,1.2,0.8,2v4.2c0,0.3,0,0.6,0.1,0.9c0,0.3,0.1,0.6,0.2,0.8H231.9z M228.8,96.9
		c0.7,0,1.3-0.2,1.9-0.5c0.5-0.3,0.9-0.8,1.1-1.3v-1.6h-2.1c-0.8,0-1.4,0.2-1.9,0.5c-0.5,0.4-0.7,0.8-0.7,1.3c0,0.5,0.2,0.9,0.5,1.2
		C227.8,96.7,228.3,96.9,228.8,96.9z"/>
	<path id="XMLID_93_" class="st10" d="M245.2,94.4h-5l-1.1,3.2h-1l4.2-11.4h0.9l4.1,11.4h-1L245.2,94.4z M240.5,93.5h4.4l-2.2-6h0
		L240.5,93.5z"/>
	<path id="XMLID_105_" class="st10" d="M249.7,89.1l0.1,1.5c0.3-0.5,0.6-0.9,1.1-1.2c0.5-0.3,1-0.4,1.6-0.4c0.9,0,1.6,0.3,2.1,0.8
		c0.5,0.6,0.7,1.4,0.7,2.6v5.1h-0.9v-5.1c0-1-0.2-1.7-0.5-2.1c-0.4-0.4-0.9-0.6-1.5-0.6c-0.7,0-1.2,0.2-1.6,0.5
		c-0.4,0.3-0.7,0.8-0.9,1.3v6h-0.9v-8.5H249.7z"/>
	<path id="XMLID_113_" class="st10" d="M263.1,97.5c-0.1-0.3-0.1-0.6-0.1-0.8c0-0.2,0-0.4,0-0.7c-0.3,0.5-0.7,0.8-1.2,1.1
		c-0.5,0.3-1.1,0.4-1.8,0.4c-0.8,0-1.5-0.2-1.9-0.7c-0.5-0.4-0.7-1-0.7-1.8s0.3-1.4,1-1.8c0.7-0.5,1.5-0.7,2.6-0.7h2.1v-1
		c0-0.6-0.2-1.1-0.6-1.4s-0.9-0.5-1.6-0.5c-0.6,0-1.2,0.2-1.6,0.5c-0.4,0.3-0.6,0.7-0.6,1.2h-0.9l0,0c0-0.6,0.2-1.2,0.8-1.7
		c0.6-0.5,1.3-0.7,2.3-0.7c0.9,0,1.7,0.2,2.2,0.7s0.8,1.2,0.8,2v4.2c0,0.3,0,0.6,0.1,0.9c0,0.3,0.1,0.6,0.2,0.8H263.1z M260,96.9
		c0.7,0,1.3-0.2,1.9-0.5c0.5-0.3,0.9-0.8,1.1-1.3v-1.6h-2.1c-0.8,0-1.4,0.2-1.9,0.5c-0.5,0.4-0.7,0.8-0.7,1.3c0,0.5,0.2,0.9,0.5,1.2
		C259,96.7,259.5,96.9,260,96.9z"/>
	<path id="XMLID_134_" class="st10" d="M267.4,97.5h-0.9V85.3h0.9V97.5z"/>
	<path id="XMLID_136_" class="st10" d="M272.4,95.2l0.3,1h0l2.6-7.2h1l-3.7,9.8c-0.2,0.6-0.5,1.1-0.9,1.5c-0.3,0.4-0.9,0.6-1.5,0.6
		c-0.1,0-0.2,0-0.4,0s-0.3,0-0.3-0.1l0.1-0.8c0.1,0,0.2,0,0.3,0c0.1,0,0.2,0,0.3,0c0.4,0,0.7-0.1,1-0.4c0.2-0.3,0.5-0.7,0.6-1.1
		l0.4-1.1l-3.3-8.3h1L272.4,95.2z"/>
	<path id="XMLID_140_" class="st10" d="M282.9,95.4c0-0.4-0.2-0.7-0.5-1c-0.3-0.3-0.9-0.5-1.8-0.7c-1-0.2-1.7-0.5-2.2-0.9
		c-0.5-0.4-0.7-0.9-0.7-1.5c0-0.6,0.3-1.2,0.8-1.6c0.5-0.4,1.3-0.7,2.2-0.7c0.9,0,1.7,0.2,2.3,0.7s0.8,1.1,0.8,1.8l0,0h-0.9
		c0-0.5-0.2-0.9-0.6-1.2s-0.9-0.5-1.6-0.5c-0.7,0-1.2,0.1-1.5,0.4s-0.5,0.6-0.5,1c0,0.4,0.1,0.7,0.4,1c0.3,0.3,0.9,0.5,1.8,0.7
		c1,0.2,1.7,0.5,2.2,0.9s0.8,0.9,0.8,1.6c0,0.7-0.3,1.3-0.9,1.7s-1.3,0.7-2.3,0.7c-1,0-1.8-0.2-2.4-0.7s-0.9-1.1-0.8-1.8l0,0h0.9
		c0,0.6,0.3,1.1,0.7,1.3s1,0.4,1.6,0.4c0.7,0,1.2-0.2,1.6-0.5S282.9,95.8,282.9,95.4z"/>
	<path id="XMLID_143_" class="st10" d="M287,86.7h-0.9v-1.3h0.9V86.7z M287,97.5h-0.9v-8.5h0.9V97.5z"/>
	<path id="XMLID_147_" class="st10" d="M294.7,95.4c0-0.4-0.2-0.7-0.5-1c-0.3-0.3-0.9-0.5-1.8-0.7c-1-0.2-1.7-0.5-2.2-0.9
		c-0.5-0.4-0.7-0.9-0.7-1.5c0-0.6,0.3-1.2,0.8-1.6c0.5-0.4,1.3-0.7,2.2-0.7c0.9,0,1.7,0.2,2.3,0.7s0.8,1.1,0.8,1.8l0,0h-0.9
		c0-0.5-0.2-0.9-0.6-1.2s-0.9-0.5-1.6-0.5c-0.7,0-1.2,0.1-1.5,0.4s-0.5,0.6-0.5,1c0,0.4,0.1,0.7,0.4,1c0.3,0.3,0.9,0.5,1.8,0.7
		c1,0.2,1.7,0.5,2.2,0.9s0.8,0.9,0.8,1.6c0,0.7-0.3,1.3-0.9,1.7s-1.3,0.7-2.3,0.7c-1,0-1.8-0.2-2.4-0.7s-0.9-1.1-0.8-1.8l0,0h0.9
		c0,0.6,0.3,1.1,0.7,1.3s1,0.4,1.6,0.4c0.7,0,1.2-0.2,1.6-0.5S294.7,95.8,294.7,95.4z"/>
	<path id="XMLID_149_" class="st10" d="M302.8,92.8v4.7h-0.9V86.2h3.9c1.2,0,2.1,0.3,2.8,0.9c0.7,0.6,1,1.4,1,2.4c0,1-0.3,1.8-1,2.4
		c-0.7,0.6-1.6,0.9-2.8,0.9H302.8z M302.8,92h3c0.9,0,1.6-0.2,2.1-0.7s0.7-1.1,0.7-1.8c0-0.7-0.2-1.3-0.7-1.8s-1.2-0.7-2.1-0.7h-3
		V92z"/>
	<path id="XMLID_154_" class="st10" d="M312.6,97.5h-0.9V85.3h0.9V97.5z"/>
	<path id="XMLID_156_" class="st10" d="M320.5,97.5c-0.1-0.3-0.1-0.6-0.1-0.8c0-0.2,0-0.4,0-0.7c-0.3,0.5-0.7,0.8-1.2,1.1
		c-0.5,0.3-1.1,0.4-1.8,0.4c-0.8,0-1.5-0.2-1.9-0.7c-0.5-0.4-0.7-1-0.7-1.8s0.3-1.4,1-1.8c0.7-0.5,1.5-0.7,2.6-0.7h2.1v-1
		c0-0.6-0.2-1.1-0.6-1.4s-0.9-0.5-1.6-0.5c-0.6,0-1.2,0.2-1.6,0.5c-0.4,0.3-0.6,0.7-0.6,1.2h-0.9l0,0c0-0.6,0.2-1.2,0.8-1.7
		c0.6-0.5,1.3-0.7,2.3-0.7c0.9,0,1.7,0.2,2.2,0.7s0.8,1.2,0.8,2v4.2c0,0.3,0,0.6,0.1,0.9c0,0.3,0.1,0.6,0.2,0.8H320.5z M317.4,96.9
		c0.7,0,1.3-0.2,1.9-0.5c0.5-0.3,0.9-0.8,1.1-1.3v-1.6h-2.1c-0.8,0-1.4,0.2-1.9,0.5c-0.5,0.4-0.7,0.8-0.7,1.3c0,0.5,0.2,0.9,0.5,1.2
		C316.4,96.7,316.9,96.9,317.4,96.9z"/>
	<path id="XMLID_159_" class="st10" d="M325.2,86.9v2.2h1.9v0.8h-1.9v5.5c0,0.6,0.1,0.9,0.3,1.2c0.2,0.2,0.5,0.3,0.8,0.3
		c0.1,0,0.2,0,0.3,0c0.1,0,0.2,0,0.4-0.1l0.1,0.7c-0.1,0.1-0.3,0.1-0.5,0.2c-0.2,0-0.4,0.1-0.6,0.1c-0.6,0-1.1-0.2-1.4-0.6
		c-0.3-0.4-0.5-1-0.5-1.8v-5.5h-1.5v-0.8h1.5v-2.2H325.2z"/>
	<path id="XMLID_161_" class="st10" d="M329.6,97.5v-7.7h-1.4v-0.8h1.4v-1.2c0-0.8,0.2-1.5,0.6-2c0.4-0.5,1-0.7,1.8-0.7
		c0.2,0,0.3,0,0.5,0c0.2,0,0.4,0.1,0.5,0.1l-0.1,0.8c-0.1,0-0.3-0.1-0.4-0.1c-0.1,0-0.3,0-0.5,0c-0.5,0-0.9,0.2-1.2,0.5
		s-0.4,0.8-0.4,1.4v1.2h1.9v0.8h-1.9v7.7H329.6z"/>
	<path id="XMLID_163_" class="st10" d="M333.5,93.2c0-1.2,0.3-2.3,1-3.1c0.7-0.8,1.6-1.2,2.7-1.2c1.1,0,2,0.4,2.7,1.2
		c0.7,0.8,1,1.8,1,3.1v0.3c0,1.2-0.3,2.3-1,3.1s-1.6,1.2-2.7,1.2c-1.1,0-2-0.4-2.7-1.2c-0.7-0.8-1-1.8-1-3.1V93.2z M334.5,93.4
		c0,1,0.2,1.8,0.7,2.5c0.5,0.7,1.2,1,2.1,1c0.9,0,1.6-0.3,2.1-1c0.5-0.7,0.7-1.5,0.7-2.5v-0.3c0-1-0.2-1.8-0.8-2.5s-1.2-1-2.1-1
		s-1.6,0.3-2.1,1c-0.5,0.7-0.7,1.5-0.7,2.5V93.4z"/>
	<path id="XMLID_166_" class="st10" d="M346.8,89.9l-0.7,0c-0.6,0-1.1,0.2-1.4,0.5c-0.4,0.3-0.6,0.8-0.8,1.4v5.8H343v-8.5h0.8
		l0.1,1.4v0.1c0.2-0.5,0.6-0.9,1-1.2c0.4-0.3,0.9-0.4,1.5-0.4c0.1,0,0.2,0,0.3,0c0.1,0,0.2,0,0.3,0.1L346.8,89.9z"/>
	<path id="XMLID_168_" class="st10" d="M349.2,89.1l0.1,1.4c0.3-0.5,0.6-0.9,1.1-1.1c0.5-0.3,1-0.4,1.6-0.4c0.6,0,1.2,0.2,1.6,0.5
		c0.4,0.3,0.7,0.8,0.9,1.4c0.3-0.6,0.6-1,1.1-1.4c0.5-0.3,1-0.5,1.7-0.5c0.9,0,1.6,0.3,2.1,0.9s0.7,1.5,0.7,2.8v4.9h-0.9v-4.9
		c0-1-0.2-1.8-0.6-2.2c-0.4-0.4-0.9-0.6-1.5-0.6c-0.7,0-1.3,0.2-1.7,0.7s-0.6,1-0.7,1.7c0,0.1,0,0.1,0,0.2c0,0.1,0,0.1,0,0.2v5.1
		h-0.9v-4.9c0-1-0.2-1.8-0.6-2.2c-0.4-0.4-0.9-0.7-1.5-0.7c-0.7,0-1.2,0.2-1.6,0.5c-0.4,0.3-0.7,0.8-0.8,1.3v6h-0.9v-8.5H349.2z"/>
	<path id="XMLID_170_" class="st10" d="M363.8,97.5h-1.1v-1.3h1.1V97.5z"/>
</g>
<g id="XMLID_30_">
	<polygon id="XMLID_132_" class="st11" points="1023.1,72.4 974.5,98.2 974.5,34.7 1023.1,8.9 	"/>
	<polygon id="XMLID_131_" class="st12" points="1023.2,72.4 1071.9,98.2 1071.9,34.7 1023.2,8.9 	"/>
	<g id="XMLID_129_" class="st13">
		<linearGradient id="XMLID_228_" gradientUnits="userSpaceOnUse" x1="974.4473" y1="97.0535" x2="1071.9153" y2="97.0535">
			<stop  offset="0" style="stop-color:#3964F5"/>
			<stop  offset="0.6649" style="stop-color:#022980"/>
		</linearGradient>
		<path id="XMLID_130_" class="st14" d="M1070.8,95.5c1.4,0.8,1.4,2.2,0,3l-44.9,26.1c-1.4,0.8-3.8,0.8-5.2,0l-45.2-26.1
			c-1.4-0.8-1.4-2.2,0-3l44.9-26.1c1.4-0.8,3.8-0.8,5.2,0L1070.8,95.5z"/>
	</g>
	<g id="XMLID_127_">
		<linearGradient id="XMLID_229_" gradientUnits="userSpaceOnUse" x1="1011.5873" y1="65.5538" x2="1034.7889" y2="105.7402">
			<stop  offset="0" style="stop-color:#CCD2EE"/>
			<stop  offset="1" style="stop-color:#F8F9FF"/>
		</linearGradient>
		<path id="XMLID_128_" class="st15" d="M1066.9,84.3c1.3,0.8,1.3,2,0,2.8l-41.2,24c-1.3,0.8-3.5,0.8-4.8,0l-41.5-24
			c-1.3-0.8-1.3-2,0-2.8l41.2-24c1.3-0.8,3.5-0.8,4.8,0L1066.9,84.3z"/>
	</g>
	<g id="XMLID_125_" class="st16">
		<path id="XMLID_126_" class="st17" d="M1060.7,83.5c1.1,0.7,1.1,1.7,0,2.4l-35.5,20.6c-1.1,0.7-3,0.7-4.1,0l-35.7-20.6
			c-1.1-0.7-1.1-1.7,0-2.4l35.5-20.6c1.1-0.7,3-0.7,4.1,0L1060.7,83.5z"/>
	</g>
	<linearGradient id="XMLID_232_" gradientUnits="userSpaceOnUse" x1="978.4512" y1="105.4598" x2="1067.9252" y2="105.4598">
		<stop  offset="0" style="stop-color:#C9CEEE"/>
		<stop  offset="5.000000e-02" style="stop-color:#AEB6E0"/>
		<stop  offset="0.4" style="stop-color:#AFB7E1"/>
		<stop  offset="0.5" style="stop-color:#C6CBEC"/>
		<stop  offset="0.6" style="stop-color:#DEE2F9"/>
		<stop  offset="0.95" style="stop-color:#E4E8FC"/>
		<stop  offset="1" style="stop-color:#C0C6E9"/>
	</linearGradient>
	<path id="XMLID_124_" class="st18" d="M1067.9,85.8c0,0,0,0.1,0,0.1c0,0,0,0.1,0,0.1c0,0,0,0.1,0,0.1c0,0,0,0.1,0,0.1
		c0,0,0,0.1,0,0.1c0,0,0,0.1,0,0.1c0,0-0.1,0.1-0.1,0.1c0,0-0.1,0.1-0.1,0.1c0,0,0,0,0,0c0,0-0.1,0.1-0.1,0.1c0,0-0.1,0.1-0.1,0.1
		c0,0-0.1,0.1-0.1,0.1c0,0-0.1,0.1-0.1,0.1c0,0-0.1,0.1-0.1,0.1l-41.2,24c-0.1,0.1-0.2,0.1-0.3,0.2c0,0-0.1,0-0.1,0
		c-0.1,0-0.2,0.1-0.3,0.1c0,0-0.1,0-0.1,0c-0.1,0-0.1,0-0.2,0c0,0-0.1,0-0.1,0c-0.1,0-0.1,0-0.2,0c0,0-0.1,0-0.1,0
		c-0.1,0-0.3,0-0.4,0.1c0,0-0.1,0-0.1,0c-0.1,0-0.2,0-0.2,0c0,0-0.1,0-0.1,0c-0.1,0-0.1,0-0.2,0c-0.1,0-0.1,0-0.2,0
		c-0.1,0-0.1,0-0.2,0c-0.1,0-0.1,0-0.2,0c-0.1,0-0.1,0-0.2,0c-0.1,0-0.1,0-0.2,0c-0.1,0-0.1,0-0.2,0c0,0-0.1,0-0.1,0
		c-0.1,0-0.1,0-0.2-0.1c0,0-0.1,0-0.1,0c-0.1,0-0.2-0.1-0.4-0.1c-0.1,0-0.1,0-0.2-0.1c0,0-0.1,0-0.1,0c-0.1,0-0.2-0.1-0.2-0.1
		l-41.5-24c-0.3-0.2-0.6-0.4-0.7-0.6c-0.2-0.2-0.2-0.5-0.2-0.7v0v0l0,13.7c0,0.5,0.3,1,1,1.4l41.5,24c0.1,0,0.2,0.1,0.2,0.1
		c0,0,0.1,0,0.1,0c0,0,0.1,0,0.1,0.1c0,0,0,0,0,0c0.1,0,0.2,0.1,0.4,0.1c0,0,0,0,0,0c0,0,0.1,0,0.1,0c0.1,0,0.1,0,0.2,0.1
		c0,0,0,0,0.1,0c0,0,0.1,0,0.1,0c0.1,0,0.1,0,0.2,0c0,0,0,0,0.1,0c0,0,0.1,0,0.1,0c0.1,0,0.1,0,0.2,0c0,0,0.1,0,0.1,0
		c0,0,0.1,0,0.1,0c0.1,0,0.1,0,0.2,0c0,0,0.1,0,0.1,0c0,0,0,0,0.1,0c0.1,0,0.1,0,0.2,0c0,0,0.1,0,0.1,0c0,0,0,0,0.1,0
		c0.1,0,0.2,0,0.2,0c0,0,0.1,0,0.1,0c0,0,0,0,0,0c0.1,0,0.3,0,0.4-0.1c0,0,0,0,0,0c0,0,0.1,0,0.1,0c0.1,0,0.1,0,0.2,0
		c0,0,0.1,0,0.1,0c0.1,0,0.1,0,0.2,0c0,0,0,0,0,0c0,0,0,0,0.1,0c0.1,0,0.2-0.1,0.3-0.1c0,0,0.1,0,0.1,0c0.1,0,0.2-0.1,0.3-0.2
		l41.2-24c0,0,0,0,0,0c0,0,0.1,0,0.1-0.1c0,0,0.1-0.1,0.1-0.1c0,0,0.1,0,0.1-0.1c0,0,0.1-0.1,0.1-0.1c0,0,0,0,0,0
		c0,0,0.1-0.1,0.1-0.1c0,0,0,0,0,0c0,0,0,0,0.1-0.1c0,0,0,0,0,0c0,0,0.1-0.1,0.1-0.1c0,0,0,0,0,0c0,0,0,0,0,0c0,0,0-0.1,0-0.1
		c0,0,0,0,0-0.1c0,0,0,0,0,0c0,0,0-0.1,0-0.1c0,0,0,0,0-0.1c0,0,0,0,0,0c0,0,0-0.1,0-0.1c0,0,0,0,0-0.1c0,0,0,0,0,0L1067.9,85.8
		C1067.9,85.7,1067.9,85.7,1067.9,85.8z"/>
	<g id="XMLID_123_">
		
			<image style="overflow:visible;opacity:0.5;" width="120" height="59" id="XMLID_151_" xlink:href="6B98544A225DA591.png"  transform="matrix(1 0 0 1 963 75.8645)">
		</image>
		<g id="XMLID_144_">
			<path id="XMLID_150_" class="st19" d="M1067.9,92C1067.8,92,1067.8,92.1,1067.9,92c0,0.1-0.1,0.2-0.1,0.2c0,0,0,0.1,0,0.1
				c0,0-0.1,0.1-0.1,0.1c0,0-0.1,0.1-0.1,0.1c0,0,0,0,0,0c0,0-0.1,0.1-0.1,0.1c0,0-0.1,0.1-0.1,0.1c0,0-0.1,0.1-0.1,0.1
				c0,0-0.1,0.1-0.1,0.1c0,0-0.1,0.1-0.1,0.1l-41.2,24c-0.1,0.1-0.2,0.1-0.3,0.2c0,0-0.1,0-0.1,0c-0.1,0-0.2,0.1-0.3,0.1
				c0,0-0.1,0-0.1,0c-0.1,0-0.1,0-0.2,0c0,0-0.1,0-0.1,0c-0.1,0-0.1,0-0.2,0c0,0-0.1,0-0.1,0c-0.1,0-0.3,0-0.4,0.1c0,0-0.1,0-0.1,0
				c-0.1,0-0.2,0-0.2,0c0,0-0.1,0-0.1,0c-0.1,0-0.1,0-0.2,0c-0.1,0-0.1,0-0.2,0c-0.1,0-0.1,0-0.2,0c-0.1,0-0.1,0-0.2,0
				c-0.1,0-0.1,0-0.2,0c-0.1,0-0.1,0-0.2,0c-0.1,0-0.1,0-0.2,0c0,0-0.1,0-0.1,0c-0.1,0-0.1,0-0.2-0.1c0,0-0.1,0-0.1,0
				c-0.1,0-0.2-0.1-0.4-0.1c-0.1,0-0.1,0-0.2-0.1c0,0-0.1,0-0.1,0c-0.1,0-0.2-0.1-0.2-0.1l-41.5-24c-0.3-0.2-0.6-0.4-0.7-0.6
				s-0.2-0.5-0.2-0.7v0v0l0,1.7c0.1,0.4,0.4,0.8,1,1.1l41.5,24c0.1,0,0.2,0.1,0.2,0.1c0,0,0.1,0,0.1,0c0,0,0.1,0,0.1,0.1
				c0,0,0,0,0,0c0.1,0,0.2,0.1,0.4,0.1c0,0,0,0,0,0c0,0,0.1,0,0.1,0c0.1,0,0.1,0,0.2,0.1c0,0,0,0,0.1,0c0,0,0.1,0,0.1,0
				c0.1,0,0.1,0,0.2,0c0,0,0,0,0.1,0c0,0,0.1,0,0.1,0c0.1,0,0.1,0,0.2,0c0,0,0.1,0,0.1,0c0,0,0.1,0,0.1,0c0.1,0,0.1,0,0.2,0
				c0,0,0.1,0,0.1,0c0,0,0,0,0.1,0c0.1,0,0.1,0,0.2,0c0,0,0.1,0,0.1,0c0,0,0,0,0.1,0c0.1,0,0.2,0,0.2,0c0,0,0.1,0,0.1,0c0,0,0,0,0,0
				c0.1,0,0.3,0,0.4-0.1c0,0,0,0,0,0c0,0,0.1,0,0.1,0c0.1,0,0.1,0,0.2,0c0,0,0.1,0,0.1,0c0.1,0,0.1,0,0.2,0c0,0,0,0,0,0
				c0,0,0,0,0.1,0c0.1,0,0.2-0.1,0.3-0.1c0,0,0.1,0,0.1,0c0.1,0,0.2-0.1,0.3-0.2l41.2-24c0,0,0,0,0,0c0,0,0.1,0,0.1-0.1
				c0,0,0.1-0.1,0.1-0.1c0,0,0.1,0,0.1-0.1c0,0,0.1-0.1,0.1-0.1c0,0,0,0,0,0c0,0,0.1-0.1,0.1-0.1c0,0,0,0,0,0c0,0,0,0,0.1-0.1
				c0,0,0,0,0,0c0,0,0.1-0.1,0.1-0.1c0,0,0,0,0,0c0,0,0,0,0,0c0,0,0-0.1,0-0.1c0,0,0,0,0-0.1c0,0,0,0,0,0c0,0,0-0.1,0-0.1
				c0,0,0,0,0-0.1c0,0,0,0,0,0c0,0,0-0.1,0-0.1c0,0,0,0,0-0.1c0,0,0,0,0,0l0-1.1c0,0,0,0,0,0C1067.9,91.9,1067.9,92,1067.9,92z"/>
		</g>
	</g>
	<g id="XMLID_117_">
		<g id="XMLID_121_">
			<linearGradient id="XMLID_233_" gradientUnits="userSpaceOnUse" x1="984.824" y1="75.5533" x2="1061.5522" y2="75.5533">
				<stop  offset="0" style="stop-color:#EE7C4E"/>
				<stop  offset="1" style="stop-color:#F4B466"/>
			</linearGradient>
			<path id="XMLID_122_" class="st20" d="M1060.7,74.4c1.1,0.7,1.1,1.7,0,2.4l-35.4,20.5c-1.1,0.7-3,0.7-4.1,0l-35.6-20.5
				c-1.1-0.7-1.1-1.7,0-2.4l35.4-20.5c1.1-0.7,3-0.7,4.1,0L1060.7,74.4z"/>
		</g>
		<linearGradient id="XMLID_234_" gradientUnits="userSpaceOnUse" x1="984.8073" y1="87.7708" x2="1061.569" y2="87.7708">
			<stop  offset="0" style="stop-color:#F4B466"/>
			<stop  offset="1" style="stop-color:#EE7C4E"/>
		</linearGradient>
		<path id="XMLID_120_" class="st21" d="M1061.6,75.6C1061.6,75.7,1061.6,75.7,1061.6,75.6c0,0.1,0,0.1,0,0.2c0,0,0,0.1,0,0.1
			c0,0,0,0,0,0.1c0,0,0,0.1,0,0.1c0,0,0,0,0,0.1c0,0,0,0.1-0.1,0.1c0,0,0,0.1-0.1,0.1c0,0,0,0,0,0c0,0-0.1,0.1-0.1,0.1
			c0,0-0.1,0-0.1,0.1c0,0-0.1,0-0.1,0.1c0,0-0.1,0-0.1,0.1c0,0-0.1,0-0.1,0.1l-35.4,20.5c-0.1,0-0.2,0.1-0.3,0.1c0,0-0.1,0-0.1,0
			c-0.1,0-0.1,0.1-0.2,0.1c0,0-0.1,0-0.1,0c0,0-0.1,0-0.1,0c0,0-0.1,0-0.1,0c-0.1,0-0.1,0-0.2,0c0,0-0.1,0-0.1,0c-0.1,0-0.2,0-0.3,0
			c0,0-0.1,0-0.1,0c-0.1,0-0.1,0-0.2,0c0,0-0.1,0-0.1,0c-0.1,0-0.1,0-0.2,0c0,0-0.1,0-0.1,0c0,0-0.1,0-0.1,0c0,0-0.1,0-0.1,0
			c0,0-0.1,0-0.1,0c0,0-0.1,0-0.1,0c-0.1,0-0.1,0-0.2,0c0,0-0.1,0-0.1,0c-0.1,0-0.1,0-0.2,0c0,0-0.1,0-0.1,0c-0.1,0-0.2-0.1-0.3-0.1
			c0,0-0.1,0-0.1-0.1c0,0-0.1,0-0.1,0c-0.1,0-0.1-0.1-0.2-0.1l-35.6-20.5c-0.3-0.2-0.5-0.4-0.6-0.6c-0.1-0.2-0.2-0.4-0.2-0.6v0v0
			l0,2.2c0,0.4,0.3,0.9,0.9,1.2l35.6,20.5c0.1,0,0.1,0.1,0.2,0.1c0,0,0,0,0.1,0c0,0,0.1,0,0.1,0.1c0,0,0,0,0,0
			c0.1,0,0.2,0.1,0.3,0.1c0,0,0,0,0,0c0,0,0,0,0.1,0c0.1,0,0.1,0,0.2,0c0,0,0,0,0,0c0,0,0,0,0.1,0c0.1,0,0.1,0,0.2,0c0,0,0,0,0.1,0
			c0,0,0,0,0.1,0c0,0,0.1,0,0.1,0c0,0,0,0,0.1,0c0,0,0,0,0.1,0c0,0,0.1,0,0.1,0c0,0,0,0,0.1,0c0,0,0,0,0.1,0c0.1,0,0.1,0,0.2,0
			c0,0,0.1,0,0.1,0c0,0,0,0,0,0c0.1,0,0.1,0,0.2,0c0,0,0.1,0,0.1,0c0,0,0,0,0,0c0.1,0,0.2,0,0.3,0c0,0,0,0,0,0c0,0,0.1,0,0.1,0
			c0.1,0,0.1,0,0.2,0c0,0,0.1,0,0.1,0c0,0,0.1,0,0.1,0c0,0,0,0,0,0c0,0,0,0,0.1,0c0.1,0,0.2-0.1,0.2-0.1c0,0,0.1,0,0.1,0
			c0.1,0,0.2-0.1,0.3-0.1l35.4-20.5c0,0,0,0,0,0c0,0,0.1,0,0.1-0.1c0,0,0.1,0,0.1-0.1c0,0,0.1,0,0.1-0.1c0,0,0.1,0,0.1-0.1
			c0,0,0,0,0,0c0,0,0.1-0.1,0.1-0.1c0,0,0,0,0,0c0,0,0,0,0.1-0.1c0,0,0,0,0,0c0,0,0-0.1,0.1-0.1c0,0,0,0,0,0c0,0,0,0,0,0
			c0,0,0-0.1,0-0.1c0,0,0,0,0-0.1c0,0,0,0,0,0c0,0,0-0.1,0-0.1c0,0,0,0,0-0.1c0,0,0,0,0,0c0,0,0-0.1,0-0.1c0,0,0,0,0-0.1
			c0,0,0,0,0,0L1061.6,75.6C1061.6,75.6,1061.6,75.6,1061.6,75.6z"/>
		<g id="XMLID_118_" class="st13">
			<path id="XMLID_119_" class="st22" d="M1060.7,74.4c1.1,0.7,1.1,1.7,0,2.4l-35.4,20.6c-1.1,0.7-3,0.7-4.1,0l-35.6-20.6
				c-1.1-0.7-1.1-1.7,0-2.4l35.4-20.6c1.1-0.7,3-0.7,4.1,0L1060.7,74.4z"/>
		</g>
	</g>
	<g id="XMLID_115_" class="st23">
		<path id="XMLID_116_" class="st17" d="M1060.7,67.9c1.1,0.7,1.1,1.7,0,2.4l-35.5,20.6c-1.1,0.7-3,0.7-4.1,0l-35.7-20.6
			c-1.1-0.7-1.1-1.7,0-2.4l35.5-20.6c1.1-0.7,3-0.7,4.1,0L1060.7,67.9z"/>
	</g>
	<g id="XMLID_110_" class="st24">
		<g id="XMLID_111_">
			<path id="XMLID_138_" class="st25" d="M1060.7,62.1c1.1,0.7,1.1,1.7,0,2.4l-35.5,20.6c-1.1,0.7-3,0.7-4.1,0l-35.7-20.6
				c-1.1-0.7-1.1-1.7,0-2.4l35.5-20.6c1.1-0.7,3-0.7,4.1,0L1060.7,62.1z"/>
		</g>
	</g>
	<g id="XMLID_65_">
		<g id="XMLID_103_">
			<defs>
				<path id="XMLID_106_" d="M1036.5,52.5l3.7,1.6c1.1,0.5,2,1.5,2.5,2.8c0,0.1,0,0.2,0.1,0.2l-3.7-1.6c0-0.1,0-0.2-0.1-0.2
					C1038.5,54,1037.6,53,1036.5,52.5z"/>
			</defs>
			<use xlink:href="#XMLID_106_"  style="overflow:visible;fill:#B2C5EB;"/>
			<clipPath id="XMLID_235_">
				<use xlink:href="#XMLID_106_"  style="overflow:visible;"/>
			</clipPath>
			<g id="XMLID_107_" class="st26">
				<path id="XMLID_108_" class="st27" d="M1042.7,57.2l-3.7-1.6c0-0.1,0-0.2-0.1-0.2c-0.5-1.3-1.4-2.3-2.5-2.8l3.7,1.6
					c1.1,0.5,2,1.5,2.5,2.8C1042.7,57,1042.7,57.1,1042.7,57.2"/>
			</g>
		</g>
		<g id="XMLID_293_">
			<defs>
				<path id="XMLID_298_" d="M1036,54.6l3.7,1.6c-0.6-0.3-1.3-0.3-2-0.2l-3.7-1.6C1034.8,54.2,1035.4,54.3,1036,54.6z"/>
			</defs>
			<use xlink:href="#XMLID_298_"  style="overflow:visible;fill:#B2C5EB;"/>
			<clipPath id="XMLID_236_">
				<use xlink:href="#XMLID_298_"  style="overflow:visible;"/>
			</clipPath>
			<g id="XMLID_294_" class="st28">
				<path id="XMLID_297_" class="st27" d="M1037.7,56l-3.7-1.6c0.4-0.1,0.7-0.1,1.1-0.1l3.7,1.6C1038.4,55.9,1038.1,56,1037.7,56"/>
				<path id="XMLID_296_" class="st27" d="M1038.8,56l-3.7-1.6c0.2,0,0.4,0.1,0.6,0.1l3.7,1.6C1039.2,56,1039,56,1038.8,56"/>
				<path id="XMLID_295_" class="st27" d="M1039.4,56.1l-3.7-1.6c0.1,0,0.2,0.1,0.3,0.1l3.7,1.6
					C1039.6,56.2,1039.5,56.1,1039.4,56.1"/>
			</g>
		</g>
		<g id="XMLID_282_">
			<defs>
				<path id="XMLID_292_" d="M1036,64.4l-3.7-1.6c-0.8-0.3-1.4-1-1.7-2c-0.7-2.1,0.3-4.8,2.2-5.9c0.4-0.2,0.8-0.4,1.2-0.5l3.7,1.6
					c-0.4,0.1-0.8,0.2-1.2,0.5c-2,1.2-3,3.8-2.2,5.9C1034.6,63.4,1035.3,64.1,1036,64.4z"/>
			</defs>
			<use xlink:href="#XMLID_292_"  style="overflow:visible;fill:#B2C5EB;"/>
			<clipPath id="XMLID_237_">
				<use xlink:href="#XMLID_292_"  style="overflow:visible;"/>
			</clipPath>
			<g id="XMLID_283_" class="st29">
				<path id="XMLID_291_" class="st27" d="M1036,64.4l-3.7-1.6c-0.8-0.3-1.4-1-1.7-2c-0.3-0.8-0.3-1.7-0.1-2.6l3.7,1.6
					c-0.2,0.9-0.2,1.8,0.1,2.6C1034.6,63.4,1035.3,64.1,1036,64.4"/>
				<path id="XMLID_290_" class="st27" d="M1034.2,59.8l-3.7-1.6c0.1-0.2,0.1-0.5,0.2-0.7l3.7,1.6
					C1034.3,59.3,1034.3,59.6,1034.2,59.8"/>
				<path id="XMLID_289_" class="st27" d="M1034.4,59.1l-3.7-1.6c0.1-0.2,0.2-0.4,0.3-0.6l3.7,1.6
					C1034.6,58.7,1034.5,58.9,1034.4,59.1"/>
				<path id="XMLID_288_" class="st27" d="M1034.7,58.5l-3.7-1.6c0.1-0.2,0.2-0.3,0.3-0.5l3.7,1.6
					C1034.9,58.2,1034.8,58.4,1034.7,58.5"/>
				<path id="XMLID_287_" class="st27" d="M1035,58l-3.7-1.6c0.1-0.2,0.2-0.3,0.3-0.5l3.7,1.6C1035.2,57.7,1035.1,57.9,1035,58"/>
				<path id="XMLID_286_" class="st27" d="M1035.3,57.6l-3.7-1.6c0.1-0.2,0.3-0.3,0.4-0.4l3.7,1.6
					C1035.6,57.3,1035.4,57.4,1035.3,57.6"/>
				<path id="XMLID_285_" class="st27" d="M1035.7,57.1l-3.7-1.6c0.2-0.2,0.4-0.3,0.6-0.5l3.7,1.6
					C1036.1,56.8,1035.9,57,1035.7,57.1"/>
				<path id="XMLID_284_" class="st27" d="M1036.3,56.7l-3.7-1.6c0.1-0.1,0.2-0.1,0.3-0.2c0.4-0.2,0.8-0.4,1.2-0.5l3.7,1.6
					c-0.4,0.1-0.8,0.2-1.2,0.5C1036.4,56.6,1036.4,56.6,1036.3,56.7"/>
			</g>
		</g>
		<g id="XMLID_280_">
			<path id="XMLID_281_" class="st30" d="M1037.7,56c1.7-0.4,3.2,0.5,3.7,2.1c0.7,2.1-0.3,4.8-2.2,5.9c-0.4,0.2-0.8,0.4-1.2,0.5
				c-1.7,0.4-3.2-0.5-3.7-2.1c-0.7-2.1,0.3-4.8,2.2-5.9C1036.9,56.3,1037.3,56.1,1037.7,56z"/>
		</g>
		<linearGradient id="XMLID_238_" gradientUnits="userSpaceOnUse" x1="1031.5259" y1="43.064" x2="1043.5773" y2="43.064">
			<stop  offset="0" style="stop-color:#CCD2EE"/>
			<stop  offset="0.85" style="stop-color:#EFEFFD"/>
			<stop  offset="1" style="stop-color:#FFFFFF"/>
		</linearGradient>
		<path id="XMLID_98_" class="st31" d="M1039.4,43.1c0.1,0,0.1,0,0.2,0c0,0,0.1,0,0.1,0c0.1,0,0.1,0,0.2,0c0,0,0.1,0,0.1,0
			c0.1,0,0.1,0,0.2,0c0,0,0.1,0,0.1,0c0.1,0,0.1,0,0.2,0c0,0,0.1,0,0.1,0c0.1,0,0.1,0,0.2,0c0,0,0.1,0,0.1,0c0.1,0,0.1,0,0.2,0
			c0,0,0.1,0,0.1,0c0.1,0,0.1,0,0.2,0c0,0,0.1,0,0.1,0c0.1,0,0.2,0,0.3,0c0,0,0,0,0.1,0c0.1,0,0.2,0,0.2,0c0,0,0.1,0,0.1,0
			c0.1,0,0.1,0,0.2,0c0,0,0.1,0,0.1,0c0.1,0,0.1,0,0.2,0.1c0,0,0.1,0,0.1,0c0.1,0,0.1,0,0.2,0.1c0,0,0.1,0,0.1,0
			c0.1,0,0.2,0.1,0.3,0.1l-3.7-1.6c-0.1,0-0.2-0.1-0.3-0.1c0,0-0.1,0-0.1,0c-0.1,0-0.1,0-0.2-0.1c0,0,0,0,0,0c0,0,0,0-0.1,0
			c-0.1,0-0.1,0-0.2-0.1c0,0-0.1,0-0.1,0c-0.1,0-0.1,0-0.2,0c0,0-0.1,0-0.1,0c-0.1,0-0.2,0-0.2,0c0,0,0,0-0.1,0c-0.1,0-0.2,0-0.3,0
			c0,0,0,0,0,0c0,0-0.1,0-0.1,0c-0.1,0-0.1,0-0.2,0c0,0-0.1,0-0.1,0c-0.1,0-0.1,0-0.2,0c0,0-0.1,0-0.1,0c-0.1,0-0.1,0-0.2,0
			c0,0-0.1,0-0.1,0c-0.1,0-0.1,0-0.2,0c0,0-0.1,0-0.1,0c-0.1,0-0.1,0-0.2,0c0,0-0.1,0-0.1,0c-0.1,0-0.1,0-0.2,0c0,0-0.1,0-0.1,0
			c-0.1,0-0.2,0-0.2,0c0,0-0.1,0-0.1,0c-0.1,0-0.2,0-0.3,0.1c-1.1,0.2-2.2,0.7-3.3,1.3c-0.2,0.1-0.3,0.2-0.5,0.3l3.7,1.6
			c0.2-0.1,0.3-0.2,0.5-0.3c1.1-0.7,2.2-1.1,3.3-1.3c0.1,0,0.2,0,0.3-0.1C1039.3,43.1,1039.3,43.1,1039.4,43.1z"/>
		<g id="XMLID_83_">
			<defs>
				<path id="XMLID_84_" d="M1037.6,35.2l-3.7-1.6c0,0,0,0,0,0c0,0,0.1,0,0.1,0c0.1,0,0.3-0.1,0.5-0.2c0.2-0.1,0.4-0.2,0.7-0.2
					c0.4-0.1,0.7-0.1,1.1,0l3.7,1.6c-0.3-0.1-0.7-0.1-1.1,0c-0.2,0.1-0.5,0.1-0.7,0.2c-0.2,0.1-0.4,0.1-0.5,0.2
					C1037.7,35.2,1037.6,35.2,1037.6,35.2C1037.6,35.2,1037.6,35.2,1037.6,35.2z"/>
			</defs>
			<linearGradient id="XMLID_239_" gradientUnits="userSpaceOnUse" x1="1033.9198" y1="34.1279" x2="1039.9377" y2="34.1279">
				<stop  offset="0" style="stop-color:#CCD2EE"/>
				<stop  offset="0.85" style="stop-color:#EFEFFD"/>
				<stop  offset="1" style="stop-color:#FFFFFF"/>
			</linearGradient>
			<use xlink:href="#XMLID_84_"  style="overflow:visible;fill:url(#XMLID_239_);"/>
			<clipPath id="XMLID_240_">
				<use xlink:href="#XMLID_84_"  style="overflow:visible;"/>
			</clipPath>
			<g id="XMLID_87_" class="st32">
				<linearGradient id="XMLID_241_" gradientUnits="userSpaceOnUse" x1="1033.9198" y1="34.3451" x2="1037.5897" y2="34.3451">
					<stop  offset="0" style="stop-color:#CCD2EE"/>
					<stop  offset="0.85" style="stop-color:#EFEFFD"/>
					<stop  offset="1" style="stop-color:#FFFFFF"/>
				</linearGradient>
				<path id="XMLID_95_" class="st33" d="M1037.6,35.2l-3.7-1.6c0,0,0,0,0,0L1037.6,35.2C1037.6,35.2,1037.6,35.2,1037.6,35.2"/>
				<linearGradient id="XMLID_242_" gradientUnits="userSpaceOnUse" x1="1033.9366" y1="34.3517" x2="1037.6173" y2="34.3517">
					<stop  offset="0" style="stop-color:#CCD2EE"/>
					<stop  offset="0.85" style="stop-color:#EFEFFD"/>
					<stop  offset="1" style="stop-color:#FFFFFF"/>
				</linearGradient>
				<path id="XMLID_94_" class="st34" d="M1037.6,35.2l-3.7-1.6c0,0,0,0,0,0c0,0,0,0,0,0L1037.6,35.2
					C1037.6,35.2,1037.6,35.2,1037.6,35.2C1037.6,35.2,1037.6,35.2,1037.6,35.2"/>
				<linearGradient id="XMLID_249_" gradientUnits="userSpaceOnUse" x1="1033.9642" y1="34.1279" x2="1039.5543" y2="34.1279">
					<stop  offset="0" style="stop-color:#CCD2EE"/>
					<stop  offset="0.85" style="stop-color:#EFEFFD"/>
					<stop  offset="1" style="stop-color:#FFFFFF"/>
				</linearGradient>
				<path id="XMLID_91_" class="st35" d="M1037.6,35.2l-3.7-1.6c0,0,0.1,0,0.1,0c0.1,0,0.3-0.1,0.5-0.2c0.2-0.1,0.4-0.2,0.7-0.2
					c0.2-0.1,0.5-0.1,0.7-0.1l3.7,1.6c-0.2,0-0.5,0-0.7,0.1c-0.2,0.1-0.5,0.1-0.7,0.2C1038,35.1,1037.8,35.1,1037.6,35.2
					C1037.7,35.2,1037.6,35.2,1037.6,35.2"/>
				<linearGradient id="XMLID_250_" gradientUnits="userSpaceOnUse" x1="1035.9012" y1="33.9367" x2="1039.8206" y2="33.9367">
					<stop  offset="0" style="stop-color:#CCD2EE"/>
					<stop  offset="0.85" style="stop-color:#EFEFFD"/>
					<stop  offset="1" style="stop-color:#FFFFFF"/>
				</linearGradient>
				<path id="XMLID_90_" class="st36" d="M1039.6,34.7l-3.7-1.6c0.1,0,0.2,0,0.3,0.1l3.7,1.6C1039.7,34.8,1039.6,34.7,1039.6,34.7"
					/>
				<linearGradient id="XMLID_251_" gradientUnits="userSpaceOnUse" x1="1036.1675" y1="33.987" x2="1039.9377" y2="33.987">
					<stop  offset="0" style="stop-color:#CCD2EE"/>
					<stop  offset="0.85" style="stop-color:#EFEFFD"/>
					<stop  offset="1" style="stop-color:#FFFFFF"/>
				</linearGradient>
				<path id="XMLID_88_" class="st37" d="M1039.8,34.8l-3.7-1.6c0,0,0.1,0,0.1,0l3.7,1.6C1039.9,34.8,1039.9,34.8,1039.8,34.8"/>
			</g>
		</g>
		<g id="XMLID_255_">
			<defs>
				<path id="XMLID_265_" d="M1027.4,45.1l3.7,1.6c0.1,0,0.2,0.1,0.2,0.1c2.6,1.5-2.8,10.5-3.9,10.9l-3.7-1.6
					c1.1-0.4,6.5-9.5,3.9-10.9C1027.5,45.2,1027.4,45.1,1027.4,45.1z"/>
			</defs>
			<use xlink:href="#XMLID_265_"  style="overflow:visible;fill:#B2C5EB;"/>
			<clipPath id="XMLID_252_">
				<use xlink:href="#XMLID_265_"  style="overflow:visible;"/>
			</clipPath>
			<g id="XMLID_256_" class="st38">
				<path id="XMLID_264_" class="st27" d="M1027.4,57.8l-3.7-1.6c0,0,0.1,0,0.1-0.1l3.7,1.6C1027.4,57.8,1027.4,57.8,1027.4,57.8"/>
				<path id="XMLID_263_" class="st27" d="M1027.5,57.7l-3.7-1.6c0.1,0,0.1-0.1,0.2-0.2l3.7,1.6
					C1027.6,57.6,1027.5,57.7,1027.5,57.7"/>
				<path id="XMLID_262_" class="st27" d="M1027.7,57.6l-3.7-1.6c0.1-0.1,0.2-0.2,0.4-0.4l3.7,1.6
					C1027.9,57.3,1027.8,57.5,1027.7,57.6"/>
				<path id="XMLID_261_" class="st27" d="M1028,57.2l-3.7-1.6c0.2-0.3,0.5-0.7,0.8-1.1l3.7,1.6C1028.5,56.5,1028.3,56.9,1028,57.2"
					/>
				<path id="XMLID_260_" class="st27" d="M1028.8,56l-3.7-1.6c0.4-0.7,0.9-1.5,1.4-2.4l3.7,1.6C1029.8,54.6,1029.3,55.4,1028.8,56"
					/>
				<path id="XMLID_259_" class="st27" d="M1030.2,53.7l-3.7-1.6c0.4-0.7,0.7-1.5,1-2.3l3.7,1.6C1031,52.2,1030.6,52.9,1030.2,53.7"
					/>
				<path id="XMLID_258_" class="st27" d="M1031.3,51.4l-3.7-1.6c0.2-0.6,0.4-1.1,0.5-1.6l3.7,1.6
					C1031.6,50.3,1031.5,50.8,1031.3,51.4"/>
				<path id="XMLID_257_" class="st27" d="M1031.8,49.8l-3.7-1.6c0.3-1.3,0.2-2.5-0.5-2.9c-0.1,0-0.2-0.1-0.2-0.1l3.7,1.6
					c0.1,0,0.2,0.1,0.2,0.1C1032,47.3,1032.1,48.4,1031.8,49.8"/>
			</g>
		</g>
		<g id="XMLID_243_">
			<defs>
				<path id="XMLID_248_" d="M1024.9,57.2l-3.7-1.6c1.1,0.5,2,0.7,2.4,0.7c0,0,0,0,0.1,0l3.7,1.6c0,0,0,0-0.1,0
					C1026.9,57.9,1026,57.6,1024.9,57.2z"/>
			</defs>
			<use xlink:href="#XMLID_248_"  style="overflow:visible;fill:#B2C5EB;"/>
			<clipPath id="XMLID_253_">
				<use xlink:href="#XMLID_248_"  style="overflow:visible;"/>
			</clipPath>
			<g id="XMLID_244_" class="st39">
				<path id="XMLID_247_" class="st27" d="M1024.9,57.2l-3.7-1.6c0.4,0.2,0.8,0.3,1.1,0.4l3.7,1.6
					C1025.7,57.5,1025.3,57.3,1024.9,57.2"/>
				<path id="XMLID_246_" class="st27" d="M1026,57.6l-3.7-1.6c0.4,0.1,0.7,0.2,0.9,0.2l3.7,1.6C1026.7,57.8,1026.4,57.7,1026,57.6"
					/>
				<path id="XMLID_245_" class="st27" d="M1026.9,57.8l-3.7-1.6c0.2,0,0.3,0,0.4,0c0,0,0,0,0.1,0l3.7,1.6c0,0,0,0-0.1,0
					C1027.2,57.8,1027.1,57.8,1026.9,57.8"/>
			</g>
		</g>
		<linearGradient id="XMLID_254_" gradientUnits="userSpaceOnUse" x1="1030.6682" y1="36.1242" x2="1036.3041" y2="36.1242">
			<stop  offset="0" style="stop-color:#BDC4E9"/>
			<stop  offset="1" style="stop-color:#E7E8FC"/>
		</linearGradient>
		<path id="XMLID_82_" class="st40" d="M1032.6,38.1C1032.6,38.1,1032.6,38.1,1032.6,38.1C1032.6,38.2,1032.6,38.2,1032.6,38.1
			l3.7,1.7c0,0,0,0-0.1,0c0,0,0,0,0,0c0,0,0,0,0,0c0,0,0,0,0,0c0,0,0,0,0,0c0,0,0,0,0,0c0,0,0,0-0.1-0.1c0,0,0,0,0,0
			c0,0,0-0.1-0.1-0.1c0,0,0,0,0,0c0,0-0.1-0.1-0.1-0.1c0,0,0,0,0,0c0,0,0-0.1-0.1-0.1c0,0,0,0,0-0.1c0,0,0-0.1-0.1-0.1
			c0,0,0,0,0-0.1c0,0,0-0.1-0.1-0.1c0,0,0,0,0-0.1c0,0,0-0.1-0.1-0.1c0,0,0,0,0-0.1c0-0.1-0.1-0.1-0.1-0.2c0,0,0,0,0,0
			c0-0.1-0.1-0.1-0.1-0.2c0,0,0,0,0-0.1c0,0,0-0.1-0.1-0.1c0,0,0,0,0-0.1c0,0,0-0.1-0.1-0.1c0,0,0-0.1,0-0.1c0,0,0-0.1-0.1-0.1
			c0,0,0-0.1,0-0.1c0,0,0-0.1-0.1-0.1c0,0,0,0,0-0.1c0-0.1-0.1-0.1-0.1-0.2c0,0,0,0,0,0c0-0.1,0-0.1-0.1-0.2c0,0,0,0,0-0.1
			c0,0,0-0.1,0-0.1c0,0,0-0.1,0-0.1c0,0,0-0.1,0-0.1c0,0,0-0.1,0-0.1c0,0,0-0.1,0-0.1c0,0,0,0,0-0.1c0-0.1,0-0.1,0-0.2c0,0,0,0,0,0
			c0-0.1,0-0.1,0-0.2c0,0,0,0,0-0.1c0,0,0-0.1,0-0.1c0,0,0,0,0-0.1c0,0,0-0.1,0-0.1c0,0,0,0,0-0.1c0,0,0-0.1,0-0.1c0,0,0,0,0-0.1
			c0,0,0-0.1,0-0.1c0,0,0,0,0-0.1c0,0,0,0,0-0.1c0,0,0-0.1,0-0.1c0,0,0-0.1,0-0.1c0,0,0,0,0,0c0,0,0-0.1,0.1-0.1c0,0,0,0,0,0
			c0,0,0-0.1,0.1-0.1c0,0,0,0,0,0c0,0,0.1-0.1,0.1-0.1c0,0,0.1-0.1,0.1-0.1c0,0,0,0,0.1,0c0,0,0.1,0,0.1,0c0,0,0,0,0.1,0
			c0,0,0.1,0,0.1,0c0,0,0,0,0,0c0,0,0.1,0,0.1,0c0,0,0.1,0,0.1,0c0,0,0,0,0,0c0,0,0,0,0.1,0c0,0,0,0,0,0c0,0,0,0,0.1,0c0,0,0,0,0,0
			c0,0,0,0,0.1,0c0,0,0.1,0,0.1,0c0,0,0,0,0,0c0,0,0.1,0,0.1,0c0,0,0,0,0,0c0.1,0,0.1,0,0.2,0.1l0,0v0v0l-3.7-1.6
			c-0.1,0-0.1,0-0.2-0.1c0,0,0,0,0,0c0,0,0,0,0,0c0,0-0.1,0-0.1,0c0,0,0,0,0,0c0,0-0.1,0-0.1,0c0,0,0,0,0,0c0,0,0,0,0,0c0,0,0,0,0,0
			c0,0,0,0-0.1,0c0,0,0,0,0,0c0,0,0,0-0.1,0c0,0,0,0,0,0c0,0-0.1,0-0.1,0c0,0-0.1,0-0.1,0c0,0,0,0,0,0c0,0-0.1,0-0.1,0
			c0,0,0,0-0.1,0c0,0-0.1,0-0.1,0c0,0,0,0-0.1,0c0,0,0,0-0.1,0c0,0,0,0-0.1,0c0,0-0.1,0-0.1,0.1c0,0,0,0,0,0c0,0,0,0,0,0
			c0,0,0,0,0,0c0,0,0,0,0,0.1c0,0,0,0,0,0c0,0,0,0,0,0c0,0,0,0.1-0.1,0.1c0,0,0,0,0,0c0,0,0,0,0,0c0,0,0,0.1,0,0.1c0,0,0,0,0,0
			c0,0,0,0.1,0,0.1c0,0,0,0,0,0.1c0,0,0,0,0,0c0,0,0,0,0,0.1c0,0,0,0.1,0,0.1c0,0,0,0,0,0.1c0,0,0,0.1,0,0.1c0,0,0,0,0,0.1
			c0,0,0,0.1,0,0.1c0,0,0,0,0,0.1c0,0,0,0.1,0,0.1c0,0,0,0,0,0.1c0,0.1,0,0.1,0,0.2c0,0,0,0,0,0c0,0.1,0,0.1,0,0.2c0,0,0,0,0,0.1
			c0,0,0,0.1,0,0.1c0,0,0,0.1,0,0.1c0,0,0,0.1,0,0.1c0,0,0,0.1,0,0.1c0,0,0,0.1,0,0.1c0,0,0,0,0,0.1c0,0.1,0,0.1,0.1,0.2
			c0,0,0,0,0,0c0,0.1,0.1,0.1,0.1,0.2c0,0,0,0,0,0.1c0,0,0,0.1,0.1,0.1c0,0,0,0.1,0,0.1c0,0,0,0.1,0.1,0.1c0,0,0,0.1,0,0.1
			c0,0,0,0.1,0.1,0.1c0,0,0,0,0,0.1c0,0,0,0.1,0.1,0.1c0,0,0,0,0,0.1c0,0.1,0.1,0.1,0.1,0.2c0,0,0,0,0,0c0,0.1,0.1,0.1,0.1,0.2
			c0,0,0,0,0,0.1c0,0,0,0.1,0.1,0.1c0,0,0,0,0,0.1c0,0,0,0.1,0.1,0.1c0,0,0,0,0,0.1c0,0,0,0.1,0.1,0.1c0,0,0,0,0,0.1
			c0,0,0,0.1,0.1,0.1c0,0,0,0,0,0c0,0,0.1,0.1,0.1,0.1c0,0,0,0,0,0c0,0,0,0.1,0.1,0.1c0,0,0,0,0,0c0,0,0,0,0.1,0.1c0,0,0,0,0,0
			C1032.5,38,1032.5,38.1,1032.6,38.1C1032.5,38.1,1032.5,38.1,1032.6,38.1C1032.5,38.1,1032.6,38.1,1032.6,38.1z"/>
		<g id="XMLID_230_">
			<path id="XMLID_231_" class="st30" d="M1035.4,34.1c1.1-0.2,2,1,2.2,1.1c0,0,0.1,0,0.1,0c0.1,0,0.3-0.1,0.5-0.2
				c0.2-0.1,0.4-0.2,0.7-0.2c0.6-0.1,1.3-0.1,1.7,0.7c0.7,1.5-3.2,4.1-4.1,4.4c-0.1,0-0.1,0-0.1,0c-0.6-0.1-3-4.3-1.6-5.5
				C1035,34.2,1035.2,34.1,1035.4,34.1z"/>
		</g>
		<g id="XMLID_74_">
			<defs>
				<path id="XMLID_76_" d="M1015.5,65.1l3.7,1.6c1.1,0.5,2,1.5,2.5,2.8c0.2,0.7,0.3,1.4,0.3,2.1l-3.7-1.6c0-0.7-0.1-1.5-0.3-2.1
					C1017.5,66.5,1016.6,65.6,1015.5,65.1z"/>
			</defs>
			<use xlink:href="#XMLID_76_"  style="overflow:visible;fill:#B2C5EB;"/>
			<clipPath id="XMLID_266_">
				<use xlink:href="#XMLID_76_"  style="overflow:visible;"/>
			</clipPath>
			<g id="XMLID_78_" class="st41">
				<path id="XMLID_80_" class="st27" d="M1022,71.7l-3.7-1.6c0-0.7-0.1-1.5-0.3-2.1c-0.5-1.3-1.4-2.3-2.5-2.8l3.7,1.6
					c1.1,0.5,2,1.5,2.5,2.8C1021.9,70.2,1022,70.9,1022,71.7"/>
			</g>
		</g>
		<g id="XMLID_220_">
			<defs>
				<path id="XMLID_225_" d="M1014.8,67.3l3.7,1.6c-0.6-0.3-1.3-0.3-2-0.2l-3.7-1.6C1013.5,67,1014.2,67,1014.8,67.3z"/>
			</defs>
			<use xlink:href="#XMLID_225_"  style="overflow:visible;fill:#B2C5EB;"/>
			<clipPath id="XMLID_267_">
				<use xlink:href="#XMLID_225_"  style="overflow:visible;"/>
			</clipPath>
			<g id="XMLID_221_" class="st42">
				<path id="XMLID_224_" class="st27" d="M1016.5,68.8l-3.7-1.6c0.4-0.1,0.7-0.1,1.1-0.1l3.7,1.6
					C1017.2,68.6,1016.9,68.7,1016.5,68.8"/>
				<path id="XMLID_223_" class="st27" d="M1017.6,68.7l-3.7-1.6c0.2,0,0.4,0.1,0.6,0.1l3.7,1.6C1018,68.8,1017.8,68.7,1017.6,68.7"
					/>
				<path id="XMLID_222_" class="st27" d="M1018.2,68.8l-3.7-1.6c0.1,0,0.2,0.1,0.3,0.1l3.7,1.6
					C1018.4,68.9,1018.3,68.8,1018.2,68.8"/>
			</g>
		</g>
		<g id="XMLID_207_">
			<defs>
				<path id="XMLID_219_" d="M1014.8,77.1l-3.7-1.6c-0.8-0.3-1.4-1-1.7-2c-0.7-2.1,0.3-4.8,2.2-5.9c0.4-0.2,0.8-0.4,1.2-0.5l3.7,1.6
					c-0.4,0.1-0.8,0.2-1.2,0.5c-2,1.2-3,3.8-2.2,5.9C1013.4,76.1,1014,76.8,1014.8,77.1z"/>
			</defs>
			<use xlink:href="#XMLID_219_"  style="overflow:visible;fill:#B2C5EB;"/>
			<clipPath id="XMLID_268_">
				<use xlink:href="#XMLID_219_"  style="overflow:visible;"/>
			</clipPath>
			<g id="XMLID_208_" class="st43">
				<path id="XMLID_218_" class="st27" d="M1014.8,77.1l-3.7-1.6c-0.8-0.3-1.4-1-1.7-2c-0.3-0.8-0.3-1.7-0.1-2.6l3.7,1.6
					c-0.2,0.9-0.2,1.8,0.1,2.6C1013.4,76.1,1014,76.8,1014.8,77.1"/>
				<path id="XMLID_217_" class="st27" d="M1013,72.5l-3.7-1.6c0.1-0.2,0.1-0.5,0.2-0.7l3.7,1.6C1013.1,72,1013,72.3,1013,72.5"/>
				<path id="XMLID_216_" class="st27" d="M1013.2,71.8l-3.7-1.6c0.1-0.2,0.2-0.4,0.3-0.6l3.7,1.6
					C1013.4,71.4,1013.3,71.6,1013.2,71.8"/>
				<path id="XMLID_215_" class="st27" d="M1013.5,71.3l-3.7-1.6c0.1-0.2,0.2-0.3,0.3-0.5l3.7,1.6
					C1013.6,70.9,1013.5,71.1,1013.5,71.3"/>
				<path id="XMLID_214_" class="st27" d="M1013.7,70.8l-3.7-1.6c0.1-0.2,0.2-0.3,0.3-0.5l3.7,1.6
					C1014,70.4,1013.8,70.6,1013.7,70.8"/>
				<path id="XMLID_213_" class="st27" d="M1014.1,70.3l-3.7-1.6c0.1-0.2,0.3-0.3,0.4-0.4l3.7,1.6
					C1014.3,70,1014.2,70.1,1014.1,70.3"/>
				<path id="XMLID_212_" class="st27" d="M1014.5,69.9l-3.7-1.6c0.2-0.2,0.4-0.3,0.6-0.5l3.7,1.6
					C1014.9,69.5,1014.7,69.7,1014.5,69.9"/>
				<path id="XMLID_211_" class="st27" d="M1015.1,69.4l-3.7-1.6c0.1-0.1,0.2-0.1,0.3-0.2c0.4-0.2,0.8-0.4,1.2-0.5l3.7,1.6
					c-0.4,0.1-0.8,0.2-1.2,0.5C1015.2,69.3,1015.1,69.3,1015.1,69.4"/>
			</g>
		</g>
		<g id="XMLID_205_">
			<path id="XMLID_206_" class="st30" d="M1016.5,68.8c1.7-0.4,3.2,0.5,3.7,2.1c0.7,2.1-0.3,4.8-2.2,5.9c-0.4,0.2-0.8,0.4-1.2,0.5
				c-1.7,0.4-3.2-0.5-3.7-2.1c-0.7-2.1,0.3-4.8,2.2-5.9C1015.7,69,1016.1,68.8,1016.5,68.8z"/>
		</g>
		<linearGradient id="XMLID_269_" gradientUnits="userSpaceOnUse" x1="1005.9383" y1="50.1492" x2="1032.2346" y2="50.1492">
			<stop  offset="0" style="stop-color:#BDC4E9"/>
			<stop  offset="1" style="stop-color:#E7E8FC"/>
		</linearGradient>
		<path id="XMLID_73_" class="st44" d="M1025.4,42c0.1,0,0.2,0,0.4-0.1c0.1,0,0.1,0,0.2,0c0.1,0,0.2,0,0.3,0c0.1,0,0.1,0,0.2,0
			c0.1,0,0.2,0,0.3,0c0.1,0,0.2,0,0.2,0c0.1,0,0.2,0,0.3,0c0.1,0,0.2,0,0.2,0c0.1,0,0.2,0,0.3,0c0.1,0,0.1,0,0.2,0
			c0.1,0,0.2,0,0.3,0c0.1,0,0.1,0,0.2,0c0.1,0,0.2,0,0.3,0c0.1,0,0.1,0,0.2,0c0.2,0,0.3,0,0.5,0.1c0,0,0,0,0,0
			c0.2,0,0.3,0.1,0.5,0.1c0.1,0,0.1,0,0.2,0c0.1,0,0.2,0.1,0.3,0.1c0.1,0,0.1,0,0.2,0c0.1,0,0.2,0.1,0.3,0.1c0.1,0,0.1,0,0.2,0.1
			c0.1,0,0.2,0.1,0.3,0.1c0.1,0,0.1,0,0.2,0.1c0.2,0.1,0.3,0.1,0.5,0.2l-3.7-1.6c-0.2-0.1-0.3-0.1-0.5-0.2c0,0-0.1,0-0.2-0.1
			c-0.1,0-0.2-0.1-0.3-0.1c0,0,0,0-0.1,0c0,0-0.1,0-0.1,0c-0.1,0-0.2-0.1-0.3-0.1c-0.1,0-0.1,0-0.2,0c-0.1,0-0.2-0.1-0.3-0.1
			c-0.1,0-0.1,0-0.2,0c-0.2,0-0.3-0.1-0.5-0.1c0,0,0,0,0,0c-0.2,0-0.3,0-0.5-0.1c0,0,0,0,0,0c-0.1,0-0.1,0-0.2,0c-0.1,0-0.2,0-0.3,0
			c-0.1,0-0.1,0-0.2,0c-0.1,0-0.2,0-0.3,0c-0.1,0-0.1,0-0.2,0c-0.1,0-0.2,0-0.3,0c-0.1,0-0.2,0-0.2,0c-0.1,0-0.2,0-0.3,0
			c-0.1,0-0.2,0-0.2,0c-0.1,0-0.2,0-0.3,0c-0.1,0-0.1,0-0.2,0c-0.1,0-0.2,0-0.3,0c-0.1,0-0.1,0-0.2,0c-0.1,0-0.2,0-0.4,0.1
			c-0.1,0-0.1,0-0.2,0c-0.2,0-0.4,0.1-0.5,0.1c-1.7,0.4-3.4,1.1-5.1,2.1c-0.2,0.1-0.4,0.2-0.6,0.4c-0.1,0-0.1,0.1-0.2,0.1
			c-0.1,0.1-0.3,0.2-0.4,0.3c0,0,0,0-0.1,0c0,0-0.1,0.1-0.1,0.1c-0.1,0.1-0.3,0.2-0.4,0.3c-0.1,0.1-0.1,0.1-0.2,0.2
			c-0.1,0.1-0.3,0.2-0.4,0.3c-0.1,0-0.1,0.1-0.2,0.1c-0.2,0.2-0.4,0.3-0.5,0.5c0,0,0,0,0,0c-0.2,0.2-0.4,0.3-0.5,0.5c0,0,0,0-0.1,0
			c-0.1,0.1-0.1,0.1-0.2,0.2c-0.1,0.1-0.2,0.2-0.2,0.2c-0.1,0.1-0.1,0.1-0.2,0.2c-0.1,0.1-0.2,0.2-0.2,0.2c-0.1,0.1-0.1,0.2-0.2,0.2
			c-0.1,0.1-0.1,0.2-0.2,0.2c-0.1,0.1-0.1,0.2-0.2,0.2c-0.1,0.1-0.1,0.2-0.2,0.3c0,0,0,0.1-0.1,0.1c0,0.1-0.1,0.1-0.1,0.2
			c-0.1,0.1-0.1,0.1-0.2,0.2c-0.1,0.1-0.1,0.2-0.2,0.3c0,0.1-0.1,0.1-0.1,0.2c-0.1,0.1-0.1,0.2-0.2,0.3c0,0.1-0.1,0.1-0.1,0.2
			c-0.1,0.1-0.2,0.2-0.3,0.4c0,0-0.1,0.1-0.1,0.1c0,0,0,0,0,0c-0.1,0.2-0.2,0.3-0.3,0.5c0,0-0.1,0.1-0.1,0.1
			c-0.1,0.1-0.1,0.2-0.2,0.4c0,0.1-0.1,0.1-0.1,0.2c-0.1,0.1-0.1,0.2-0.2,0.3c0,0.1-0.1,0.1-0.1,0.2c0,0.1-0.1,0.1-0.1,0.2
			c0,0,0,0.1-0.1,0.1c0,0.1-0.1,0.1-0.1,0.2c0,0.1-0.1,0.2-0.1,0.3c0,0.1-0.1,0.2-0.1,0.2c0,0.1-0.1,0.2-0.1,0.3
			c0,0.1-0.1,0.1-0.1,0.2c0,0.1-0.1,0.2-0.1,0.3c0,0.1-0.1,0.1-0.1,0.2c0,0,0,0,0,0.1c0,0.1,0,0.1-0.1,0.2c0,0.1-0.1,0.2-0.1,0.3
			c0,0.1-0.1,0.2-0.1,0.3c0,0.1-0.1,0.2-0.1,0.3c0,0.1-0.1,0.2-0.1,0.3c0,0.1-0.1,0.2-0.1,0.3c0,0.1,0,0.2-0.1,0.3
			c0,0.1-0.1,0.2-0.1,0.3c0,0,0,0.1,0,0.1c0,0.1,0,0.2-0.1,0.3c0,0,0,0.1,0,0.1c0,0.2-0.1,0.3-0.1,0.5c0,0,0,0.1,0,0.1
			c0,0.1,0,0.3-0.1,0.4c0,0,0,0.1,0,0.1c0,0.2,0,0.3-0.1,0.5c0,0,0,0.1,0,0.1c0,0.1,0,0.3,0,0.4c0,0,0,0.1,0,0.1c0,0.2,0,0.3,0,0.5
			l0,0v0l3.7,1.6c0-0.2,0-0.3,0-0.5c0,0,0-0.1,0-0.1c0-0.1,0-0.3,0-0.4c0,0,0-0.1,0-0.1c0-0.2,0-0.3,0.1-0.5c0,0,0-0.1,0-0.1
			c0-0.1,0-0.3,0.1-0.4c0,0,0-0.1,0-0.1c0-0.2,0.1-0.3,0.1-0.5c0,0,0-0.1,0-0.1c0-0.1,0.1-0.3,0.1-0.4c0-0.1,0-0.2,0.1-0.3
			c0-0.1,0-0.2,0.1-0.3c0-0.1,0.1-0.2,0.1-0.3c0-0.1,0.1-0.2,0.1-0.3c0-0.1,0.1-0.2,0.1-0.3c0-0.1,0.1-0.2,0.1-0.3
			c0-0.1,0.1-0.2,0.1-0.3c0-0.1,0.1-0.2,0.1-0.3c0-0.1,0.1-0.1,0.1-0.2c0-0.1,0.1-0.2,0.1-0.3c0-0.1,0.1-0.2,0.1-0.2
			c0-0.1,0.1-0.2,0.1-0.3c0-0.1,0.1-0.2,0.1-0.2c0-0.1,0.1-0.2,0.1-0.3c0-0.1,0.1-0.1,0.1-0.2c0.1-0.1,0.1-0.2,0.2-0.3
			c0-0.1,0.1-0.1,0.1-0.2c0.1-0.1,0.1-0.2,0.2-0.3c0-0.1,0.1-0.1,0.1-0.2c0.1-0.1,0.1-0.2,0.2-0.4c0,0,0.1-0.1,0.1-0.1
			c0.1-0.2,0.2-0.3,0.3-0.5c0,0,0.1-0.1,0.1-0.1c0.1-0.1,0.2-0.3,0.3-0.4c0-0.1,0.1-0.1,0.1-0.2c0.1-0.1,0.1-0.2,0.2-0.3
			c0-0.1,0.1-0.1,0.1-0.2c0.1-0.1,0.1-0.2,0.2-0.3c0.1-0.1,0.1-0.1,0.2-0.2c0.1-0.1,0.1-0.2,0.2-0.3c0.1-0.1,0.1-0.2,0.2-0.3
			c0.1-0.1,0.1-0.2,0.2-0.2c0.1-0.1,0.1-0.2,0.2-0.2c0.1-0.1,0.1-0.2,0.2-0.2c0.1-0.1,0.2-0.2,0.2-0.2c0.1-0.1,0.1-0.1,0.2-0.2
			c0.1-0.1,0.2-0.2,0.2-0.2c0.1-0.1,0.1-0.1,0.2-0.2c0.2-0.2,0.4-0.3,0.5-0.5c0,0,0,0,0,0c0.2-0.2,0.4-0.3,0.5-0.5
			c0.1,0,0.1-0.1,0.2-0.1c0.1-0.1,0.3-0.2,0.4-0.3c0.1-0.1,0.1-0.1,0.2-0.2c0.1-0.1,0.3-0.2,0.4-0.3c0.1,0,0.1-0.1,0.2-0.1
			c0.1-0.1,0.3-0.2,0.4-0.3c0.1,0,0.1-0.1,0.2-0.1c0.2-0.1,0.4-0.2,0.6-0.4c1.7-1,3.5-1.7,5.1-2.1c0.2,0,0.4-0.1,0.5-0.1
			C1025.3,42.1,1025.3,42,1025.4,42z"/>
		<linearGradient id="XMLID_270_" gradientUnits="userSpaceOnUse" x1="1003.426" y1="69.5918" x2="1008.4759" y2="60.4376">
			<stop  offset="0" style="stop-color:#B7B6E5"/>
			<stop  offset="0.2" style="stop-color:#A9A5DE"/>
			<stop  offset="1" style="stop-color:#D8DCF6"/>
		</linearGradient>
		<path id="XMLID_72_" class="st45" d="M1003.1,71.7C1003.1,71.7,1003.1,71.7,1003.1,71.7c0-0.1,0-0.2-0.1-0.3c0,0,0-0.1,0-0.1
			c0-0.1,0-0.2,0-0.3c0,0,0,0,0,0c0-0.1,0-0.2,0-0.3c0,0,0-0.1,0-0.1c0-0.1,0-0.2,0-0.4c0,0,0,0,0,0c0-0.1,0-0.2,0-0.3
			c0,0,0-0.1,0-0.1c0-0.1,0-0.2,0-0.4c0,0,0,0,0-0.1c0-0.1,0-0.2,0-0.3c0,0,0-0.1,0-0.1c0-0.1,0-0.2,0.1-0.4c0,0,0,0,0-0.1
			c0-0.1,0-0.2,0.1-0.3c0,0,0-0.1,0-0.1c0-0.1,0-0.2,0.1-0.3c0,0,0-0.1,0-0.1c0-0.1,0.1-0.3,0.1-0.4c0,0,0,0,0,0
			c0-0.1,0.1-0.2,0.1-0.4c0,0,0-0.1,0-0.1c0-0.1,0.1-0.2,0.1-0.3c0,0,0-0.1,0-0.1c0.1-0.1,0.1-0.2,0.2-0.4c0,0,0,0,0,0
			c0.1-0.1,0.1-0.2,0.2-0.3c0,0,0-0.1,0.1-0.1c0.1-0.1,0.1-0.2,0.2-0.3c0,0,0-0.1,0-0.1c0.1-0.1,0.1-0.2,0.2-0.4c0,0,0-0.1,0-0.1
			c0.1-0.1,0.1-0.2,0.2-0.3c0,0,0-0.1,0.1-0.1c0.1-0.1,0.1-0.2,0.2-0.3c0,0,0,0,0-0.1c0.1-0.1,0.2-0.2,0.3-0.3c0,0,0-0.1,0.1-0.1
			c0.1-0.1,0.1-0.2,0.2-0.2c0,0,0.1-0.1,0.1-0.1c0.1-0.1,0.1-0.1,0.2-0.2c0,0,0.1-0.1,0.1-0.1c0.1-0.1,0.1-0.2,0.2-0.2
			c0,0,0.1-0.1,0.1-0.1c0.1-0.1,0.2-0.2,0.3-0.3c0.1-0.1,0.2-0.2,0.4-0.3c0,0,0.1,0,0.1-0.1c0.1-0.1,0.2-0.2,0.3-0.3
			c0,0,0.1-0.1,0.1-0.1c0.1-0.1,0.2-0.1,0.3-0.2c0.1,0,0.1-0.1,0.2-0.1c0.1-0.1,0.2-0.1,0.2-0.2c0.1-0.1,0.2-0.1,0.3-0.2
			c0,0,0.1-0.1,0.1-0.1c0.1-0.1,0.3-0.2,0.4-0.3c0.2-0.1,0.3-0.2,0.5-0.3l-3.7-1.6c-0.2,0.1-0.3,0.2-0.5,0.3
			c-0.1,0.1-0.3,0.2-0.4,0.3c0,0-0.1,0.1-0.1,0.1c-0.1,0.1-0.2,0.1-0.2,0.2c0,0,0,0,0,0c-0.1,0.1-0.2,0.1-0.2,0.2
			c-0.1,0-0.1,0.1-0.2,0.1c-0.1,0.1-0.2,0.1-0.3,0.2c0,0-0.1,0.1-0.1,0.1c-0.1,0.1-0.2,0.2-0.3,0.3c0,0-0.1,0-0.1,0.1
			c-0.1,0.1-0.2,0.2-0.4,0.3c0,0,0,0,0,0c-0.1,0.1-0.2,0.2-0.3,0.3c0,0-0.1,0.1-0.1,0.1c-0.1,0.1-0.1,0.2-0.2,0.2
			c0,0-0.1,0.1-0.1,0.1c-0.1,0.1-0.1,0.1-0.2,0.2c0,0-0.1,0.1-0.1,0.1c0,0,0,0.1-0.1,0.1c0,0.1-0.1,0.1-0.1,0.2c0,0,0,0.1-0.1,0.1
			c-0.1,0.1-0.2,0.2-0.3,0.3c0,0,0,0-0.1,0.1c-0.1,0.1-0.1,0.2-0.2,0.3c0,0-0.1,0.1-0.1,0.1c0,0,0,0.1-0.1,0.1
			c0,0.1-0.1,0.1-0.1,0.2c0,0,0,0.1,0,0.1c-0.1,0.1-0.1,0.2-0.2,0.4c0,0,0,0.1,0,0.1c-0.1,0.1-0.1,0.2-0.2,0.3c0,0,0,0.1-0.1,0.1
			c0,0,0,0,0,0.1c0,0.1-0.1,0.2-0.1,0.3c0,0,0,0,0,0c-0.1,0.1-0.1,0.2-0.2,0.4c0,0,0,0.1,0,0.1c0,0.1-0.1,0.2-0.1,0.3
			c0,0,0,0.1,0,0.1c0,0,0,0,0,0.1c0,0.1-0.1,0.2-0.1,0.3c0,0,0,0,0,0c0,0.1-0.1,0.3-0.1,0.4c0,0,0,0.1,0,0.1c0,0.1-0.1,0.2-0.1,0.3
			c0,0,0,0.1,0,0.1c0,0,0,0.1,0,0.1c0,0.1,0,0.1,0,0.2c0,0,0,0,0,0.1c0,0.1,0,0.2-0.1,0.4c0,0,0,0.1,0,0.1c0,0.1,0,0.2,0,0.3
			c0,0,0,0,0,0.1c0,0.1,0,0.2,0,0.4c0,0,0,0.1,0,0.1c0,0.1,0,0.2,0,0.3c0,0,0,0,0,0c0,0.1,0,0.2,0,0.4c0,0,0,0.1,0,0.1
			c0,0.1,0,0.2,0,0.3c0,0,0,0,0,0c0,0.1,0,0.2,0,0.3c0,0,0,0.1,0,0.1c0,0.1,0,0.2,0.1,0.3c0,0,0,0,0,0c0,0.1,0.1,0.2,0.1,0.3
			c0,0,0,0.1,0,0.1c0,0.1,0.1,0.2,0.1,0.3c0.5,1.5,1.5,2.6,2.9,3.1l3.7,1.6c-1.3-0.6-2.3-1.7-2.9-3.1c0-0.1-0.1-0.2-0.1-0.3
			c0,0,0-0.1,0-0.1C1003.1,71.9,1003.1,71.8,1003.1,71.7z"/>
		<g id="XMLID_66_">
			<path id="XMLID_69_" class="st30" d="M1046.5,46.6c1,3-0.2,6.8-2.9,9.7c-0.2,0.2-0.5,0.5-0.8,0.8c0-0.1,0-0.2-0.1-0.2
				c-0.8-2.4-3-3.6-5.4-3.1c-0.6,0.1-1.1,0.4-1.7,0.7c-2.8,1.7-4.3,5.5-3.2,8.5c0.2,0.7,0.6,1.3,1,1.8c-1.6,1.1-3.5,2.3-5.5,3.5
				c-2.2,1.3-4.2,2.4-6,3.3c0-0.7-0.1-1.5-0.3-2.1c-0.8-2.4-3-3.6-5.4-3.1c-0.6,0.1-1.1,0.4-1.7,0.7c-2.8,1.7-4.3,5.5-3.2,8.5
				c0,0,0,0.1,0,0.1c-0.1,0-0.2,0.1-0.3,0.1c-0.4,0.1-0.6,0.1-0.7,0.1c-3.3,0.6-6.2-0.7-7.2-3.5c-1.4-3.9,1.2-9.3,5.8-12.1
				c0.2-0.1,0.3-0.2,0.5-0.3c0.1-5.8,4-12.3,9.9-15.8c1.7-1,3.5-1.7,5.1-2.1c4.2-0.9,8,0,10.5,2.6c0.2-0.1,0.3-0.2,0.5-0.3
				c1.1-0.7,2.2-1.1,3.3-1.3C1042.4,42.4,1045.4,43.7,1046.5,46.6z M1027.4,57.8c1.1-0.4,6.5-9.5,3.9-10.9c-0.6-0.3-1.2-0.4-1.7-0.3
				c-1.8,0.4-3.2,2.8-3.7,3c0,0,0,0-0.1,0c-0.2,0.1-0.7,0-1.3-0.1c-0.6,0-1.3-0.1-2,0.1c-0.9,0.2-1.7,0.7-2.3,1.8
				C1018.5,54.6,1026,58.1,1027.4,57.8C1027.3,57.8,1027.4,57.8,1027.4,57.8"/>
		</g>
	</g>
	<polygon id="XMLID_64_" class="st12" points="1023.1,126 974.4,98.2 974.4,34.7 1023.1,62.6 	"/>
	<polygon id="XMLID_63_" class="st11" points="1023.2,126 1071.9,98.2 1071.9,34.7 1023.2,62.6 	"/>
	<path id="XMLID_53_" class="st46" d="M1023.2,9l-48.7,25.7l48.7,27.9l48.8-27.8L1023.2,9z"/>
</g>
<linearGradient id="XMLID_271_" gradientUnits="userSpaceOnUse" x1="714.7486" y1="140.057" x2="741.4579" y2="140.057">
	<stop  offset="0" style="stop-color:#F89117"/>
	<stop  offset="1" style="stop-color:#D2DEF9"/>
</linearGradient>
<path id="XMLID_5_" class="st47" d="M741,148.5c0.7-2.4,0.7-5.1-0.2-7.6c-1.8-5.5-6.9-9.3-12.7-9.3c-1.4,0-2.8,0.2-4.1,0.6
	c-6.8,2.2-10.7,9.4-8.8,16.2H741z"/>
<linearGradient id="XMLID_272_" gradientUnits="userSpaceOnUse" x1="680.621" y1="101.7016" x2="836.7383" y2="101.7016">
	<stop  offset="0" style="stop-color:#F89117"/>
	<stop  offset="1" style="stop-color:#D2DEF9"/>
</linearGradient>
<path id="XMLID_8_" class="st48" d="M835.8,84c-4.2-13.1-21-19.5-37.4-14.2c-0.6,0.2-1.1,0.4-1.6,0.6
	c-11.6-13.9-33.3-19.5-54.5-12.7c-21.2,6.8-35.5,24.1-36.8,42.1c-0.6,0.2-1.1,0.3-1.7,0.5c-16.4,5.3-26.3,20.2-22.1,33.4
	c2.3,7.3,8.6,12.5,16.4,14.7h11.2c-2.6-9.8,2.8-20.1,12.6-23.3c1.9-0.6,3.9-0.9,5.9-0.9c8.3,0,15.7,5.4,18.3,13.3
	c0.7,2.3,1,4.6,0.9,6.9c6.4-1.5,13.6-3.5,21.4-6c7.3-2.4,13.8-4.8,19.6-7.1c-1.5-1.8-2.6-3.9-3.4-6.2c-3.2-10.1,2.3-20.9,12.4-24.2
	c1.9-0.6,3.9-0.9,5.9-0.9c8.4,0,15.7,5.4,18.3,13.3c0.1,0.2,0.1,0.5,0.2,0.8c1.2-0.8,2.2-1.5,2.9-2C834,105.1,839,94.1,835.8,84z
	 M767.7,105.2c-3.8,0.6-30.5-16-24.1-24.9c5.8-8,17.6-1.4,19.8-1.7c2.2-0.4,10.6-10.9,19.3-4.6C791.6,80.5,771.5,104.6,767.7,105.2z
	"/>
<path id="XMLID_9_" class="st49" d="M912.7,148.5h219.5c19.1-11.6,30.5-26.4,30.5-42.4c0-37.6-62.8-68.1-140.3-68.1
	s-140.3,30.5-140.3,68.1C882.2,122.1,893.6,136.9,912.7,148.5z"/>
<path id="XMLID_10_" class="st50" d="M1120.8,148.5c20.6-11.3,33.2-26.1,33.2-42.4c0-35.3-58.9-63.9-131.6-63.9
	s-131.6,28.6-131.6,63.9c0,16.3,12.5,31.1,33.2,42.4H1120.8z"/>
</svg>
