<?xml version="1.0" encoding="utf-8"?>
<!-- Generator: Adobe Illustrator 19.0.0, SVG Export Plug-In . SVG Version: 6.00 Build 0)  -->
<svg version="1.1" id="图层_1" xmlns="http://www.w3.org/2000/svg" xmlns:xlink="http://www.w3.org/1999/xlink" x="0px" y="0px"
	 viewBox="0 0 351 365" style="enable-background:new 0 0 351 365;" xml:space="preserve">
<style type="text/css">
	.st0{fill-rule:evenodd;clip-rule:evenodd;fill:url(#SVGID_1_);}
	.st1{fill-rule:evenodd;clip-rule:evenodd;fill:url(#SVGID_2_);}
	.st2{fill-rule:evenodd;clip-rule:evenodd;fill:url(#SVGID_3_);}
</style>
<g>
	<linearGradient id="SVGID_1_" gradientUnits="userSpaceOnUse" x1="149.6245" y1="120.8026" x2="214.5439" y2="120.8026">
		<stop  offset="0" style="stop-color:#E18A2B"/>
		<stop  offset="1" style="stop-color:#E76C17"/>
	</linearGradient>
	<path class="st0" d="M181.5,105.4c-3.4,0.6-21.5-9.5-30.3,2.7c-9.8,13.6,31,39.1,36.9,38.1c5.9-0.9,36.7-38,23.1-47.8
		C197.6,88.7,184.9,104.9,181.5,105.4"/>
	<linearGradient id="SVGID_2_" gradientUnits="userSpaceOnUse" x1="2.6874" y1="169.3732" x2="348.3126" y2="169.3732">
		<stop  offset="0" style="stop-color:#E18A2B"/>
		<stop  offset="1" style="stop-color:#E76C17"/>
	</linearGradient>
	<path class="st1" d="M303.5,45C234-2.5,165.5,1.5,108.3,16.3C51.7,31,2.7,75.4,2.7,134.5c0,59.1,39.4,83.3,39.4,120.9
		c0,37.6-20.6,77-20.6,77s34-15.2,76.1-38.5c42.1-23.3,57.4-30.3,98.5-34c42.2-3.8,86.2-16,116.9-47.1
		C349.8,175.5,373.1,92.5,303.5,45 M232.8,42.9L232.8,42.9c7.4-3.3,13.2,6.2,14.9,6.8c1.7,0.6,12-3.5,15.7,4.6
		c3.7,8.2-20.5,17.3-23.5,16.2C236.9,69.4,224.6,46.7,232.8,42.9 M133.7,226.6L133.7,226.6c-2,0.6-4.2,1-6.3,1
		c-8.9,0-16.7-5.7-19.5-14.2c-3.5-10.7,2.5-22.3,13.2-25.8c2-0.6,4.2-1,6.3-1c8.9,0,16.7,5.7,19.5,14.2
		C150.4,211.6,144.5,223.1,133.7,226.6 M249.8,189L249.8,189c-2,0.7-4.2,1-6.3,1c-8.9,0-16.7-5.7-19.5-14.2
		c-3.5-10.7,2.4-22.3,13.2-25.8c2-0.7,4.2-1,6.3-1c8.9,0,16.8,5.7,19.5,14.2C266.5,174,260.6,185.5,249.8,189 M274.6,156.8
		L274.6,156.8c-1,0.8-2.5,1.8-4.4,3.1c-0.1-0.4-0.2-0.8-0.3-1.2c-3.9-12.2-15.2-20.4-28-20.4c-3.1,0-6.1,0.5-9,1.4
		c-15.4,5-23.9,21.6-19,37c1.2,3.5,2.9,6.7,5.2,9.5c-8.9,3.6-18.9,7.3-30.1,10.9c-11.9,3.8-22.8,6.8-32.7,9.2
		c0.2-3.5-0.2-7-1.3-10.6c-3.9-12.2-15.2-20.4-28-20.4c-3.1,0-6.1,0.5-9,1.4c-15.4,5-24,21.6-19,37c0.1,0.2,0.2,0.4,0.2,0.6
		c-3.5,0.1-5.4-0.1-5.4-0.1l0,0c-17.7-0.6-32.8-9.7-37.6-24.5c-6.5-20.1,8.6-43,33.8-51.1c0.8-0.3,1.7-0.5,2.6-0.7
		c2-27.6,23.9-54.1,56.5-64.6c32.5-10.5,65.8-1.8,83.6,19.4c0.8-0.3,1.6-0.6,2.5-0.9c25.2-8.1,50.8,1.6,57.3,21.7
		C297.4,129.1,289.7,146,274.6,156.8"/>
	<linearGradient id="SVGID_3_" gradientUnits="userSpaceOnUse" x1="125.4411" y1="322.5601" x2="347.9293" y2="322.5601">
		<stop  offset="0" style="stop-color:#E18A2B"/>
		<stop  offset="1" style="stop-color:#E76C17"/>
	</linearGradient>
	<path class="st2" d="M308.9,299.5h-21.1l1.1-5.9l-11.7,2.8l-0.6,3.1h-49.1l2.2-6.7l-13.3,3.2l-1.3,3.5h-38.8l8.5-5.6l-19.6,2.9
		l-3.5,2.7h-11.3l-8.5,7.4h10.9c-5.1,4.1-9.2,8.3-12.3,13.5c-4.6,7.9,1.1,13.2,8.2,13.2h16.7l-2.1,10.9h-28.9l-9.1,7.3H162l-1.3,6.9
		h12.7l1.3-6.9h7.3l0,0c18.6-0.1,28.8-15.2,32.2-21.4c2.6,4.5,6.5,9,10,12.2c-5.2,3-11.5,6.7-20.6,9l-8.4,6.5
		c11.9,0,24.1-4,35.5-9.9c7.6,5.7,14.5,9.6,30.4,9.6h5c6.7,0,10.7-2.8,11.8-8.5l3.5-17.9c3.9-0.8,7.7-1.3,11.4-1.3h1.8
		c-3.1,5.9-7.9,11.5-14.6,16.7l-1.3,6.6c6.3-3.2,11.6-6.7,15.9-10.4c2.1,2.3,4.8,4.5,7.5,6.2c-4.2,1.8-10.2,3.9-17.7,5.3l-4,3.8
		c10.4-0.1,20.7-2.9,28-5.9c5.6,2.2,12.8,4.6,22.1,5.9l-2.8-4.2c-4.6-0.9-8.7-3.1-12.1-4.8c8.9-4.3,21.7-12.4,17.1-15.9
		c-6.2-4.7-18.9,1.9-21,1.9c-1.1,0-4.2-1.8-7.9-2.7l1.6-2.6h28.4l3.2-5.8h-28.8l2-3.6h25.5l3.2-5.6h-5.7c1.6-1.5,3-3.5,4.3-5.9H328
		c-1.1,2.2-2.4,4.2-4,5.9h-3.2c-0.2-2.1-0.8-4-1.7-5.9h-8.6c0,0.2,0,0.4,0.2,0.8c0.6,2.2,0.9,3.9,0.9,5.1h-5.7c-0.2-2.1-0.9-4-2-5.9
		h-8.6c0.7,1.9,1.1,3.8,1.1,5.9h-6.7l-1.1,5.6h10.2c-0.1,0.3-1.1,3.2-1.3,3.6h-8.5c-1.5,0-3.6,0.1-6.1,0.3l3.5-17.8H309
		c16.5,0,25.1-1.7,31.5-5.7c2.1-1.3,7.4-14.8,7.4-14.8C337.9,293,325.2,299.5,308.9,299.5 M183.4,344.5L183.4,344.5L183.4,344.5
		l-7.3,0l2.1-10.9h15.2c0,0,1.5-0.3,3.7-3c2.2-2.7,2.2-4.3,2.2-4.3h-19.7l2.7-13.7h-12.7c0,0-2.1,10.7-2.7,13.7
		c-3.6,0-13,0.4-13.1-4.5c-0.1-3.6,7-9.7,13.9-14.8h29.2h16.2C208.6,321.4,199.5,344.3,183.4,344.5 M225.1,323.4L225.1,323.4
		c4.4-3.4,9.8,1.6,10.9,1.6c1.2,0,8.7-5.3,12-1.5c3.4,3.8-12.5,14.9-14.6,14.9C231.4,338.4,220.2,327.2,225.1,323.4 M271.4,326.7
		L271.4,326.7c-2.3,0.6-4.6,1.4-6.7,2.4c0,0-1.2,2.4-3.1,5.1c-2.4,3.3-6.6,6.6-6.6,6.6s6.4-3.1,14.9-6l-2.7,13.7
		c-0.4,2.1-1.7,3.1-3.8,3.1h-0.8c-10,0-16.3-4.8-22.4-8.6c11-7.2,27.4-21.1,22.2-27c-7.1-8-22.9,3.2-25.4,3.2c-1.7,0-7.6-5-14.1-5.8
		l2.3-6.5h50.1L271.4,326.7z M302.3,339.2L302.3,339.2c3.2-1.9,7.4,0.9,8.3,0.9c0.9,0,6.3-2.9,9-0.8c2.7,2.1-8.8,8.1-10.4,8.1
		C307.6,347.3,298.8,341.2,302.3,339.2"/>
</g>
</svg>
