<?xml version="1.0" encoding="utf-8"?>
<!-- Generator: Adobe Illustrator 19.0.0, SVG Export Plug-In . SVG Version: 6.00 Build 0)  -->
<svg version="1.1" id="图层_1" xmlns="http://www.w3.org/2000/svg" xmlns:xlink="http://www.w3.org/1999/xlink" x="0px" y="0px"
	 viewBox="0 0 1280 140" style="enable-background:new 0 0 1280 140;" xml:space="preserve">
<style type="text/css">
	.st0{fill:#1C223D;}
	.st1{opacity:8.000000e-02;fill:url(#XMLID_40_);}
	.st2{opacity:8.000000e-02;fill:url(#XMLID_45_);}
	.st3{opacity:5.000000e-02;fill:#0044EF;}
	.st4{opacity:0.1;fill:#0044EF;}
	.st5{fill:#061035;}
	.st6{fill:url(#XMLID_48_);}
	.st7{opacity:0.1;}
	.st8{fill:#5178F0;}
	.st9{fill:url(#XMLID_54_);}
	.st10{fill:#FFFFFF;}
	.st11{fill:url(#XMLID_214_);}
	.st12{fill:url(#XMLID_215_);}
	.st13{opacity:0.5;}
	.st14{opacity:0.25;}
	.st15{fill:#508FFF;}
	.st16{opacity:0.45;}
	.st17{fill:none;stroke:#CCE0FF;stroke-width:0.5;stroke-linecap:square;stroke-miterlimit:10;stroke-dasharray:3.9643,3.9643;}
	.st18{clip-path:url(#XMLID_216_);enable-background:new    ;}
	.st19{fill:#DD6E24;}
	.st20{fill:#FFAF57;}
	.st21{clip-path:url(#XMLID_217_);enable-background:new    ;}
	.st22{fill:#FF9E3E;}
	.st23{clip-path:url(#XMLID_218_);enable-background:new    ;}
	.st24{fill:#FF8B22;}
	.st25{opacity:0.2;fill:#A6C8FF;}
	.st26{opacity:0.2;fill:#DCEAFF;}
	.st27{opacity:0.1;fill:#E9F1FF;}
	.st28{opacity:4.000000e-02;fill:#D2DFFF;}
	.st29{opacity:8.000000e-02;fill:url(#XMLID_219_);}
	.st30{opacity:8.000000e-02;fill:url(#XMLID_220_);}
	.st31{opacity:8.000000e-02;fill:url(#XMLID_221_);}
	.st32{opacity:8.000000e-02;fill:url(#XMLID_222_);}
	.st33{opacity:8.000000e-02;fill:url(#XMLID_223_);}
	.st34{fill:#D47835;}
	.st35{fill:#A5A5A5;}
	.st36{opacity:6.000000e-02;fill:none;stroke:#4A90FF;stroke-miterlimit:10;}
	.st37{opacity:8.000000e-02;fill:url(#XMLID_224_);}
</style>
<rect id="XMLID_96_" x="-8.5" y="-8.5" class="st0" width="1297" height="157"/>
<linearGradient id="XMLID_40_" gradientUnits="userSpaceOnUse" x1="933.3005" y1="106.0883" x2="1111.6189" y2="106.0883">
	<stop  offset="7.324219e-03" style="stop-color:#55A7FF"/>
	<stop  offset="1" style="stop-color:#0060D4"/>
</linearGradient>
<ellipse id="XMLID_102_" class="st1" cx="1022.5" cy="106.1" rx="89.2" ry="43.3"/>
<linearGradient id="XMLID_45_" gradientUnits="userSpaceOnUse" x1="969.1816" y1="106.0883" x2="1075.5" y2="106.0883">
	<stop  offset="7.324219e-03" style="stop-color:#55A7FF"/>
	<stop  offset="1" style="stop-color:#0060D4"/>
</linearGradient>
<ellipse id="XMLID_97_" class="st2" cx="1022.3" cy="106.1" rx="53.2" ry="23.1"/>
<g id="XMLID_105_">
	<polygon id="XMLID_39_" class="st3" points="1022.4,74.5 972.9,100.7 972.9,36.2 1022.4,10 	"/>
	<polygon id="XMLID_38_" class="st4" points="1022.5,74.5 1072,100.7 1072,36.2 1022.5,10 	"/>
	<g id="XMLID_8_">
		
			<image style="overflow:visible;" width="136" height="95" id="XMLID_89_" xlink:href="6E2B91CFAFBF72CC.png"  transform="matrix(1 0 0 1 954 51.8645)">
		</image>
		<g id="XMLID_77_">
			<g id="XMLID_85_">
				<path id="XMLID_86_" class="st5" d="M1070.9,97.8c1.5,0.8,1.5,2.2,0,3.1l-45.7,26.5c-1.4,0.8-3.8,0.8-5.3,0l-46-26.5
					c-1.5-0.8-1.5-2.2,0-3.1l45.7-26.5c1.4-0.8,3.8-0.8,5.3,0L1070.9,97.8z"/>
			</g>
		</g>
	</g>
	<g id="XMLID_15_">
		
			<image style="overflow:visible;opacity:0.2;" width="221" height="179" id="XMLID_101_" xlink:href="6E2B91CFAFBF72CD.png"  transform="matrix(1 0 0 1 912 9.8645)">
		</image>
		<g id="XMLID_81_">
			<g id="XMLID_92_">
				<path id="XMLID_93_" class="st5" d="M1070.9,97.8c1.5,0.8,1.5,2.2,0,3.1l-45.7,26.5c-1.4,0.8-3.8,0.8-5.3,0l-46-26.5
					c-1.5-0.8-1.5-2.2,0-3.1l45.7-26.5c1.4-0.8,3.8-0.8,5.3,0L1070.9,97.8z"/>
			</g>
		</g>
	</g>
	<g id="XMLID_209_">
		<linearGradient id="XMLID_48_" gradientUnits="userSpaceOnUse" x1="1010.6346" y1="66.5577" x2="1034.231" y2="107.4279">
			<stop  offset="0" style="stop-color:#CCD3F2"/>
			<stop  offset="1" style="stop-color:#F9FAFF"/>
		</linearGradient>
		<path id="XMLID_210_" class="st6" d="M1066.9,85.6c1.3,0.8,1.3,2,0,2.8l-41.9,24.4c-1.3,0.8-3.5,0.8-4.8,0L978,88.4
			c-1.3-0.8-1.3-2,0-2.8l41.9-24.4c1.3-0.8,3.5-0.8,4.8,0L1066.9,85.6z"/>
	</g>
	<g id="XMLID_14_" class="st7">
		<path id="XMLID_20_" class="st8" d="M1060.6,84.8c1.2,0.7,1.2,1.8,0,2.4l-36.1,21c-1.1,0.7-3,0.7-4.2,0l-36.3-21
			c-1.2-0.7-1.2-1.8,0-2.4l36.1-21c1.1-0.7,3-0.7,4.2,0L1060.6,84.8z"/>
	</g>
	<linearGradient id="XMLID_54_" gradientUnits="userSpaceOnUse" x1="976.9346" y1="107.1427" x2="1067.931" y2="107.1427">
		<stop  offset="0" style="stop-color:#CACFF2"/>
		<stop  offset="5.000000e-02" style="stop-color:#AFB6E5"/>
		<stop  offset="0.4" style="stop-color:#B0B7E6"/>
		<stop  offset="0.5" style="stop-color:#C7CCF0"/>
		<stop  offset="0.6" style="stop-color:#DFE3FC"/>
		<stop  offset="0.95" style="stop-color:#E5E9FF"/>
		<stop  offset="1" style="stop-color:#C1C6ED"/>
	</linearGradient>
	<path id="XMLID_28_" class="st9" d="M1067.9,87.1c0,0,0,0.1,0,0.1c0,0,0,0.1,0,0.1c0,0,0,0.1,0,0.1c0,0,0,0.1,0,0.1
		c0,0,0,0.1-0.1,0.1c0,0,0,0.1,0,0.1c0,0-0.1,0.1-0.1,0.1c0,0-0.1,0.1-0.1,0.1c0,0,0,0,0,0c0,0-0.1,0.1-0.1,0.1c0,0-0.1,0.1-0.1,0.1
		c0,0-0.1,0.1-0.1,0.1c0,0-0.1,0.1-0.1,0.1c0,0-0.1,0.1-0.1,0.1l-41.9,24.4c-0.1,0.1-0.2,0.1-0.3,0.2c0,0-0.1,0-0.1,0
		c-0.1,0-0.2,0.1-0.3,0.1c0,0-0.1,0-0.1,0c-0.1,0-0.1,0-0.2,0.1c0,0-0.1,0-0.1,0c-0.1,0-0.1,0-0.2,0c0,0-0.1,0-0.1,0
		c-0.1,0-0.3,0-0.4,0.1c0,0-0.1,0-0.1,0c-0.1,0-0.2,0-0.2,0c0,0-0.1,0-0.1,0c-0.1,0-0.1,0-0.2,0c-0.1,0-0.1,0-0.2,0
		c-0.1,0-0.1,0-0.2,0c-0.1,0-0.1,0-0.2,0c-0.1,0-0.1,0-0.2,0c-0.1,0-0.1,0-0.2,0c-0.1,0-0.1,0-0.2,0c0,0-0.1,0-0.1,0
		c-0.1,0-0.1,0-0.2-0.1c0,0-0.1,0-0.1,0c-0.1,0-0.2-0.1-0.4-0.1c-0.1,0-0.1,0-0.2-0.1c0,0-0.1,0-0.1,0c-0.1,0-0.2-0.1-0.3-0.1
		L978,88.4c-0.3-0.2-0.6-0.4-0.8-0.7S977,87.2,977,87v0v0l0,14c0,0.5,0.3,1,1,1.4l42.2,24.4c0.1,0,0.2,0.1,0.3,0.1c0,0,0.1,0,0.1,0
		c0.1,0,0.1,0,0.2,0.1c0,0,0,0,0,0c0.1,0,0.2,0.1,0.4,0.1c0,0,0,0,0,0c0,0,0.1,0,0.1,0c0.1,0,0.1,0,0.2,0.1c0,0,0,0,0.1,0
		c0,0,0.1,0,0.1,0c0.1,0,0.1,0,0.2,0c0,0,0,0,0.1,0c0,0,0.1,0,0.1,0c0.1,0,0.1,0,0.2,0c0,0,0.1,0,0.1,0c0,0,0.1,0,0.1,0
		c0.1,0,0.1,0,0.2,0c0,0,0.1,0,0.1,0c0,0,0,0,0.1,0c0.1,0,0.1,0,0.2,0c0,0,0.1,0,0.1,0c0,0,0,0,0.1,0c0.1,0,0.2,0,0.2,0
		c0,0,0.1,0,0.1,0c0,0,0,0,0,0c0.1,0,0.3,0,0.4-0.1c0,0,0,0,0,0c0,0,0.1,0,0.1,0c0.1,0,0.1,0,0.2,0c0,0,0.1,0,0.1,0
		c0.1,0,0.1,0,0.2-0.1c0,0,0,0,0,0c0,0,0,0,0.1,0c0.1,0,0.2-0.1,0.3-0.1c0,0,0.1,0,0.1,0c0.1-0.1,0.2-0.1,0.3-0.2l41.9-24.4
		c0,0,0,0,0,0c0,0,0.1,0,0.1-0.1c0,0,0.1-0.1,0.1-0.1c0,0,0.1-0.1,0.1-0.1c0,0,0.1-0.1,0.1-0.1c0,0,0,0,0,0c0,0,0.1-0.1,0.1-0.1
		c0,0,0,0,0,0c0,0,0,0,0.1-0.1c0,0,0,0,0,0c0,0,0.1-0.1,0.1-0.1c0,0,0,0,0,0c0,0,0,0,0,0c0,0,0-0.1,0.1-0.1c0,0,0,0,0-0.1
		c0,0,0,0,0,0c0,0,0-0.1,0-0.1c0,0,0,0,0-0.1c0,0,0,0,0,0c0,0,0-0.1,0-0.1c0,0,0,0,0-0.1c0,0,0,0,0,0L1067.9,87.1
		C1067.9,87,1067.9,87.1,1067.9,87.1z"/>
	<g id="XMLID_10_">
		
			<image style="overflow:visible;opacity:0.5;" width="122" height="58" id="XMLID_68_" xlink:href="6E2B91CFAFBF72CB.png"  transform="matrix(1 0 0 1 961 77.8645)">
		</image>
		<g id="XMLID_61_">
			<path id="XMLID_67_" class="st10" d="M1067.9,93.4C1067.8,93.5,1067.8,93.5,1067.9,93.4c-0.1,0.1-0.1,0.2-0.1,0.2
				c0,0,0,0.1,0,0.1c0,0-0.1,0.1-0.1,0.1c0,0-0.1,0.1-0.1,0.1c0,0,0,0,0,0c0,0-0.1,0.1-0.1,0.1c0,0-0.1,0.1-0.1,0.1
				c0,0-0.1,0.1-0.1,0.1c0,0-0.1,0.1-0.1,0.1c0,0-0.1,0.1-0.1,0.1l-41.9,24.4c-0.1,0.1-0.2,0.1-0.3,0.2c0,0-0.1,0-0.1,0
				c-0.1,0-0.2,0.1-0.3,0.1c0,0-0.1,0-0.1,0c-0.1,0-0.1,0-0.2,0.1c0,0-0.1,0-0.1,0c-0.1,0-0.1,0-0.2,0c0,0-0.1,0-0.1,0
				c-0.1,0-0.3,0-0.4,0.1c0,0-0.1,0-0.1,0c-0.1,0-0.2,0-0.2,0c0,0-0.1,0-0.1,0c-0.1,0-0.1,0-0.2,0c-0.1,0-0.1,0-0.2,0
				c-0.1,0-0.1,0-0.2,0c-0.1,0-0.1,0-0.2,0c-0.1,0-0.1,0-0.2,0c-0.1,0-0.1,0-0.2,0c-0.1,0-0.1,0-0.2,0c0,0-0.1,0-0.1,0
				c-0.1,0-0.1,0-0.2-0.1c0,0-0.1,0-0.1,0c-0.1,0-0.2-0.1-0.4-0.1c-0.1,0-0.1,0-0.2-0.1c0,0-0.1,0-0.1,0c-0.1,0-0.2-0.1-0.3-0.1
				L978,94.4c-0.3-0.2-0.6-0.4-0.8-0.7c-0.2-0.2-0.3-0.5-0.3-0.8v0v0l0,1.7c0.1,0.4,0.4,0.8,1,1.1l42.2,24.4c0.1,0,0.2,0.1,0.3,0.1
				c0,0,0.1,0,0.1,0c0.1,0,0.1,0,0.2,0.1c0,0,0,0,0,0c0.1,0,0.2,0.1,0.4,0.1c0,0,0,0,0,0c0,0,0.1,0,0.1,0c0.1,0,0.1,0,0.2,0.1
				c0,0,0,0,0.1,0c0,0,0.1,0,0.1,0c0.1,0,0.1,0,0.2,0c0,0,0,0,0.1,0c0,0,0.1,0,0.1,0c0.1,0,0.1,0,0.2,0c0,0,0.1,0,0.1,0
				c0,0,0.1,0,0.1,0c0.1,0,0.1,0,0.2,0c0,0,0.1,0,0.1,0c0,0,0,0,0.1,0c0.1,0,0.1,0,0.2,0c0,0,0.1,0,0.1,0c0,0,0,0,0.1,0
				c0.1,0,0.2,0,0.2,0c0,0,0.1,0,0.1,0c0,0,0,0,0,0c0.1,0,0.3,0,0.4-0.1c0,0,0,0,0,0c0,0,0.1,0,0.1,0c0.1,0,0.1,0,0.2,0
				c0,0,0.1,0,0.1,0c0.1,0,0.1,0,0.2-0.1c0,0,0,0,0,0c0,0,0,0,0.1,0c0.1,0,0.2-0.1,0.3-0.1c0,0,0.1,0,0.1,0c0.1-0.1,0.2-0.1,0.3-0.2
				l41.9-24.4c0,0,0,0,0,0c0,0,0.1,0,0.1-0.1c0,0,0.1-0.1,0.1-0.1c0,0,0.1-0.1,0.1-0.1c0,0,0.1-0.1,0.1-0.1c0,0,0,0,0,0
				c0,0,0.1-0.1,0.1-0.1c0,0,0,0,0,0c0,0,0,0,0.1-0.1c0,0,0,0,0,0c0,0,0.1-0.1,0.1-0.1c0,0,0,0,0,0c0,0,0,0,0,0c0,0,0-0.1,0.1-0.1
				c0,0,0,0,0-0.1c0,0,0,0,0,0c0,0,0-0.1,0-0.1c0,0,0,0,0-0.1c0,0,0,0,0,0c0,0,0-0.1,0-0.1c0,0,0,0,0-0.1c0,0,0,0,0,0l0-1.2
				c0,0,0,0,0,0C1067.9,93.4,1067.9,93.4,1067.9,93.4z"/>
		</g>
	</g>
	<g id="XMLID_11_">
		<g id="XMLID_31_">
			<linearGradient id="XMLID_214_" gradientUnits="userSpaceOnUse" x1="983.4159" y1="76.7273" x2="1061.4497" y2="76.7273">
				<stop  offset="0" style="stop-color:#FF753F"/>
				<stop  offset="1" style="stop-color:#FFB355"/>
			</linearGradient>
			<path id="XMLID_32_" class="st11" d="M1060.6,75.5c1.1,0.7,1.2,1.7,0,2.4l-36,20.9c-1.1,0.7-3,0.7-4.2,0l-36.2-20.9
				c-1.1-0.7-1.2-1.7,0-2.4l36-20.9c1.1-0.7,3-0.7,4.2,0L1060.6,75.5z"/>
		</g>
		<linearGradient id="XMLID_215_" gradientUnits="userSpaceOnUse" x1="983.3989" y1="89.1527" x2="1061.4667" y2="89.1527">
			<stop  offset="0" style="stop-color:#FFB355"/>
			<stop  offset="1" style="stop-color:#FF753F"/>
		</linearGradient>
		<path id="XMLID_27_" class="st12" d="M1061.5,76.8C1061.5,76.9,1061.5,76.9,1061.5,76.8c0,0.1,0,0.1,0,0.2c0,0,0,0.1,0,0.1
			c0,0,0,0,0,0.1c0,0,0,0.1,0,0.1c0,0,0,0,0,0.1c0,0,0,0.1-0.1,0.1c0,0,0,0.1-0.1,0.1c0,0,0,0,0,0c0,0-0.1,0.1-0.1,0.1
			c0,0-0.1,0-0.1,0.1c0,0-0.1,0-0.1,0.1c0,0-0.1,0-0.1,0.1c0,0-0.1,0-0.1,0.1l-36,20.9c-0.1,0.1-0.2,0.1-0.3,0.1c0,0-0.1,0-0.1,0
			c-0.1,0-0.2,0.1-0.2,0.1c0,0-0.1,0-0.1,0c0,0-0.1,0-0.2,0c0,0-0.1,0-0.1,0c-0.1,0-0.1,0-0.2,0c0,0-0.1,0-0.1,0c-0.1,0-0.2,0-0.3,0
			c0,0-0.1,0-0.1,0c-0.1,0-0.1,0-0.2,0c0,0-0.1,0-0.1,0c-0.1,0-0.1,0-0.2,0c0,0-0.1,0-0.1,0c-0.1,0-0.1,0-0.2,0c0,0-0.1,0-0.1,0
			c0,0-0.1,0-0.1,0c0,0-0.1,0-0.1,0c-0.1,0-0.1,0-0.2,0c0,0-0.1,0-0.1,0c-0.1,0-0.1,0-0.2,0c0,0-0.1,0-0.1,0c-0.1,0-0.2-0.1-0.3-0.1
			c-0.1,0-0.1,0-0.1-0.1c0,0-0.1,0-0.1,0c-0.1,0-0.1-0.1-0.2-0.1l-36.2-20.9c-0.3-0.2-0.5-0.4-0.6-0.6c-0.1-0.2-0.2-0.4-0.2-0.6v0
			c0,0,0,0,0,0l0,2.3c0,0.4,0.3,0.9,0.9,1.2l36.2,20.9c0.1,0,0.1,0.1,0.2,0.1c0,0,0.1,0,0.1,0c0,0,0.1,0,0.1,0.1c0,0,0,0,0,0
			c0.1,0,0.2,0.1,0.3,0.1c0,0,0,0,0,0c0,0,0.1,0,0.1,0c0.1,0,0.1,0,0.2,0c0,0,0,0,0,0c0,0,0,0,0.1,0c0.1,0,0.1,0,0.2,0
			c0,0,0,0,0.1,0c0,0,0,0,0.1,0c0,0,0.1,0,0.1,0c0,0,0,0,0.1,0c0,0,0,0,0.1,0c0.1,0,0.1,0,0.2,0c0,0,0,0,0.1,0c0,0,0,0,0.1,0
			c0.1,0,0.1,0,0.2,0c0,0,0.1,0,0.1,0c0,0,0,0,0,0c0.1,0,0.1,0,0.2,0c0,0,0.1,0,0.1,0c0,0,0,0,0,0c0.1,0,0.2,0,0.3,0c0,0,0,0,0,0
			c0,0,0.1,0,0.1,0c0.1,0,0.1,0,0.2,0c0,0,0.1,0,0.1,0c0.1,0,0.1,0,0.2,0c0,0,0,0,0,0c0,0,0,0,0.1,0c0.1,0,0.2-0.1,0.2-0.1
			c0,0,0.1,0,0.1,0c0.1,0,0.2-0.1,0.3-0.1l36-20.9c0,0,0,0,0,0c0,0,0.1,0,0.1-0.1c0,0,0.1,0,0.1-0.1c0,0,0.1,0,0.1-0.1
			c0,0,0.1,0,0.1-0.1c0,0,0,0,0,0c0,0,0.1-0.1,0.1-0.1c0,0,0,0,0,0c0,0,0,0,0.1-0.1c0,0,0,0,0,0c0,0,0-0.1,0.1-0.1c0,0,0,0,0,0
			c0,0,0,0,0,0c0,0,0-0.1,0-0.1c0,0,0,0,0-0.1c0,0,0,0,0,0c0,0,0-0.1,0-0.1c0,0,0,0,0-0.1c0,0,0,0,0,0c0,0,0-0.1,0-0.1
			c0,0,0,0,0-0.1c0,0,0,0,0,0L1061.5,76.8C1061.5,76.8,1061.5,76.8,1061.5,76.8z"/>
		<g id="XMLID_23_" class="st13">
			<g id="XMLID_25_">
				<path id="XMLID_58_" class="st10" d="M1022.3,55L1022.3,55c0.6,0,1.2,0.1,1.6,0.4l36.2,21c0.3,0.2,0.4,0.3,0.4,0.4
					c0,0-0.1,0.2-0.4,0.3l-36,21c-0.4,0.2-1,0.4-1.6,0.4c-0.6,0-1.2-0.1-1.6-0.4l-36.2-21c-0.3-0.2-0.4-0.3-0.4-0.4
					c0,0,0.1-0.2,0.4-0.3l36-21C1021.1,55.2,1021.7,55,1022.3,55 M1022.3,54c-0.8,0-1.5,0.2-2.1,0.5l-36,21c-1.1,0.7-1.1,1.8,0,2.4
					l36.2,21c0.6,0.3,1.3,0.5,2.1,0.5s1.5-0.2,2.1-0.5l36-21c1.1-0.7,1.1-1.8,0-2.4l-36.2-21C1023.8,54.2,1023.1,54,1022.3,54
					L1022.3,54z"/>
			</g>
		</g>
	</g>
	<g id="XMLID_4_" class="st14">
		<path id="XMLID_5_" class="st15" d="M1060.6,68.9c1.2,0.7,1.2,1.8,0,2.4l-36.1,21c-1.1,0.7-3,0.7-4.2,0l-36.3-21
			c-1.2-0.7-1.2-1.8,0-2.4l36.1-21c1.1-0.7,3-0.7,4.2,0L1060.6,68.9z"/>
	</g>
	<g id="XMLID_6_" class="st16">
		<g id="XMLID_7_">
			<path id="XMLID_49_" class="st17" d="M1060.6,63c1.2,0.7,1.2,1.8,0,2.4l-36.1,21c-1.1,0.7-3,0.7-4.2,0l-36.3-21
				c-1.2-0.7-1.2-1.8,0-2.4l36.1-21c1.1-0.7,3-0.7,4.2,0L1060.6,63z"/>
		</g>
	</g>
	<g id="XMLID_2_">
		<g id="XMLID_299_">
			<defs>
				<path id="XMLID_302_" d="M1036,53.3l3.7,1.7c1.1,0.5,2,1.5,2.5,2.9c0,0.1,0,0.2,0.1,0.2l-3.7-1.7c0-0.1,0-0.2-0.1-0.2
					C1038,54.8,1037.1,53.8,1036,53.3z"/>
			</defs>
			<use xlink:href="#XMLID_302_"  style="overflow:visible;fill:#DD6E24;"/>
			<clipPath id="XMLID_216_">
				<use xlink:href="#XMLID_302_"  style="overflow:visible;"/>
			</clipPath>
			<g id="XMLID_300_" class="st18">
				<path id="XMLID_301_" class="st19" d="M1042.3,58.1l-3.7-1.7c0-0.1,0-0.2-0.1-0.2c-0.5-1.4-1.4-2.4-2.5-2.9l3.7,1.7
					c1.1,0.5,2,1.5,2.5,2.9C1042.3,57.9,1042.3,58,1042.3,58.1"/>
			</g>
		</g>
		<path id="XMLID_24_" class="st19" d="M1037.6,56.8c0.1,0,0.1,0,0.2,0c0,0,0.1,0,0.1,0c0.1,0,0.1,0,0.2,0c0,0,0.1,0,0.1,0
			c0.1,0,0.1,0,0.2,0c0,0,0.1,0,0.1,0c0.1,0,0.1,0,0.2,0c0,0,0.1,0,0.1,0c0.1,0,0.1,0,0.2,0.1c0,0,0.1,0,0.1,0
			c0.1,0,0.2,0.1,0.3,0.1l-3.7-1.7c-0.1,0-0.2-0.1-0.3-0.1c0,0,0,0,0,0c0,0,0,0-0.1,0c-0.1,0-0.1,0-0.2-0.1c0,0-0.1,0-0.1,0
			c-0.1,0-0.1,0-0.2,0c0,0,0,0-0.1,0c0,0,0,0,0,0c-0.1,0-0.1,0-0.2,0c0,0-0.1,0-0.1,0c-0.1,0-0.1,0-0.2,0c0,0-0.1,0-0.1,0
			c-0.1,0-0.1,0-0.2,0c0,0-0.1,0-0.1,0c-0.1,0-0.2,0-0.3,0.1c-0.4,0.1-0.8,0.3-1.2,0.5c-0.1,0.1-0.2,0.1-0.3,0.2c0,0,0,0-0.1,0
			c0,0-0.1,0.1-0.1,0.1c-0.1,0.1-0.1,0.1-0.2,0.2c0,0-0.1,0.1-0.1,0.1c0,0-0.1,0-0.1,0.1c0,0,0,0-0.1,0.1c-0.1,0.1-0.2,0.2-0.3,0.3
			c0,0,0,0-0.1,0.1c0,0,0,0,0,0c-0.1,0.1-0.2,0.3-0.3,0.4c0,0,0,0,0,0c0,0,0,0.1,0,0.1c-0.1,0.1-0.1,0.2-0.2,0.4c0,0,0,0,0,0.1
			c0,0,0,0,0,0.1c-0.1,0.2-0.1,0.3-0.2,0.5c0,0,0,0,0,0c0,0,0,0,0,0c0,0,0,0.1,0,0.1c0,0.1-0.1,0.2-0.1,0.3c0,0,0,0.1,0,0.1
			c0,0.1,0,0.1,0,0.2c0,0,0,0.1,0,0.1c0,0,0,0.1,0,0.1c0,0.1,0,0.2,0,0.3c0,0,0,0.1,0,0.1c0,0.1,0,0.2,0,0.3c0,0,0,0,0,0
			c0,0.1,0,0.3,0,0.4c0,0,0,0.1,0,0.1c0,0.1,0,0.2,0,0.3c0,0,0,0.1,0,0.1c0,0.1,0,0.2,0.1,0.3c0,0,0,0.1,0,0.1
			c0,0.1,0.1,0.2,0.1,0.4c0.3,1,1,1.6,1.8,2l3.7,1.7c-0.8-0.4-1.4-1-1.8-2c0-0.1-0.1-0.2-0.1-0.4c0,0,0-0.1,0-0.1
			c0-0.1,0-0.2-0.1-0.3c0,0,0-0.1,0-0.1c0-0.1,0-0.2,0-0.3c0,0,0-0.1,0-0.1c0-0.1,0-0.3,0-0.4c0,0,0,0,0,0c0-0.1,0-0.2,0-0.3
			c0,0,0-0.1,0-0.1c0-0.1,0-0.2,0-0.3c0,0,0-0.1,0-0.1c0-0.1,0-0.2,0.1-0.3c0,0,0-0.1,0-0.1c0-0.1,0.1-0.2,0.1-0.3c0,0,0-0.1,0-0.1
			c0,0,0,0,0-0.1c0.1-0.2,0.1-0.3,0.2-0.5c0,0,0-0.1,0.1-0.1c0.1-0.1,0.1-0.2,0.2-0.4c0,0,0-0.1,0.1-0.1c0.1-0.1,0.2-0.3,0.3-0.4
			c0,0,0-0.1,0.1-0.1c0.1-0.1,0.2-0.2,0.3-0.3c0,0,0.1-0.1,0.1-0.1c0,0,0.1-0.1,0.1-0.1c0.1-0.1,0.1-0.1,0.2-0.2
			c0,0,0.1-0.1,0.1-0.1c0.1-0.1,0.2-0.1,0.3-0.2c0.4-0.2,0.8-0.4,1.2-0.5C1037.3,56.9,1037.4,56.8,1037.6,56.8
			C1037.5,56.8,1037.5,56.8,1037.6,56.8z"/>
		<path id="XMLID_19_" class="st20" d="M1038.9,43.7c0.1,0,0.2,0,0.2,0c0,0,0.1,0,0.1,0c0.1,0,0.1,0,0.2,0c0,0,0.1,0,0.1,0
			c0.1,0,0.1,0,0.2,0c0,0,0.1,0,0.1,0c0.1,0,0.1,0,0.2,0c0,0,0.1,0,0.1,0c0.1,0,0.1,0,0.2,0c0,0,0.1,0,0.1,0c0.1,0,0.1,0,0.2,0
			c0,0,0.1,0,0.1,0c0.1,0,0.1,0,0.2,0c0,0,0.1,0,0.1,0c0.1,0,0.2,0,0.3,0c0,0,0,0,0.1,0c0.1,0,0.2,0,0.3,0c0,0,0.1,0,0.1,0
			c0.1,0,0.1,0,0.2,0c0,0,0.1,0,0.1,0c0.1,0,0.1,0,0.2,0.1c0,0,0.1,0,0.1,0c0.1,0,0.1,0,0.2,0.1c0,0,0.1,0,0.1,0
			c0.1,0,0.2,0.1,0.3,0.1l-3.7-1.7c-0.1,0-0.2-0.1-0.3-0.1c0,0-0.1,0-0.1,0c-0.1,0-0.1,0-0.2-0.1c0,0,0,0,0,0c0,0,0,0-0.1,0
			c-0.1,0-0.1,0-0.2-0.1c0,0-0.1,0-0.1,0c-0.1,0-0.1,0-0.2,0c0,0-0.1,0-0.1,0c-0.1,0-0.2,0-0.3,0c0,0,0,0-0.1,0c-0.1,0-0.2,0-0.3,0
			c0,0,0,0,0,0c0,0-0.1,0-0.1,0c-0.1,0-0.1,0-0.2,0c0,0-0.1,0-0.1,0c-0.1,0-0.1,0-0.2,0c0,0-0.1,0-0.1,0c-0.1,0-0.1,0-0.2,0
			c0,0-0.1,0-0.1,0c-0.1,0-0.1,0-0.2,0c0,0-0.1,0-0.1,0c-0.1,0-0.1,0-0.2,0c0,0-0.1,0-0.1,0c-0.1,0-0.1,0-0.2,0c0,0-0.1,0-0.1,0
			c-0.1,0-0.2,0-0.2,0c0,0-0.1,0-0.1,0c-0.1,0-0.2,0-0.3,0.1c-1.1,0.2-2.2,0.7-3.3,1.4c-0.2,0.1-0.3,0.2-0.5,0.3l3.7,1.7
			c0.2-0.1,0.3-0.2,0.5-0.3c1.1-0.7,2.3-1.1,3.3-1.4c0.1,0,0.2,0,0.3-0.1C1038.8,43.7,1038.9,43.7,1038.9,43.7z"/>
		<g id="XMLID_266_">
			<defs>
				<path id="XMLID_273_" d="M1037.1,35.6l-3.7-1.7c0,0,0,0,0,0c0,0,0.1,0,0.1,0c0.1,0,0.3-0.1,0.5-0.2c0.2-0.1,0.4-0.2,0.7-0.2
					c0.4-0.1,0.7-0.1,1.1,0l3.7,1.7c-0.3-0.2-0.7-0.1-1.1,0c-0.2,0.1-0.5,0.1-0.7,0.2c-0.2,0.1-0.4,0.1-0.5,0.2
					C1037.2,35.7,1037.1,35.7,1037.1,35.6C1037.1,35.7,1037.1,35.7,1037.1,35.6z"/>
			</defs>
			<use xlink:href="#XMLID_273_"  style="overflow:visible;fill:#FFAF57;"/>
			<clipPath id="XMLID_217_">
				<use xlink:href="#XMLID_273_"  style="overflow:visible;"/>
			</clipPath>
			<g id="XMLID_267_" class="st21">
				<path id="XMLID_272_" class="st20" d="M1037.1,35.6l-3.7-1.7c0,0,0,0,0,0L1037.1,35.6C1037.1,35.6,1037.1,35.6,1037.1,35.6"/>
				<path id="XMLID_271_" class="st20" d="M1037.1,35.7l-3.7-1.7c0,0,0,0,0,0c0,0,0,0,0,0L1037.1,35.7
					C1037.1,35.7,1037.1,35.7,1037.1,35.7C1037.1,35.7,1037.1,35.7,1037.1,35.7"/>
				<path id="XMLID_270_" class="st20" d="M1037.1,35.7l-3.7-1.7c0,0,0.1,0,0.1,0c0.1,0,0.3-0.1,0.5-0.2c0.2-0.1,0.4-0.2,0.7-0.2
					c0.2-0.1,0.5-0.1,0.7-0.1l3.7,1.7c-0.2,0-0.5,0-0.7,0.1c-0.2,0.1-0.5,0.1-0.7,0.2C1037.5,35.6,1037.3,35.6,1037.1,35.7
					C1037.2,35.7,1037.1,35.7,1037.1,35.7"/>
				<path id="XMLID_269_" class="st20" d="M1039.1,35.2l-3.7-1.7c0.1,0,0.2,0,0.3,0.1l3.7,1.7C1039.3,35.2,1039.2,35.2,1039.1,35.2"
					/>
				<path id="XMLID_268_" class="st20" d="M1039.3,35.3l-3.7-1.7c0,0,0.1,0,0.1,0l3.7,1.7C1039.4,35.3,1039.4,35.3,1039.3,35.3"/>
			</g>
		</g>
		<path id="XMLID_22_" class="st19" d="M1030.8,51.7c0-0.1,0-0.1,0.1-0.2c0-0.1,0.1-0.2,0.1-0.3c0-0.1,0-0.1,0.1-0.2
			c0-0.1,0-0.2,0.1-0.2c0-0.1,0-0.1,0-0.2c0,0,0-0.1,0-0.1c0,0,0-0.1,0-0.1c0-0.1,0-0.2,0.1-0.3c0-0.1,0-0.1,0-0.2
			c0-0.1,0-0.2,0-0.3c0,0,0-0.1,0-0.1c0-0.1,0-0.3,0-0.4c0,0,0,0,0-0.1c0-0.1,0-0.2,0-0.3c0,0,0-0.1,0-0.1c0-0.1,0-0.2-0.1-0.2
			c0,0,0-0.1,0-0.1c0-0.1-0.1-0.1-0.1-0.2c0,0,0-0.1-0.1-0.1c0-0.1-0.1-0.1-0.1-0.2c0,0,0-0.1-0.1-0.1c-0.1-0.1-0.2-0.1-0.2-0.2
			c-0.1,0-0.2-0.1-0.2-0.1l-3.7-1.7c0.1,0,0.2,0.1,0.2,0.1c0.1,0.1,0.2,0.1,0.2,0.2c0,0,0,0,0.1,0.1c0,0.1,0.1,0.1,0.1,0.2
			c0,0,0,0.1,0.1,0.1c0,0.1,0.1,0.1,0.1,0.2c0,0,0,0.1,0,0.1c0,0.1,0,0.1,0.1,0.2c0,0,0,0.1,0,0.1c0,0.1,0,0.2,0,0.3c0,0,0,0,0,0.1
			c0,0.1,0,0.3,0,0.4c0,0,0,0.1,0,0.1c0,0.1,0,0.2,0,0.3c0,0.1,0,0.1,0,0.2c0,0.1,0,0.2-0.1,0.3c0,0.1,0,0.1,0,0.2
			c0,0.1,0,0.1,0,0.2c0,0.1,0,0.2-0.1,0.2c0,0.1,0,0.1-0.1,0.2c0,0.1-0.1,0.2-0.1,0.3c0,0.1,0,0.1-0.1,0.2c0,0.1-0.1,0.2-0.1,0.3
			c0,0.1,0,0.1-0.1,0.2c0,0.1,0,0.1-0.1,0.2c0,0.1-0.1,0.3-0.2,0.4c0,0.1-0.1,0.1-0.1,0.2c-0.1,0.1-0.1,0.2-0.2,0.4
			c0,0.1-0.1,0.1-0.1,0.2c-0.1,0.1-0.1,0.3-0.2,0.4c0,0,0,0.1-0.1,0.1c-0.1,0.2-0.2,0.4-0.3,0.5c0,0,0,0.1,0,0.1
			c-0.1,0.2-0.2,0.3-0.3,0.5c0,0.1-0.1,0.1-0.1,0.2c-0.1,0.2-0.2,0.3-0.3,0.5c0,0,0,0,0,0c-0.1,0.2-0.2,0.4-0.3,0.5
			c0,0-0.1,0.1-0.1,0.1c-0.1,0.1-0.2,0.3-0.3,0.4c0,0,0,0.1-0.1,0.1c0,0.1-0.1,0.1-0.1,0.2c0,0.1-0.1,0.1-0.1,0.2
			c0,0.1-0.1,0.1-0.1,0.1c0,0.1-0.1,0.1-0.1,0.2c0,0-0.1,0.1-0.1,0.1c0,0-0.1,0.1-0.1,0.1c0,0-0.1,0.1-0.1,0.1c0,0-0.1,0.1-0.1,0.1
			c0,0-0.1,0.1-0.1,0.1c0,0-0.1,0.1-0.1,0.1c0,0-0.1,0.1-0.1,0.1c0,0-0.1,0.1-0.1,0.1c0,0,0,0,0,0c0,0-0.1,0.1-0.1,0.1c0,0,0,0,0,0
			c0,0-0.1,0.1-0.1,0.1c0,0,0,0-0.1,0c0,0-0.1,0-0.2,0c0,0,0,0-0.1,0c0,0-0.1,0-0.1,0c0,0,0,0,0,0c-0.1,0-0.1,0-0.2,0
			c0,0-0.1,0-0.1,0c-0.1,0-0.1,0-0.2,0c0,0-0.1,0-0.1,0c-0.1,0-0.2,0-0.2-0.1c0,0,0,0-0.1,0c0,0,0,0,0,0c-0.1,0-0.3-0.1-0.4-0.2
			c0,0-0.1,0-0.1-0.1c-0.2-0.1-0.3-0.1-0.5-0.2l3.7,1.7c0.2,0.1,0.4,0.2,0.5,0.2c0,0,0.1,0,0.1,0.1c0.2,0.1,0.3,0.1,0.4,0.2
			c0,0,0,0,0,0c0,0,0,0,0,0c0,0,0,0,0.1,0c0.1,0,0.2,0.1,0.2,0.1c0,0,0.1,0,0.1,0c0.1,0,0.1,0,0.2,0c0,0,0.1,0,0.1,0
			c0.1,0,0.1,0,0.2,0c0,0,0,0,0,0c0,0,0,0,0,0c0,0,0.1,0,0.1,0c0,0,0.1,0,0.1,0c0.1,0,0.1,0,0.2,0c0,0,0,0,0.1,0c0,0,0.1,0,0.1-0.1
			c0,0,0,0,0,0c0,0,0,0,0,0c0,0,0.1-0.1,0.1-0.1c0,0,0,0,0,0c0,0,0,0,0,0c0,0,0,0,0.1-0.1c0,0,0.1-0.1,0.1-0.1c0,0,0.1-0.1,0.1-0.1
			c0,0,0.1-0.1,0.1-0.1c0,0,0,0,0,0c0,0,0-0.1,0.1-0.1c0,0,0.1-0.1,0.1-0.1c0,0,0.1-0.1,0.1-0.1c0,0,0.1-0.1,0.1-0.1
			c0-0.1,0.1-0.1,0.1-0.2c0,0,0.1-0.1,0.1-0.1c0-0.1,0.1-0.1,0.1-0.2c0-0.1,0.1-0.1,0.1-0.2c0,0,0,0,0,0c0,0,0,0,0-0.1
			c0.1-0.1,0.2-0.3,0.2-0.4c0,0,0.1-0.1,0.1-0.1c0.1-0.2,0.2-0.3,0.3-0.5c0,0,0,0,0,0c0.1-0.2,0.2-0.3,0.3-0.5
			c0-0.1,0.1-0.1,0.1-0.2c0.1-0.2,0.2-0.3,0.3-0.5c0,0,0,0,0-0.1c0,0,0,0,0,0c0.1-0.2,0.2-0.4,0.3-0.5c0,0,0-0.1,0.1-0.1
			c0.1-0.1,0.1-0.3,0.2-0.4c0-0.1,0.1-0.1,0.1-0.2c0.1-0.1,0.1-0.2,0.2-0.4c0-0.1,0.1-0.1,0.1-0.2c0.1-0.1,0.1-0.3,0.2-0.4
			c0,0,0-0.1,0-0.1c0,0,0,0,0,0c0-0.1,0-0.1,0.1-0.2C1030.7,51.8,1030.8,51.8,1030.8,51.7z"/>
		<path id="XMLID_3_" class="st22" d="M1032,38.7C1032,38.7,1032,38.7,1032,38.7C1032,38.7,1032,38.7,1032,38.7l3.8,1.7
			c0,0,0,0-0.1,0c0,0,0,0,0,0c0,0,0,0,0,0c0,0,0,0,0,0c0,0,0,0,0,0c0,0,0,0,0,0c0,0,0,0-0.1-0.1c0,0,0,0,0,0c0,0,0-0.1-0.1-0.1
			c0,0,0,0,0,0c0,0-0.1-0.1-0.1-0.1c0,0,0,0,0,0c0,0-0.1-0.1-0.1-0.1c0,0,0,0,0-0.1c0,0,0-0.1-0.1-0.1c0,0,0,0,0-0.1
			c0,0,0-0.1-0.1-0.1c0,0,0,0,0-0.1c0,0,0-0.1-0.1-0.1c0,0,0,0,0-0.1c0-0.1-0.1-0.1-0.1-0.2c0,0,0,0,0,0c0-0.1-0.1-0.1-0.1-0.2
			c0,0,0,0,0-0.1c0,0,0-0.1-0.1-0.1c0,0,0,0,0-0.1c0,0,0-0.1-0.1-0.1c0,0,0-0.1,0-0.1c0,0,0-0.1-0.1-0.1c0,0,0-0.1,0-0.1
			c0,0,0-0.1-0.1-0.1c0,0,0,0,0-0.1c0-0.1-0.1-0.1-0.1-0.2c0,0,0,0,0,0c0-0.1,0-0.1-0.1-0.2c0,0,0,0,0-0.1c0,0,0-0.1,0-0.1
			c0,0,0-0.1,0-0.1c0,0,0-0.1,0-0.1c0,0,0-0.1,0-0.1c0,0,0-0.1,0-0.1c0,0,0,0,0-0.1c0-0.1,0-0.1,0-0.2c0,0,0,0,0,0
			c0-0.1,0-0.1,0-0.2c0,0,0,0,0-0.1c0,0,0-0.1,0-0.1c0,0,0,0,0-0.1c0,0,0-0.1,0-0.1c0,0,0,0,0-0.1c0,0,0-0.1,0-0.1c0,0,0,0,0-0.1
			c0,0,0-0.1,0-0.1c0,0,0,0,0-0.1c0,0,0,0,0-0.1c0,0,0-0.1,0-0.1c0,0,0-0.1,0-0.1c0,0,0,0,0,0c0,0,0-0.1,0.1-0.1c0,0,0,0,0,0
			c0,0,0-0.1,0.1-0.1c0,0,0,0,0,0c0,0,0.1-0.1,0.1-0.1c0,0,0.1-0.1,0.1-0.1c0,0,0,0,0.1,0c0,0,0.1,0,0.1,0c0,0,0,0,0.1,0
			c0,0,0.1,0,0.1,0c0,0,0,0,0,0c0,0,0.1,0,0.1,0c0,0,0.1,0,0.1,0c0,0,0,0,0,0c0,0,0.1,0,0.1,0c0,0,0,0,0,0c0,0,0,0,0.1,0
			c0,0,0,0,0,0c0,0,0,0,0.1,0c0,0,0.1,0,0.1,0c0,0,0,0,0,0c0,0,0.1,0,0.1,0c0,0,0,0,0,0c0.1,0,0.1,0,0.2,0.1l0,0v0v0L1032,33
			c-0.1,0-0.1,0-0.2-0.1c0,0,0,0,0,0c0,0,0,0,0,0c0,0-0.1,0-0.1,0c0,0,0,0,0,0c0,0-0.1,0-0.1,0c0,0,0,0,0,0c0,0,0,0,0,0c0,0,0,0,0,0
			c0,0,0,0-0.1,0c0,0,0,0,0,0c0,0-0.1,0-0.1,0c0,0,0,0,0,0c0,0-0.1,0-0.1,0c0,0-0.1,0-0.1,0c0,0,0,0,0,0c0,0-0.1,0-0.1,0
			c0,0,0,0-0.1,0c0,0-0.1,0-0.1,0c0,0,0,0-0.1,0c0,0,0,0-0.1,0c0,0,0,0-0.1,0c0,0-0.1,0-0.1,0.1c0,0,0,0,0,0c0,0,0,0,0,0
			c0,0,0,0,0,0c0,0,0,0,0,0.1c0,0,0,0,0,0c0,0,0,0,0,0c0,0,0,0.1-0.1,0.1c0,0,0,0,0,0c0,0,0,0,0,0c0,0,0,0.1,0,0.1c0,0,0,0,0,0
			c0,0,0,0.1,0,0.1c0,0,0,0,0,0.1c0,0,0,0,0,0c0,0,0,0,0,0.1c0,0,0,0.1,0,0.1c0,0,0,0,0,0.1c0,0,0,0.1,0,0.1c0,0,0,0,0,0.1
			c0,0,0,0.1,0,0.1c0,0,0,0,0,0.1c0,0,0,0.1,0,0.1c0,0,0,0,0,0.1c0,0.1,0,0.1,0,0.2c0,0,0,0,0,0c0,0.1,0,0.1,0,0.2c0,0,0,0,0,0.1
			c0,0,0,0.1,0,0.1c0,0,0,0.1,0,0.1c0,0,0,0.1,0,0.1c0,0,0,0.1,0,0.1c0,0,0,0.1,0,0.1c0,0,0,0,0,0.1c0,0.1,0,0.1,0.1,0.2
			c0,0,0,0,0,0c0,0.1,0.1,0.1,0.1,0.2c0,0,0,0,0,0.1c0,0,0,0.1,0.1,0.1c0,0,0,0.1,0,0.1c0,0,0,0.1,0.1,0.1c0,0,0,0.1,0,0.1
			c0,0,0,0.1,0.1,0.1c0,0,0,0.1,0,0.1c0,0,0,0.1,0.1,0.1c0,0,0,0,0,0.1c0,0.1,0.1,0.1,0.1,0.2c0,0,0,0,0,0c0,0.1,0.1,0.1,0.1,0.2
			c0,0,0,0,0,0.1c0,0,0,0.1,0.1,0.1c0,0,0,0,0,0.1c0,0,0,0.1,0.1,0.1c0,0,0,0,0,0.1c0,0,0,0.1,0.1,0.1c0,0,0,0,0,0.1
			c0,0,0.1,0.1,0.1,0.1c0,0,0,0,0,0c0,0,0.1,0.1,0.1,0.1c0,0,0,0,0,0c0,0,0,0.1,0.1,0.1c0,0,0,0,0,0c0,0,0,0,0.1,0.1c0,0,0,0,0,0
			C1031.9,38.6,1031.9,38.6,1032,38.7C1031.9,38.6,1031.9,38.6,1032,38.7C1031.9,38.7,1032,38.7,1032,38.7z"/>
		<g id="XMLID_226_">
			<defs>
				<path id="XMLID_229_" d="M1014.6,66.1l3.7,1.7c1.1,0.5,2,1.5,2.5,2.9c0.2,0.7,0.4,1.4,0.3,2.2l-3.7-1.7c0-0.7-0.1-1.5-0.3-2.2
					C1016.7,67.6,1015.8,66.6,1014.6,66.1z"/>
			</defs>
			<use xlink:href="#XMLID_229_"  style="overflow:visible;fill:#DD6E24;"/>
			<clipPath id="XMLID_218_">
				<use xlink:href="#XMLID_229_"  style="overflow:visible;"/>
			</clipPath>
			<g id="XMLID_227_" class="st23">
				<path id="XMLID_228_" class="st19" d="M1021.2,72.8l-3.7-1.7c0-0.7-0.1-1.5-0.3-2.2c-0.5-1.4-1.4-2.4-2.5-2.9l3.7,1.7
					c1.1,0.5,2,1.5,2.5,2.9C1021.1,71.3,1021.2,72,1021.2,72.8"/>
			</g>
		</g>
		<path id="XMLID_26_" class="st19" d="M1016,69.8c0.1,0,0.1,0,0.2,0c0,0,0.1,0,0.1,0c0.1,0,0.1,0,0.2,0c0,0,0.1,0,0.1,0
			c0.1,0,0.1,0,0.2,0c0,0,0.1,0,0.1,0c0.1,0,0.1,0,0.2,0c0,0,0.1,0,0.1,0c0.1,0,0.1,0,0.2,0.1c0,0,0.1,0,0.1,0
			c0.1,0,0.2,0.1,0.3,0.1l-3.7-1.7c-0.1,0-0.2-0.1-0.3-0.1c0,0,0,0,0,0c0,0,0,0-0.1,0c-0.1,0-0.1,0-0.2-0.1c0,0-0.1,0-0.1,0
			c-0.1,0-0.1,0-0.2,0c0,0,0,0-0.1,0c0,0,0,0,0,0c-0.1,0-0.1,0-0.2,0c0,0-0.1,0-0.1,0c-0.1,0-0.1,0-0.2,0c0,0-0.1,0-0.1,0
			c-0.1,0-0.1,0-0.2,0c0,0-0.1,0-0.1,0c-0.1,0-0.2,0-0.3,0.1c-0.4,0.1-0.8,0.3-1.2,0.5c-0.1,0.1-0.2,0.1-0.3,0.2c0,0,0,0-0.1,0
			c0,0-0.1,0.1-0.1,0.1c-0.1,0.1-0.1,0.1-0.2,0.2c0,0-0.1,0.1-0.1,0.1c0,0-0.1,0-0.1,0.1c0,0,0,0-0.1,0.1c-0.1,0.1-0.2,0.2-0.3,0.3
			c0,0,0,0-0.1,0.1c0,0,0,0,0,0c-0.1,0.1-0.2,0.3-0.3,0.4c0,0,0,0,0,0c0,0,0,0.1,0,0.1c-0.1,0.1-0.1,0.2-0.2,0.4c0,0,0,0,0,0.1
			c0,0,0,0,0,0.1c-0.1,0.2-0.1,0.3-0.2,0.5c0,0,0,0,0,0c0,0,0,0,0,0c0,0,0,0.1,0,0.1c0,0.1-0.1,0.2-0.1,0.3c0,0,0,0.1,0,0.1
			c0,0.1,0,0.1,0,0.2c0,0,0,0.1,0,0.1c0,0,0,0.1,0,0.1c0,0.1,0,0.2,0,0.3c0,0,0,0.1,0,0.1c0,0.1,0,0.2,0,0.3c0,0,0,0,0,0
			c0,0.1,0,0.3,0,0.4c0,0,0,0.1,0,0.1c0,0.1,0,0.2,0,0.3c0,0,0,0.1,0,0.1c0,0.1,0,0.2,0.1,0.3c0,0,0,0.1,0,0.1
			c0,0.1,0.1,0.2,0.1,0.4c0.3,0.8,0.8,1.5,1.5,1.9c0.1,0.1,0.2,0.1,0.3,0.1l3.7,1.7c-0.8-0.4-1.4-1-1.8-2c0-0.1-0.1-0.2-0.1-0.4
			c0,0,0-0.1,0-0.1c0-0.1,0-0.2-0.1-0.3c0,0,0-0.1,0-0.1c0-0.1,0-0.2,0-0.3c0,0,0-0.1,0-0.1c0-0.1,0-0.3,0-0.4c0,0,0,0,0,0
			c0-0.1,0-0.2,0-0.3c0,0,0-0.1,0-0.1c0-0.1,0-0.2,0-0.3c0,0,0-0.1,0-0.1c0-0.1,0-0.2,0.1-0.3c0,0,0-0.1,0-0.1
			c0-0.1,0.1-0.2,0.1-0.3c0,0,0-0.1,0-0.1c0,0,0,0,0-0.1c0.1-0.2,0.1-0.3,0.2-0.5c0,0,0-0.1,0.1-0.1c0.1-0.1,0.1-0.2,0.2-0.4
			c0,0,0-0.1,0.1-0.1c0.1-0.1,0.2-0.3,0.3-0.4c0,0,0-0.1,0.1-0.1c0.1-0.1,0.2-0.2,0.3-0.3c0,0,0.1-0.1,0.1-0.1c0,0,0.1-0.1,0.1-0.1
			c0.1-0.1,0.1-0.1,0.2-0.2c0,0,0.1-0.1,0.1-0.1c0.1-0.1,0.2-0.1,0.3-0.2c0.4-0.2,0.8-0.4,1.2-0.5
			C1015.7,69.8,1015.8,69.8,1016,69.8C1015.9,69.8,1015.9,69.8,1016,69.8z"/>
		<path id="XMLID_18_" class="st20" d="M1024.7,42.6c0.1,0,0.2,0,0.4-0.1c0.1,0,0.1,0,0.2,0c0.1,0,0.2,0,0.3,0c0.1,0,0.2,0,0.2,0
			c0.1,0,0.2,0,0.3,0c0.1,0,0.2,0,0.2,0c0.1,0,0.2,0,0.3,0c0.1,0,0.2,0,0.2,0c0.1,0,0.2,0,0.3,0c0.1,0,0.2,0,0.2,0
			c0.1,0,0.2,0,0.3,0c0.1,0,0.1,0,0.2,0c0.1,0,0.2,0,0.3,0c0.1,0,0.1,0,0.2,0c0.2,0,0.3,0,0.5,0.1c0,0,0,0,0,0
			c0.2,0,0.4,0.1,0.5,0.1c0.1,0,0.1,0,0.2,0c0.1,0,0.2,0.1,0.4,0.1c0.1,0,0.1,0,0.2,0c0.1,0,0.2,0.1,0.3,0.1c0.1,0,0.1,0,0.2,0.1
			c0.1,0,0.2,0.1,0.3,0.1c0.1,0,0.1,0,0.2,0.1c0.2,0.1,0.3,0.1,0.5,0.2l-3.7-1.7c-0.2-0.1-0.3-0.1-0.5-0.2c-0.1,0-0.1,0-0.2-0.1
			c-0.1,0-0.2-0.1-0.3-0.1c0,0,0,0-0.1,0c0,0-0.1,0-0.1,0c-0.1,0-0.2-0.1-0.3-0.1c-0.1,0-0.1,0-0.2,0c-0.1,0-0.2-0.1-0.4-0.1
			c-0.1,0-0.1,0-0.2,0c-0.2,0-0.3-0.1-0.5-0.1c0,0,0,0,0,0c-0.2,0-0.3,0-0.5-0.1c0,0,0,0,0,0c-0.1,0-0.1,0-0.2,0c-0.1,0-0.2,0-0.3,0
			c-0.1,0-0.1,0-0.2,0c-0.1,0-0.2,0-0.3,0c-0.1,0-0.2,0-0.2,0c-0.1,0-0.2,0-0.3,0c-0.1,0-0.2,0-0.2,0c-0.1,0-0.2,0-0.3,0
			c-0.1,0-0.2,0-0.2,0c-0.1,0-0.2,0-0.3,0c-0.1,0-0.2,0-0.2,0c-0.1,0-0.2,0-0.3,0c-0.1,0-0.1,0-0.2,0c-0.1,0-0.2,0-0.4,0.1
			c-0.1,0-0.1,0-0.2,0c-0.2,0-0.4,0.1-0.6,0.1c-1.7,0.4-3.5,1.1-5.2,2.1c-0.2,0.1-0.4,0.2-0.6,0.4c-0.1,0-0.1,0.1-0.2,0.1
			c-0.1,0.1-0.3,0.2-0.4,0.3c0,0,0,0-0.1,0c0,0-0.1,0.1-0.1,0.1c-0.1,0.1-0.3,0.2-0.4,0.3c-0.1,0.1-0.1,0.1-0.2,0.2
			c-0.1,0.1-0.3,0.2-0.4,0.3c-0.1,0-0.1,0.1-0.2,0.1c-0.2,0.2-0.4,0.3-0.6,0.5c0,0,0,0,0,0c-0.2,0.2-0.4,0.3-0.5,0.5c0,0,0,0-0.1,0
			c-0.1,0.1-0.1,0.1-0.2,0.2c-0.1,0.1-0.2,0.2-0.2,0.2c-0.1,0.1-0.1,0.1-0.2,0.2c-0.1,0.1-0.2,0.2-0.2,0.2c-0.1,0.1-0.1,0.2-0.2,0.2
			c-0.1,0.1-0.2,0.2-0.2,0.3c-0.1,0.1-0.1,0.2-0.2,0.2c-0.1,0.1-0.1,0.2-0.2,0.3c0,0,0,0.1-0.1,0.1c-0.1,0.1-0.1,0.1-0.1,0.2
			c-0.1,0.1-0.1,0.1-0.2,0.2c-0.1,0.1-0.1,0.2-0.2,0.3c-0.1,0.1-0.1,0.1-0.2,0.2c-0.1,0.1-0.2,0.2-0.2,0.3c0,0.1-0.1,0.1-0.1,0.2
			c-0.1,0.1-0.2,0.3-0.3,0.4c0,0-0.1,0.1-0.1,0.1c0,0,0,0,0,0c-0.1,0.2-0.2,0.3-0.3,0.5c0,0-0.1,0.1-0.1,0.1
			c-0.1,0.1-0.1,0.2-0.2,0.4c0,0.1-0.1,0.1-0.1,0.2c-0.1,0.1-0.1,0.2-0.2,0.3c0,0.1-0.1,0.1-0.1,0.2c0,0.1-0.1,0.1-0.1,0.2
			c0,0,0,0.1-0.1,0.1c0,0.1-0.1,0.2-0.1,0.2c0,0.1-0.1,0.2-0.1,0.3c0,0.1-0.1,0.2-0.1,0.2c0,0.1-0.1,0.2-0.1,0.3
			c0,0.1-0.1,0.2-0.1,0.2c0,0.1-0.1,0.2-0.1,0.3c0,0.1-0.1,0.1-0.1,0.2c0,0,0,0,0,0.1c0,0.1,0,0.1-0.1,0.2c0,0.1-0.1,0.2-0.1,0.3
			c0,0.1-0.1,0.2-0.1,0.3c0,0.1-0.1,0.2-0.1,0.3c0,0.1-0.1,0.2-0.1,0.3c0,0.1-0.1,0.2-0.1,0.3c0,0.1,0,0.2-0.1,0.3
			c0,0.1-0.1,0.2-0.1,0.3c0,0,0,0.1,0,0.1c0,0.1,0,0.2-0.1,0.3c0,0,0,0.1,0,0.1c0,0.2-0.1,0.3-0.1,0.5c0,0,0,0.1,0,0.1
			c0,0.1,0,0.3-0.1,0.4c0,0,0,0.1,0,0.1c0,0.2,0,0.3-0.1,0.5c0,0,0,0.1,0,0.1c0,0.1,0,0.3,0,0.4c0,0,0,0.1,0,0.1c0,0.2,0,0.3,0,0.5
			l0,0v0l3.7,1.7c0-0.2,0-0.3,0-0.5c0,0,0-0.1,0-0.1c0-0.1,0-0.3,0-0.4c0,0,0-0.1,0-0.1c0-0.2,0-0.3,0.1-0.5c0,0,0-0.1,0-0.1
			c0-0.1,0-0.3,0.1-0.4c0,0,0-0.1,0-0.1c0-0.2,0.1-0.3,0.1-0.5c0,0,0-0.1,0-0.1c0-0.1,0.1-0.3,0.1-0.4c0-0.1,0.1-0.2,0.1-0.3
			c0-0.1,0-0.2,0.1-0.3c0-0.1,0.1-0.2,0.1-0.3c0-0.1,0.1-0.2,0.1-0.3c0-0.1,0.1-0.2,0.1-0.3c0-0.1,0.1-0.2,0.1-0.3
			c0-0.1,0.1-0.2,0.1-0.3c0-0.1,0.1-0.2,0.1-0.3c0-0.1,0.1-0.1,0.1-0.2c0-0.1,0.1-0.2,0.1-0.3c0-0.1,0.1-0.2,0.1-0.2
			c0-0.1,0.1-0.2,0.1-0.3c0-0.1,0.1-0.2,0.1-0.2c0-0.1,0.1-0.2,0.1-0.3c0-0.1,0.1-0.2,0.1-0.2c0.1-0.1,0.1-0.2,0.2-0.3
			c0-0.1,0.1-0.1,0.1-0.2c0.1-0.1,0.1-0.2,0.2-0.3c0-0.1,0.1-0.1,0.1-0.2c0.1-0.1,0.1-0.2,0.2-0.4c0,0,0.1-0.1,0.1-0.1
			c0.1-0.2,0.2-0.3,0.3-0.5c0,0,0.1-0.1,0.1-0.1c0.1-0.1,0.2-0.3,0.3-0.4c0-0.1,0.1-0.1,0.1-0.2c0.1-0.1,0.1-0.2,0.2-0.3
			c0-0.1,0.1-0.1,0.2-0.2c0.1-0.1,0.1-0.2,0.2-0.3c0.1-0.1,0.1-0.1,0.2-0.2c0.1-0.1,0.1-0.2,0.2-0.3c0.1-0.1,0.1-0.2,0.2-0.3
			c0.1-0.1,0.1-0.2,0.2-0.2c0.1-0.1,0.2-0.2,0.2-0.3c0.1-0.1,0.1-0.2,0.2-0.2c0.1-0.1,0.2-0.2,0.2-0.2c0.1-0.1,0.1-0.1,0.2-0.2
			c0.1-0.1,0.2-0.2,0.2-0.2c0.1-0.1,0.1-0.1,0.2-0.2c0.2-0.2,0.4-0.3,0.5-0.5c0,0,0,0,0,0c0.2-0.2,0.4-0.3,0.6-0.5
			c0.1,0,0.1-0.1,0.2-0.1c0.1-0.1,0.3-0.2,0.4-0.3c0.1-0.1,0.1-0.1,0.2-0.2c0.1-0.1,0.3-0.2,0.4-0.3c0.1,0,0.1-0.1,0.2-0.1
			c0.1-0.1,0.3-0.2,0.4-0.3c0.1,0,0.1-0.1,0.2-0.1c0.2-0.1,0.4-0.2,0.6-0.4c1.7-1,3.5-1.7,5.2-2.1c0.2,0,0.4-0.1,0.6-0.1
			C1024.5,42.7,1024.6,42.6,1024.7,42.6z"/>
		<path id="XMLID_46_" class="st22" d="M1002,72.8C1002,72.8,1002,72.8,1002,72.8c0-0.1,0-0.2-0.1-0.4c0,0,0-0.1,0-0.1
			c0-0.1,0-0.2,0-0.4c0,0,0,0,0,0c0-0.1,0-0.2,0-0.3c0,0,0-0.1,0-0.1c0-0.1,0-0.2,0-0.4c0,0,0,0,0,0c0-0.1,0-0.2,0-0.3
			c0,0,0-0.1,0-0.1c0-0.1,0-0.2,0-0.4c0,0,0,0,0-0.1c0-0.1,0-0.2,0-0.3c0,0,0-0.1,0-0.1c0-0.1,0-0.2,0.1-0.4c0,0,0,0,0-0.1
			c0-0.1,0-0.2,0.1-0.3c0,0,0-0.1,0-0.1c0-0.1,0-0.2,0.1-0.3c0,0,0-0.1,0-0.1c0-0.1,0.1-0.3,0.1-0.4c0,0,0,0,0,0
			c0-0.1,0.1-0.2,0.1-0.4c0,0,0-0.1,0-0.1c0-0.1,0.1-0.2,0.1-0.3c0,0,0-0.1,0-0.1c0.1-0.1,0.1-0.2,0.2-0.4c0,0,0,0,0,0
			c0.1-0.1,0.1-0.2,0.2-0.4c0,0,0-0.1,0.1-0.1c0.1-0.1,0.1-0.2,0.2-0.3c0,0,0-0.1,0-0.1c0.1-0.1,0.1-0.2,0.2-0.4c0,0,0-0.1,0.1-0.1
			c0.1-0.1,0.1-0.2,0.2-0.3c0,0,0.1-0.1,0.1-0.1c0.1-0.1,0.1-0.2,0.2-0.3c0,0,0,0,0.1-0.1c0.1-0.1,0.2-0.2,0.3-0.3
			c0,0,0-0.1,0.1-0.1c0.1-0.1,0.1-0.2,0.2-0.3c0,0,0.1-0.1,0.1-0.1c0.1-0.1,0.1-0.1,0.2-0.2c0,0,0.1-0.1,0.1-0.1
			c0.1-0.1,0.1-0.2,0.2-0.2c0,0,0.1-0.1,0.1-0.1c0.1-0.1,0.2-0.2,0.3-0.3c0.1-0.1,0.2-0.2,0.4-0.3c0,0,0.1,0,0.1-0.1
			c0.1-0.1,0.2-0.2,0.3-0.3c0,0,0.1-0.1,0.1-0.1c0.1-0.1,0.2-0.1,0.3-0.2c0.1,0,0.1-0.1,0.2-0.1c0.1-0.1,0.2-0.1,0.2-0.2
			c0.1-0.1,0.2-0.1,0.3-0.2c0,0,0.1-0.1,0.1-0.1c0.1-0.1,0.3-0.2,0.4-0.3c0.2-0.1,0.3-0.2,0.5-0.3l-3.7-1.7
			c-0.2,0.1-0.3,0.2-0.5,0.3c-0.1,0.1-0.3,0.2-0.4,0.3c0,0-0.1,0.1-0.1,0.1c-0.1,0.1-0.2,0.1-0.2,0.2c0,0,0,0,0,0
			c-0.1,0.1-0.2,0.1-0.2,0.2c-0.1,0-0.1,0.1-0.2,0.1c-0.1,0.1-0.2,0.1-0.3,0.2c0,0-0.1,0.1-0.1,0.1c-0.1,0.1-0.2,0.2-0.3,0.3
			c0,0-0.1,0-0.1,0.1c-0.1,0.1-0.3,0.2-0.4,0.3c0,0,0,0,0,0c-0.1,0.1-0.2,0.2-0.3,0.3c0,0-0.1,0.1-0.1,0.1c-0.1,0.1-0.1,0.2-0.2,0.2
			c0,0-0.1,0.1-0.1,0.1c-0.1,0.1-0.1,0.1-0.2,0.2c0,0-0.1,0.1-0.1,0.1c0,0,0,0.1-0.1,0.1c0,0.1-0.1,0.1-0.1,0.2c0,0,0,0.1-0.1,0.1
			c-0.1,0.1-0.2,0.2-0.3,0.3c0,0,0,0-0.1,0.1c-0.1,0.1-0.1,0.2-0.2,0.3c0,0-0.1,0.1-0.1,0.1c0,0,0,0.1-0.1,0.1
			c0,0.1-0.1,0.1-0.1,0.2c0,0,0,0.1-0.1,0.1c-0.1,0.1-0.1,0.2-0.2,0.4c0,0,0,0.1,0,0.1c-0.1,0.1-0.1,0.2-0.2,0.3c0,0,0,0.1-0.1,0.1
			c0,0,0,0.1,0,0.1c0,0.1-0.1,0.2-0.1,0.3c0,0,0,0,0,0c-0.1,0.1-0.1,0.2-0.2,0.4c0,0,0,0.1,0,0.1c0,0.1-0.1,0.2-0.1,0.3
			c0,0,0,0.1,0,0.1c0,0,0,0,0,0.1c0,0.1-0.1,0.2-0.1,0.3c0,0,0,0,0,0c0,0.1-0.1,0.3-0.1,0.4c0,0,0,0.1,0,0.1c0,0.1-0.1,0.2-0.1,0.3
			c0,0,0,0.1,0,0.1c0,0,0,0.1,0,0.1c0,0.1,0,0.1,0,0.2c0,0,0,0,0,0.1c0,0.1,0,0.2-0.1,0.4c0,0,0,0.1,0,0.1c0,0.1,0,0.2,0,0.3
			c0,0,0,0,0,0.1c0,0.1,0,0.2,0,0.4c0,0,0,0.1,0,0.1c0,0.1,0,0.2,0,0.3c0,0,0,0,0,0c0,0.1,0,0.2,0,0.4c0,0,0,0.1,0,0.1
			c0,0.1,0,0.2,0,0.3c0,0,0,0,0,0c0,0.1,0,0.2,0,0.4c0,0,0,0.1,0,0.1c0,0.1,0,0.2,0.1,0.3c0,0,0,0,0,0c0,0.1,0.1,0.2,0.1,0.3
			c0,0,0,0.1,0,0.1c0,0.1,0.1,0.2,0.1,0.3c0.5,1.5,1.6,2.6,2.9,3.2l3.7,1.7c-1.3-0.6-2.4-1.7-2.9-3.2c0-0.1-0.1-0.2-0.1-0.3
			c0,0,0-0.1,0-0.1C1002,73,1002,72.9,1002,72.8z"/>
		<g id="XMLID_21_">
			<path id="XMLID_29_" class="st24" d="M1037.2,56.9c-0.4,0.1-0.8,0.3-1.2,0.5c-2,1.2-3,3.9-2.3,6c0.6,1.7,2.1,2.6,3.8,2.2
				c0.4-0.1,0.8-0.3,1.2-0.5c2-1.2,3-3.9,2.3-6C1040.4,57.4,1038.9,56.5,1037.2,56.9z"/>
			<path id="XMLID_36_" class="st24" d="M1035.8,40.4c0,0,0.1,0,0.1,0c0.9-0.2,4.9-2.9,4.2-4.4c-0.4-0.8-1.1-0.8-1.7-0.7
				c-0.2,0.1-0.5,0.1-0.7,0.2c-0.2,0.1-0.4,0.1-0.5,0.2c0,0-0.1,0-0.1,0c-0.3-0.1-1.2-1.3-2.3-1.1c-0.2,0-0.4,0.1-0.6,0.3
				C1032.7,36,1035.2,40.3,1035.8,40.4z"/>
			<path id="XMLID_41_" class="st24" d="M1015.6,69.8c-0.4,0.1-0.8,0.3-1.2,0.5c-2,1.2-3,3.9-2.3,6c0.6,1.7,2.1,2.6,3.8,2.2
				c0.4-0.1,0.8-0.3,1.2-0.5c2-1.2,3-3.9,2.3-6C1018.8,70.3,1017.3,69.4,1015.6,69.8z"/>
			<path id="XMLID_47_" class="st24" d="M1046.1,47.3c-1.1-3-4.2-4.3-7.6-3.5c-1.1,0.2-2.2,0.7-3.3,1.4c-0.2,0.1-0.3,0.2-0.5,0.3
				c-2.5-2.7-6.5-3.6-10.7-2.7c-1.7,0.4-3.5,1.1-5.2,2.1c-6,3.6-10,10.2-10.1,16.1c-0.2,0.1-0.3,0.2-0.5,0.3
				c-4.7,2.8-7.3,8.3-5.9,12.3c1,2.9,4,4.2,7.3,3.6c0,0,0.2,0,0.7-0.1c0.1,0,0.2-0.1,0.3-0.1c0,0,0-0.1-0.1-0.1
				c-1.1-3.1,0.4-6.9,3.3-8.7c0.5-0.3,1.1-0.6,1.7-0.7c2.4-0.5,4.6,0.7,5.5,3.1c0.2,0.7,0.4,1.4,0.3,2.2c1.8-0.9,3.9-2,6.1-3.3
				c2.1-1.2,3.9-2.4,5.6-3.6c-0.4-0.5-0.8-1.1-1.1-1.8c-1.1-3.1,0.4-6.9,3.3-8.7c0.5-0.3,1.1-0.6,1.7-0.7c2.4-0.5,4.6,0.7,5.5,3.1
				c0,0.1,0,0.2,0.1,0.2c0.3-0.4,0.6-0.6,0.8-0.9C1045.9,54.3,1047.2,50.4,1046.1,47.3z M1026.7,58.7
				C1026.7,58.7,1026.6,58.7,1026.7,58.7c-1.4,0.3-9-3.3-7.3-6.5c0.6-1.1,1.5-1.6,2.4-1.8c0.7-0.2,1.4-0.1,2-0.1
				c0.6,0,1.1,0.1,1.3,0.1c0,0,0,0,0.1,0c0.5-0.2,1.9-2.6,3.8-3c0.6-0.1,1.1-0.1,1.7,0.3C1033.3,49,1027.8,58.2,1026.7,58.7z"/>
		</g>
	</g>
	<polygon id="XMLID_12_" class="st25" points="1022.4,129.1 1071.9,100.7 1071.9,36.2 1022.4,64.6 	"/>
	<polygon id="XMLID_13_" class="st26" points="1022.4,129.1 972.9,100.7 972.9,36.2 1022.4,64.6 	"/>
	<path id="XMLID_44_" class="st27" d="M1022.4,10.1l-49.5,26.2l49.5,28.3l49.6-28.3L1022.4,10.1z"/>
</g>
<path id="XMLID_100_" class="st28" d="M801.5,55.8c2,0.7,17.8-5.2,15.3-10.6c-2.4-5.3-9.1-2.6-10.3-3c-1.1-0.4-4.9-6.6-9.7-4.5
	C791.5,40.3,799.5,55.1,801.5,55.8z"/>
<path id="XMLID_99_" class="st28" d="M803.9,107.1c-1.4,0-2.8,0.2-4.1,0.7c-7,2.3-10.9,9.8-8.6,16.8c1.8,5.5,6.9,9.3,12.7,9.3
	c1.4,0,2.8-0.2,4.1-0.7c7-2.3,10.9-9.8,8.6-16.8C814.8,110.8,809.7,107.1,803.9,107.1z"/>
<linearGradient id="XMLID_219_" gradientUnits="userSpaceOnUse" x1="427.1047" y1="77.6746" x2="465.2069" y2="77.6746">
	<stop  offset="7.324219e-03" style="stop-color:#94E8FF"/>
	<stop  offset="1" style="stop-color:#0060D4"/>
</linearGradient>
<circle id="XMLID_109_" class="st29" cx="446.2" cy="77.7" r="19.1"/>
<linearGradient id="XMLID_220_" gradientUnits="userSpaceOnUse" x1="-8.5039" y1="71.1449" x2="434.3201" y2="71.1449">
	<stop  offset="7.324219e-03" style="stop-color:#94E8FF"/>
	<stop  offset="1" style="stop-color:#0060D4"/>
</linearGradient>
<path id="XMLID_30_" class="st30" d="M-8.5-8.5V96.8c49.4,34,109.3,54,173.8,54c116,0,216.9-64.4,269-159.3H-8.5z"/>
<linearGradient id="XMLID_221_" gradientUnits="userSpaceOnUse" x1="-8.5039" y1="32.1468" x2="150.5841" y2="32.1468">
	<stop  offset="7.324219e-03" style="stop-color:#55A7FF"/>
	<stop  offset="1" style="stop-color:#0060D4"/>
</linearGradient>
<path id="XMLID_33_" class="st31" d="M-8.5-8.5v61.8C8.3,65.5,28.9,72.8,51.3,72.8c49.1,0,90-34.9,99.3-81.3H-8.5z"/>
<linearGradient id="XMLID_222_" gradientUnits="userSpaceOnUse" x1="1144.415" y1="32.1468" x2="1288.5039" y2="32.1468">
	<stop  offset="7.324219e-03" style="stop-color:#94E8FF"/>
	<stop  offset="1" style="stop-color:#0060D4"/>
</linearGradient>
<path id="XMLID_17_" class="st32" d="M1288.5-8.5h-144.1c9.3,46.4,50.2,81.3,99.3,81.3c16.1,0,31.3-3.8,44.8-10.4V-8.5z"/>
<linearGradient id="XMLID_223_" gradientUnits="userSpaceOnUse" x1="1238.0806" y1="125.7781" x2="1288.5039" y2="125.7781">
	<stop  offset="7.324219e-03" style="stop-color:#94E8FF"/>
	<stop  offset="1" style="stop-color:#0060D4"/>
</linearGradient>
<path id="XMLID_50_" class="st33" d="M1288.5,103.9c-2.7-0.6-5.6-0.9-8.5-0.9c-23.2,0-41.9,18.8-41.9,41.9c0,1.2,0.1,2.4,0.2,3.5
	h50.3V103.9z"/>
<g id="XMLID_178_">
	<path id="XMLID_179_" class="st34" d="M28.3,40.4c0.5-1.2,1-2.5,1.6-3.8l3.1,0.7c-0.4,1.1-0.8,2.1-1.3,3.1h14.8v3.1H30.2
		c-1.2,2.2-2.4,4.1-3.7,5.8h6.3v-3.9H36v3.9h8.9v2.9H36v3.5h11v3.1H36v6.1h-3.2v-6.1H21v-3.1h11.7v-3.5h-9.5l-0.7-2.9
		c1.5-1.5,2.9-3.5,4.2-5.8h-5.3v-3.1H28.3z"/>
	<path id="XMLID_181_" class="st34" d="M59,40.7c0.1-1.2,0.3-2.5,0.4-3.8h3.1c-0.1,1.3-0.3,2.6-0.4,3.8h15.2v3.1H61.7
		c-0.2,1.3-0.4,2.5-0.7,3.6h13.5v2.7c-1.1,3.1-2.8,5.8-5.2,8.1c2.3,1.6,5.2,2.8,8.5,3.6l-1.6,2.8c-3.7-1-6.9-2.5-9.3-4.4
		c-2.5,1.8-5.5,3.4-9.1,4.6l-1.6-3c3.3-0.9,6.1-2.1,8.4-3.6c-2-2.1-3.5-4.6-4.3-7.5c-0.3,1.1-0.6,2.1-1,3c-1.6,4-4,7.6-7.1,10.8
		l-2-2.6c2.8-2.8,4.8-6,6.2-9.5c0.8-2.3,1.6-5.2,2.1-8.5h-7.5v-3.1H59z M67,56.3c1.9-1.7,3.3-3.8,4.2-6H63
		C63.9,52.6,65.2,54.6,67,56.3z"/>
	<path id="XMLID_184_" class="st34" d="M89.2,51.7c-0.8,0.5-1.6,0.9-2.4,1.3v8.4c0,1.9-1,2.8-3,2.8h-2.6l-0.7-2.9
		c0.8,0.1,1.5,0.2,2.2,0.2c0.7,0,1-0.3,1-0.9v-6.2c-1,0.4-2,0.8-2.9,1.1l-0.8-3c1.2-0.3,2.5-0.8,3.7-1.2v-6.2h-3.2v-3h3.2V37h3.1
		v5.2h3v3h-3V50c0.8-0.5,1.6-0.9,2.4-1.4V51.7z M93.2,45.2c-0.5-1.2-1.1-2.2-1.7-3.1l2.3-0.9c0.6,1,1.2,2.1,1.6,3.2l-1.7,0.8h4.8
		c-0.5-1.3-1-2.4-1.6-3.3l2.3-0.9c0.6,1.1,1.1,2.2,1.6,3.5L99,45.2h3c0.7-1.4,1.3-3,1.8-4.9c-3.5,0.6-7.8,0.9-12.7,0.9l-0.9-2.7
		c6.2,0,11.5-0.4,15.8-1.2l1.3,2.3c-1,0.3-2.1,0.5-3.3,0.7l2.5,0.7c-0.5,1.5-1.1,2.9-1.8,4.2h1.9v2.7h-10c-0.1,0.6-0.1,1.1-0.2,1.7
		h10.9v2.8H96c-0.1,0.5-0.2,1.1-0.3,1.6h10v2.4c-0.6,1.5-1.6,2.9-3,4.1c1.5,0.6,3.2,1.1,5.1,1.4l-1.4,2.8c-2.4-0.5-4.5-1.3-6.3-2.3
		c-1.7,1-3.8,1.8-6.1,2.4L92.6,62c1.9-0.4,3.6-0.9,5-1.5c-1.1-0.9-2.1-2-2.9-3.1c0,0,0,0.1,0,0.1c-1,2.6-2.5,5-4.6,7.1l-1.9-2.4
		c1.8-1.8,3.1-3.8,4-6c0.4-1.1,0.8-2.4,1.1-3.8h-3.6v-2.8h4.1c0.1-0.6,0.1-1.1,0.2-1.7h-3.3v-2.7H93.2z M102.7,56.5h-5.5
		c0.8,1,1.8,1.9,3,2.6C101.2,58.3,102.1,57.5,102.7,56.5z"/>
	<path id="XMLID_188_" class="st34" d="M118.5,51.2c-0.2,0.5-0.3,0.9-0.5,1.3h6V55c-0.5,1.7-1.4,3.3-2.7,4.6c1.2,0.5,2.3,1,3.4,1.6
		l-1.7,2.5c-1.1-0.7-2.5-1.4-4.1-2.2c-2,1.3-4.4,2.2-7.4,3l-1.4-2.6c2.2-0.5,4-1.1,5.6-1.8c-1.2-0.5-2.5-1-3.8-1.5
		c0.7-1.2,1.4-2.4,1.9-3.5h-3v-2.7h4.2c0.2-0.6,0.4-1.1,0.6-1.7L118.5,51.2z M116.5,42.4v-5.4h2.9v5.4h5.1v2.7h-5.1v0.1
		c1.6,0.6,3.1,1.4,4.8,2.2l-1.6,2.5c-1.3-1-2.3-1.8-3.1-2.3v3.1h-2.9v-4.7c-1,2-2.6,3.8-4.7,5.4l-1.6-2.5c2-1.1,3.4-2.3,4.3-3.6
		h-3.6v-2.7H116.5z M115.5,40.9l-2.2,1c-0.6-1.4-1.2-2.7-1.9-3.8l2.4-0.8C114.4,38.4,115,39.6,115.5,40.9z M121.3,55.1h-4.4
		c-0.4,0.8-0.8,1.5-1.2,2.2c1,0.3,1.9,0.7,2.9,1C119.8,57.5,120.7,56.4,121.3,55.1z M124.4,38.3c-0.6,1.3-1.3,2.5-2.3,3.7l-2.2-1.1
		c1-1.2,1.7-2.4,2.3-3.6L124.4,38.3z M127.3,49.8c-0.4,1-0.9,1.9-1.4,2.8l-2-2.4c1.7-3.3,2.8-7.7,3.3-13.2l3.1,0.5
		c-0.2,1.3-0.4,2.5-0.6,3.7h7.5v3h-1.6c-0.2,4.8-1.1,8.9-2.6,12.4c1.4,2.4,3.1,4.3,5.1,5.6l-1.7,2.5c-1.9-1.4-3.5-3.2-4.9-5.4
		c-1.4,2.1-3.1,3.9-5.2,5.4l-1.6-2.6c2.2-1.4,3.9-3.3,5.2-5.6C128.8,54.5,128,52.2,127.3,49.8z M128.8,45.4c0.7,3,1.5,5.6,2.5,7.8
		c0.9-2.6,1.4-5.7,1.5-9.1h-3.7C129,44.6,128.9,45,128.8,45.4z"/>
	<path id="XMLID_196_" class="st34" d="M141.4,64.4l-0.7-2.9c0.8,0.1,1.5,0.2,2.2,0.2c0.6,0,1-0.4,1-1.1v-6.1c-1,0.4-2,0.7-3,1
		l-0.8-3.1c1.3-0.3,2.6-0.7,3.8-1.1v-6h-3.2v-3h3.2V37h3.1v5.3h2.5v3h-2.5v4.8c0.8-0.4,1.6-0.8,2.4-1.2V52c-0.8,0.4-1.6,0.8-2.4,1.2
		v8.1c0,2-1,3.1-3,3.1H141.4z M150,64.7l-2.5-2.2c2-3.8,2.9-8.7,3-14.7v-10H167v7.9h-5.4v2.8h6.1v2.8h-6.1v2.9h4.7v10.3h-2.9v-1.2
		h-6.8v1.2h-2.9V54.3h4.7v-2.9h-5.1C153.1,56.5,151.9,60.9,150,64.7z M153.6,45.8v2c0,0.3,0,0.5,0,0.8h5v-2.8H153.6z M153.6,40.7V43
		h10.3v-2.3H153.6z M163.5,60.7v-3.6h-6.8v3.6H163.5z"/>
	<path id="XMLID_202_" class="st34" d="M196.3,38V41h-10.8v10.3h11.9v3h-11.9v10.3h-3.2V54.4h-11.7v-3h11.7V41h-10.5V38H196.3z
		 M179.3,48.9l-2.9,1.4c-1-2.5-2-4.7-3.1-6.7l2.9-1.4C177.3,44.2,178.3,46.4,179.3,48.9z M194.9,43.4c-0.8,2.3-1.9,4.6-3.3,6.7
		l-2.8-1.4c1.4-2.2,2.5-4.4,3.3-6.6L194.9,43.4z"/>
	<path id="XMLID_206_" class="st34" d="M201.2,46.2c2.1-0.3,5.2-3.5,9.3-9.4l3.2,1.1c-2.3,3.2-4.7,5.9-7.1,8.2
		c4.9-0.2,9.6-0.6,14.2-1c-0.9-1.3-1.8-2.6-2.8-3.8l2.8-1.4c2.4,3,4.6,6.3,6.8,9.9l-3.1,1.5c-0.7-1.2-1.4-2.4-2-3.5
		c-6.2,0.6-13.2,1-20.8,1.3L201.2,46.2z M224.4,64.7h-3.2v-1.1h-14.3v1.1h-3.2V51.8h20.7V64.7z M221.2,60.6v-5.7h-14.3v5.7H221.2z"
		/>
</g>
<g id="XMLID_16_">
	<path id="XMLID_57_" class="st35" d="M24.4,94.2l0.4,1.8h0l0.4-1.8l2.4-8.1h0.9l2.4,8.1l0.4,1.8h0l0.4-1.8l2-8.1h1l-2.9,11.4H31
		l-2.6-8.7l-0.3-1.2h0l-0.3,1.2l-2.6,8.7h-0.9L21.4,86h1L24.4,94.2z"/>
	<path id="XMLID_63_" class="st35" d="M39.4,97.6c-1.1,0-2-0.4-2.7-1.2c-0.7-0.8-1-1.8-1-3V93c0-1.2,0.3-2.2,1-3
		c0.7-0.8,1.5-1.2,2.6-1.2c1,0,1.8,0.3,2.4,1c0.6,0.7,0.8,1.5,0.8,2.7v0.7h-5.9v0.3c0,1,0.2,1.8,0.7,2.4c0.5,0.6,1.2,1,2,1
		c0.5,0,1-0.1,1.4-0.3c0.4-0.2,0.8-0.4,1.1-0.7l0.4,0.6c-0.3,0.3-0.7,0.6-1.2,0.8C40.6,97.5,40,97.6,39.4,97.6z M39.3,89.6
		c-0.7,0-1.3,0.3-1.8,0.8c-0.5,0.5-0.7,1.2-0.8,2l0,0h4.8v-0.2c0-0.8-0.2-1.4-0.6-1.9C40.6,89.8,40,89.6,39.3,89.6z"/>
	<path id="XMLID_66_" class="st35" d="M45.4,97.4h-0.9V85.2h0.9V97.4z"/>
	<path id="XMLID_70_" class="st35" d="M51.1,96.8c0.6,0,1.1-0.2,1.6-0.5s0.7-0.8,0.7-1.5h0.8l0,0c0,0.8-0.3,1.4-0.9,2
		c-0.6,0.5-1.4,0.8-2.2,0.8c-1.1,0-2-0.4-2.6-1.2c-0.6-0.8-0.9-1.8-0.9-3V93c0-1.2,0.3-2.2,0.9-3s1.5-1.2,2.6-1.2
		c0.9,0,1.7,0.3,2.3,0.8c0.6,0.5,0.9,1.3,0.9,2.2l0,0h-0.8c0-0.7-0.2-1.2-0.7-1.6c-0.4-0.4-1-0.6-1.6-0.6c-0.9,0-1.5,0.3-2,1
		c-0.4,0.7-0.6,1.5-0.6,2.4v0.3c0,1,0.2,1.8,0.6,2.5C49.6,96.5,50.2,96.8,51.1,96.8z"/>
	<path id="XMLID_72_" class="st35" d="M55.7,93.1c0-1.2,0.3-2.3,1-3.1c0.7-0.8,1.6-1.2,2.7-1.2c1.1,0,2,0.4,2.7,1.2
		c0.7,0.8,1,1.8,1,3.1v0.3c0,1.2-0.3,2.3-1,3.1s-1.6,1.2-2.7,1.2c-1.1,0-2-0.4-2.7-1.2c-0.7-0.8-1-1.8-1-3.1V93.1z M56.7,93.3
		c0,1,0.2,1.8,0.7,2.5c0.5,0.7,1.2,1,2.1,1c0.9,0,1.6-0.3,2.1-1c0.5-0.7,0.7-1.5,0.7-2.5v-0.3c0-1-0.2-1.8-0.8-2.5s-1.2-1-2.1-1
		s-1.6,0.3-2.1,1c-0.5,0.7-0.7,1.5-0.7,2.5V93.3z"/>
	<path id="XMLID_76_" class="st35" d="M66,89l0.1,1.4c0.3-0.5,0.6-0.9,1.1-1.1c0.5-0.3,1-0.4,1.6-0.4c0.6,0,1.2,0.2,1.6,0.5
		c0.4,0.3,0.7,0.8,0.9,1.4c0.3-0.6,0.6-1,1.1-1.4c0.5-0.3,1-0.5,1.7-0.5c0.9,0,1.6,0.3,2.1,0.9s0.7,1.5,0.7,2.8v4.9H76v-4.9
		c0-1-0.2-1.8-0.6-2.2c-0.4-0.4-0.9-0.6-1.5-0.6c-0.7,0-1.3,0.2-1.7,0.7s-0.6,1-0.7,1.7c0,0.1,0,0.1,0,0.2c0,0.1,0,0.1,0,0.2v5.1
		h-0.9v-4.9c0-1-0.2-1.8-0.6-2.2c-0.4-0.4-0.9-0.7-1.5-0.7c-0.7,0-1.2,0.2-1.6,0.5c-0.4,0.3-0.7,0.8-0.8,1.3v6h-0.9V89H66z"/>
	<path id="XMLID_80_" class="st35" d="M82.6,97.6c-1.1,0-2-0.4-2.7-1.2c-0.7-0.8-1-1.8-1-3V93c0-1.2,0.3-2.2,1-3
		c0.7-0.8,1.5-1.2,2.6-1.2c1,0,1.8,0.3,2.4,1c0.6,0.7,0.8,1.5,0.8,2.7v0.7h-5.9v0.3c0,1,0.2,1.8,0.7,2.4c0.5,0.6,1.2,1,2,1
		c0.5,0,1-0.1,1.4-0.3c0.4-0.2,0.8-0.4,1.1-0.7l0.4,0.6c-0.3,0.3-0.7,0.6-1.2,0.8C83.8,97.5,83.2,97.6,82.6,97.6z M82.5,89.6
		c-0.7,0-1.3,0.3-1.8,0.8c-0.5,0.5-0.7,1.2-0.8,2l0,0h4.8v-0.2c0-0.8-0.2-1.4-0.6-1.9C83.8,89.8,83.2,89.6,82.5,89.6z"/>
	<path id="XMLID_84_" class="st35" d="M92.9,86.8V89h1.9v0.8h-1.9v5.5c0,0.6,0.1,0.9,0.3,1.2c0.2,0.2,0.5,0.3,0.8,0.3
		c0.1,0,0.2,0,0.3,0c0.1,0,0.2,0,0.4-0.1l0.1,0.7c-0.1,0.1-0.3,0.1-0.5,0.2c-0.2,0-0.4,0.1-0.6,0.1c-0.6,0-1.1-0.2-1.4-0.6
		c-0.3-0.4-0.5-1-0.5-1.8v-5.5h-1.5V89H92v-2.2H92.9z"/>
	<path id="XMLID_88_" class="st35" d="M96.1,93.1c0-1.2,0.3-2.3,1-3.1c0.7-0.8,1.6-1.2,2.7-1.2c1.1,0,2,0.4,2.7,1.2
		c0.7,0.8,1,1.8,1,3.1v0.3c0,1.2-0.3,2.3-1,3.1s-1.6,1.2-2.7,1.2c-1.1,0-2-0.4-2.7-1.2c-0.7-0.8-1-1.8-1-3.1V93.1z M97,93.3
		c0,1,0.2,1.8,0.7,2.5c0.5,0.7,1.2,1,2.1,1c0.9,0,1.6-0.3,2.1-1c0.5-0.7,0.7-1.5,0.7-2.5v-0.3c0-1-0.2-1.8-0.8-2.5s-1.2-1-2.1-1
		s-1.6,0.3-2.1,1c-0.5,0.7-0.7,1.5-0.7,2.5V93.3z"/>
	<path id="XMLID_94_" class="st35" d="M117.5,93.9L117.5,93.9c0,1.2-0.3,2.1-1.1,2.7s-1.7,1-3,1c-1.3,0-2.3-0.5-3.1-1.4
		c-0.8-0.9-1.2-2.1-1.2-3.6v-1.9c0-1.4,0.4-2.6,1.2-3.6c0.8-0.9,1.8-1.4,3.1-1.4c1.2,0,2.2,0.3,3,1s1.1,1.5,1.1,2.7l0,0h-0.9
		c0-0.9-0.3-1.6-0.8-2.1c-0.6-0.5-1.3-0.8-2.3-0.8c-1,0-1.8,0.4-2.4,1.2s-0.9,1.8-0.9,3v1.9c0,1.2,0.3,2.2,0.9,3s1.4,1.2,2.4,1.2
		c1,0,1.8-0.2,2.3-0.8c0.6-0.5,0.8-1.2,0.8-2.2H117.5z"/>
	<path id="XMLID_98_" class="st35" d="M120.6,90.4c0.3-0.5,0.7-0.9,1.1-1.2c0.5-0.3,1-0.4,1.6-0.4c0.9,0,1.6,0.3,2.1,0.8
		s0.7,1.4,0.7,2.6v5.2h-0.9v-5.2c0-0.9-0.2-1.6-0.5-2c-0.4-0.4-0.9-0.6-1.5-0.6c-0.7,0-1.2,0.2-1.6,0.5c-0.4,0.3-0.7,0.7-0.9,1.3v6
		h-0.9V85.2h0.9V90.4z"/>
	<path id="XMLID_106_" class="st35" d="M131.8,97.6c-1.1,0-2-0.4-2.7-1.2c-0.7-0.8-1-1.8-1-3V93c0-1.2,0.3-2.2,1-3
		c0.7-0.8,1.5-1.2,2.6-1.2c1,0,1.8,0.3,2.4,1c0.6,0.7,0.8,1.5,0.8,2.7v0.7H129v0.3c0,1,0.2,1.8,0.7,2.4c0.5,0.6,1.2,1,2,1
		c0.5,0,1-0.1,1.4-0.3c0.4-0.2,0.8-0.4,1.1-0.7l0.4,0.6c-0.3,0.3-0.7,0.6-1.2,0.8C133,97.5,132.5,97.6,131.8,97.6z M131.7,89.6
		c-0.7,0-1.3,0.3-1.8,0.8c-0.5,0.5-0.7,1.2-0.8,2l0,0h4.8v-0.2c0-0.8-0.2-1.4-0.6-1.9C133,89.8,132.4,89.6,131.7,89.6z"/>
	<path id="XMLID_110_" class="st35" d="M140.5,92.4L144,86h1.1l-4.1,7.2v4.2H140v-4.2l-4.1-7.2h1.1L140.5,92.4z"/>
	<path id="XMLID_113_" class="st35" d="M145.6,93.1c0-1.2,0.3-2.3,1-3.1c0.7-0.8,1.6-1.2,2.7-1.2c1.1,0,2,0.4,2.7,1.2
		c0.7,0.8,1,1.8,1,3.1v0.3c0,1.2-0.3,2.3-1,3.1s-1.6,1.2-2.7,1.2c-1.1,0-2-0.4-2.7-1.2c-0.7-0.8-1-1.8-1-3.1V93.1z M146.5,93.3
		c0,1,0.2,1.8,0.7,2.5c0.5,0.7,1.2,1,2.1,1c0.9,0,1.6-0.3,2.1-1c0.5-0.7,0.7-1.5,0.7-2.5v-0.3c0-1-0.2-1.8-0.8-2.5s-1.2-1-2.1-1
		s-1.6,0.3-2.1,1c-0.5,0.7-0.7,1.5-0.7,2.5V93.3z"/>
	<path id="XMLID_116_" class="st35" d="M160.6,96c-0.3,0.5-0.6,0.9-1.1,1.1c-0.5,0.3-1,0.4-1.6,0.4c-0.9,0-1.6-0.3-2.1-0.9
		c-0.5-0.6-0.8-1.5-0.8-2.8V89h0.9v4.9c0,1,0.2,1.8,0.5,2.2s0.9,0.7,1.5,0.7c0.7,0,1.3-0.2,1.7-0.5c0.4-0.3,0.7-0.7,0.9-1.3v-6h0.9
		v8.5h-0.8L160.6,96z"/>
	<path id="XMLID_118_" class="st35" d="M166.3,95.1l0.3,1h0l2.6-7.2h1l-3.7,9.8c-0.2,0.6-0.5,1.1-0.9,1.5c-0.3,0.4-0.9,0.6-1.5,0.6
		c-0.1,0-0.2,0-0.4,0s-0.3,0-0.3-0.1l0.1-0.8c0.1,0,0.2,0,0.3,0c0.1,0,0.2,0,0.3,0c0.4,0,0.7-0.1,1-0.4c0.2-0.3,0.5-0.7,0.6-1.1
		l0.4-1.1L163,89h1L166.3,95.1z"/>
	<path id="XMLID_120_" class="st35" d="M177.3,96c-0.3,0.5-0.6,0.9-1.1,1.1c-0.5,0.3-1,0.4-1.6,0.4c-0.9,0-1.6-0.3-2.1-0.9
		c-0.5-0.6-0.8-1.5-0.8-2.8V89h0.9v4.9c0,1,0.2,1.8,0.5,2.2s0.9,0.7,1.5,0.7c0.7,0,1.3-0.2,1.7-0.5c0.4-0.3,0.7-0.7,0.9-1.3v-6h0.9
		v8.5h-0.8L177.3,96z"/>
	<path id="XMLID_122_" class="st35" d="M186,97.4c-0.1-0.3-0.1-0.6-0.1-0.8c0-0.2,0-0.4,0-0.7c-0.3,0.5-0.7,0.8-1.2,1.1
		c-0.5,0.3-1.1,0.4-1.8,0.4c-0.8,0-1.5-0.2-1.9-0.7c-0.5-0.4-0.7-1-0.7-1.8s0.3-1.4,1-1.8c0.7-0.5,1.5-0.7,2.6-0.7h2.1v-1
		c0-0.6-0.2-1.1-0.6-1.4s-0.9-0.5-1.6-0.5c-0.6,0-1.2,0.2-1.6,0.5c-0.4,0.3-0.6,0.7-0.6,1.2h-0.9l0,0c0-0.6,0.2-1.2,0.8-1.7
		c0.6-0.5,1.3-0.7,2.3-0.7c0.9,0,1.7,0.2,2.2,0.7s0.8,1.2,0.8,2v4.2c0,0.3,0,0.6,0.1,0.9c0,0.3,0.1,0.6,0.2,0.8H186z M182.9,96.8
		c0.7,0,1.3-0.2,1.9-0.5c0.5-0.3,0.9-0.8,1.1-1.3v-1.6h-2.1c-0.8,0-1.4,0.2-1.9,0.5c-0.5,0.4-0.7,0.8-0.7,1.3c0,0.5,0.2,0.9,0.5,1.2
		C181.9,96.6,182.4,96.8,182.9,96.8z"/>
	<path id="XMLID_125_" class="st35" d="M190.1,89l0.1,1.5c0.3-0.5,0.6-0.9,1.1-1.2c0.5-0.3,1-0.4,1.6-0.4c0.9,0,1.6,0.3,2.1,0.8
		c0.5,0.6,0.7,1.4,0.7,2.6v5.1h-0.9v-5.1c0-1-0.2-1.7-0.5-2.1c-0.4-0.4-0.9-0.6-1.5-0.6c-0.7,0-1.2,0.2-1.6,0.5
		c-0.4,0.3-0.7,0.8-0.9,1.3v6h-0.9V89H190.1z"/>
	<path id="XMLID_127_" class="st35" d="M202.3,97.4V86h3.5c1.4,0,2.5,0.5,3.4,1.4c0.9,0.9,1.4,2.1,1.4,3.6v1.5
		c0,1.5-0.5,2.6-1.4,3.6c-0.9,0.9-2.1,1.4-3.4,1.4H202.3z M203.2,86.8v9.8h2.5c1.1,0,2.1-0.4,2.8-1.2c0.7-0.8,1.1-1.8,1.1-3V91
		c0-1.2-0.4-2.2-1.1-3c-0.7-0.8-1.7-1.2-2.8-1.2H203.2z"/>
	<path id="XMLID_130_" class="st35" d="M218.2,97.4c-0.1-0.3-0.1-0.6-0.1-0.8c0-0.2,0-0.4,0-0.7c-0.3,0.5-0.7,0.8-1.2,1.1
		c-0.5,0.3-1.1,0.4-1.8,0.4c-0.8,0-1.5-0.2-1.9-0.7c-0.5-0.4-0.7-1-0.7-1.8s0.3-1.4,1-1.8c0.7-0.5,1.5-0.7,2.6-0.7h2.1v-1
		c0-0.6-0.2-1.1-0.6-1.4s-0.9-0.5-1.6-0.5c-0.6,0-1.2,0.2-1.6,0.5c-0.4,0.3-0.6,0.7-0.6,1.2h-0.9l0,0c0-0.6,0.2-1.2,0.8-1.7
		c0.6-0.5,1.3-0.7,2.3-0.7c0.9,0,1.7,0.2,2.2,0.7s0.8,1.2,0.8,2v4.2c0,0.3,0,0.6,0.1,0.9c0,0.3,0.1,0.6,0.2,0.8H218.2z M215.1,96.8
		c0.7,0,1.3-0.2,1.9-0.5c0.5-0.3,0.9-0.8,1.1-1.3v-1.6h-2.1c-0.8,0-1.4,0.2-1.9,0.5c-0.5,0.4-0.7,0.8-0.7,1.3c0,0.5,0.2,0.9,0.5,1.2
		C214.1,96.6,214.5,96.8,215.1,96.8z"/>
	<path id="XMLID_133_" class="st35" d="M222.9,86.8V89h1.9v0.8h-1.9v5.5c0,0.6,0.1,0.9,0.3,1.2c0.2,0.2,0.5,0.3,0.8,0.3
		c0.1,0,0.2,0,0.3,0c0.1,0,0.2,0,0.4-0.1l0.1,0.7c-0.1,0.1-0.3,0.1-0.5,0.2c-0.2,0-0.4,0.1-0.6,0.1c-0.6,0-1.1-0.2-1.4-0.6
		c-0.3-0.4-0.5-1-0.5-1.8v-5.5h-1.5V89h1.5v-2.2H222.9z"/>
	<path id="XMLID_135_" class="st35" d="M231.9,97.4c-0.1-0.3-0.1-0.6-0.1-0.8c0-0.2,0-0.4,0-0.7c-0.3,0.5-0.7,0.8-1.2,1.1
		c-0.5,0.3-1.1,0.4-1.8,0.4c-0.8,0-1.5-0.2-1.9-0.7c-0.5-0.4-0.7-1-0.7-1.8s0.3-1.4,1-1.8c0.7-0.5,1.5-0.7,2.6-0.7h2.1v-1
		c0-0.6-0.2-1.1-0.6-1.4s-0.9-0.5-1.6-0.5c-0.6,0-1.2,0.2-1.6,0.5c-0.4,0.3-0.6,0.7-0.6,1.2h-0.9l0,0c0-0.6,0.2-1.2,0.8-1.7
		c0.6-0.5,1.3-0.7,2.3-0.7c0.9,0,1.7,0.2,2.2,0.7s0.8,1.2,0.8,2v4.2c0,0.3,0,0.6,0.1,0.9c0,0.3,0.1,0.6,0.2,0.8H231.9z M228.8,96.8
		c0.7,0,1.3-0.2,1.9-0.5c0.5-0.3,0.9-0.8,1.1-1.3v-1.6h-2.1c-0.8,0-1.4,0.2-1.9,0.5c-0.5,0.4-0.7,0.8-0.7,1.3c0,0.5,0.2,0.9,0.5,1.2
		C227.8,96.6,228.3,96.8,228.8,96.8z"/>
	<path id="XMLID_138_" class="st35" d="M245.2,94.2h-5l-1.1,3.2h-1l4.2-11.4h0.9l4.1,11.4h-1L245.2,94.2z M240.5,93.4h4.4l-2.2-6h0
		L240.5,93.4z"/>
	<path id="XMLID_141_" class="st35" d="M249.7,89l0.1,1.5c0.3-0.5,0.6-0.9,1.1-1.2c0.5-0.3,1-0.4,1.6-0.4c0.9,0,1.6,0.3,2.1,0.8
		c0.5,0.6,0.7,1.4,0.7,2.6v5.1h-0.9v-5.1c0-1-0.2-1.7-0.5-2.1c-0.4-0.4-0.9-0.6-1.5-0.6c-0.7,0-1.2,0.2-1.6,0.5
		c-0.4,0.3-0.7,0.8-0.9,1.3v6h-0.9V89H249.7z"/>
	<path id="XMLID_143_" class="st35" d="M263.1,97.4c-0.1-0.3-0.1-0.6-0.1-0.8c0-0.2,0-0.4,0-0.7c-0.3,0.5-0.7,0.8-1.2,1.1
		c-0.5,0.3-1.1,0.4-1.8,0.4c-0.8,0-1.5-0.2-1.9-0.7c-0.5-0.4-0.7-1-0.7-1.8s0.3-1.4,1-1.8c0.7-0.5,1.5-0.7,2.6-0.7h2.1v-1
		c0-0.6-0.2-1.1-0.6-1.4s-0.9-0.5-1.6-0.5c-0.6,0-1.2,0.2-1.6,0.5c-0.4,0.3-0.6,0.7-0.6,1.2h-0.9l0,0c0-0.6,0.2-1.2,0.8-1.7
		c0.6-0.5,1.3-0.7,2.3-0.7c0.9,0,1.7,0.2,2.2,0.7s0.8,1.2,0.8,2v4.2c0,0.3,0,0.6,0.1,0.9c0,0.3,0.1,0.6,0.2,0.8H263.1z M260,96.8
		c0.7,0,1.3-0.2,1.9-0.5c0.5-0.3,0.9-0.8,1.1-1.3v-1.6h-2.1c-0.8,0-1.4,0.2-1.9,0.5c-0.5,0.4-0.7,0.8-0.7,1.3c0,0.5,0.2,0.9,0.5,1.2
		C259,96.6,259.5,96.8,260,96.8z"/>
	<path id="XMLID_146_" class="st35" d="M267.4,97.4h-0.9V85.2h0.9V97.4z"/>
	<path id="XMLID_148_" class="st35" d="M272.4,95.1l0.3,1h0l2.6-7.2h1l-3.7,9.8c-0.2,0.6-0.5,1.1-0.9,1.5c-0.3,0.4-0.9,0.6-1.5,0.6
		c-0.1,0-0.2,0-0.4,0s-0.3,0-0.3-0.1l0.1-0.8c0.1,0,0.2,0,0.3,0c0.1,0,0.2,0,0.3,0c0.4,0,0.7-0.1,1-0.4c0.2-0.3,0.5-0.7,0.6-1.1
		l0.4-1.1l-3.3-8.3h1L272.4,95.1z"/>
	<path id="XMLID_150_" class="st35" d="M282.9,95.3c0-0.4-0.2-0.7-0.5-1c-0.3-0.3-0.9-0.5-1.8-0.7c-1-0.2-1.7-0.5-2.2-0.9
		c-0.5-0.4-0.7-0.9-0.7-1.5c0-0.6,0.3-1.2,0.8-1.6c0.5-0.4,1.3-0.7,2.2-0.7c0.9,0,1.7,0.2,2.3,0.7s0.8,1.1,0.8,1.8l0,0h-0.9
		c0-0.5-0.2-0.9-0.6-1.2s-0.9-0.5-1.6-0.5c-0.7,0-1.2,0.1-1.5,0.4s-0.5,0.6-0.5,1c0,0.4,0.1,0.7,0.4,1c0.3,0.3,0.9,0.5,1.8,0.7
		c1,0.2,1.7,0.5,2.2,0.9s0.8,0.9,0.8,1.6c0,0.7-0.3,1.3-0.9,1.7s-1.3,0.7-2.3,0.7c-1,0-1.8-0.2-2.4-0.7s-0.9-1.1-0.8-1.8l0,0h0.9
		c0,0.6,0.3,1.1,0.7,1.3s1,0.4,1.6,0.4c0.7,0,1.2-0.2,1.6-0.5S282.9,95.7,282.9,95.3z"/>
	<path id="XMLID_152_" class="st35" d="M287,86.5h-0.9v-1.3h0.9V86.5z M287,97.4h-0.9V89h0.9V97.4z"/>
	<path id="XMLID_155_" class="st35" d="M294.7,95.3c0-0.4-0.2-0.7-0.5-1c-0.3-0.3-0.9-0.5-1.8-0.7c-1-0.2-1.7-0.5-2.2-0.9
		c-0.5-0.4-0.7-0.9-0.7-1.5c0-0.6,0.3-1.2,0.8-1.6c0.5-0.4,1.3-0.7,2.2-0.7c0.9,0,1.7,0.2,2.3,0.7s0.8,1.1,0.8,1.8l0,0h-0.9
		c0-0.5-0.2-0.9-0.6-1.2s-0.9-0.5-1.6-0.5c-0.7,0-1.2,0.1-1.5,0.4s-0.5,0.6-0.5,1c0,0.4,0.1,0.7,0.4,1c0.3,0.3,0.9,0.5,1.8,0.7
		c1,0.2,1.7,0.5,2.2,0.9s0.8,0.9,0.8,1.6c0,0.7-0.3,1.3-0.9,1.7s-1.3,0.7-2.3,0.7c-1,0-1.8-0.2-2.4-0.7s-0.9-1.1-0.8-1.8l0,0h0.9
		c0,0.6,0.3,1.1,0.7,1.3s1,0.4,1.6,0.4c0.7,0,1.2-0.2,1.6-0.5S294.7,95.7,294.7,95.3z"/>
	<path id="XMLID_157_" class="st35" d="M302.8,92.7v4.7h-0.9V86h3.9c1.2,0,2.1,0.3,2.8,0.9c0.7,0.6,1,1.4,1,2.4c0,1-0.3,1.8-1,2.4
		c-0.7,0.6-1.6,0.9-2.8,0.9H302.8z M302.8,91.9h3c0.9,0,1.6-0.2,2.1-0.7s0.7-1.1,0.7-1.8c0-0.7-0.2-1.3-0.7-1.8s-1.2-0.7-2.1-0.7h-3
		V91.9z"/>
	<path id="XMLID_160_" class="st35" d="M312.6,97.4h-0.9V85.2h0.9V97.4z"/>
	<path id="XMLID_162_" class="st35" d="M320.5,97.4c-0.1-0.3-0.1-0.6-0.1-0.8c0-0.2,0-0.4,0-0.7c-0.3,0.5-0.7,0.8-1.2,1.1
		c-0.5,0.3-1.1,0.4-1.8,0.4c-0.8,0-1.5-0.2-1.9-0.7c-0.5-0.4-0.7-1-0.7-1.8s0.3-1.4,1-1.8c0.7-0.5,1.5-0.7,2.6-0.7h2.1v-1
		c0-0.6-0.2-1.1-0.6-1.4s-0.9-0.5-1.6-0.5c-0.6,0-1.2,0.2-1.6,0.5c-0.4,0.3-0.6,0.7-0.6,1.2h-0.9l0,0c0-0.6,0.2-1.2,0.8-1.7
		c0.6-0.5,1.3-0.7,2.3-0.7c0.9,0,1.7,0.2,2.2,0.7s0.8,1.2,0.8,2v4.2c0,0.3,0,0.6,0.1,0.9c0,0.3,0.1,0.6,0.2,0.8H320.5z M317.4,96.8
		c0.7,0,1.3-0.2,1.9-0.5c0.5-0.3,0.9-0.8,1.1-1.3v-1.6h-2.1c-0.8,0-1.4,0.2-1.9,0.5c-0.5,0.4-0.7,0.8-0.7,1.3c0,0.5,0.2,0.9,0.5,1.2
		C316.4,96.6,316.9,96.8,317.4,96.8z"/>
	<path id="XMLID_165_" class="st35" d="M325.2,86.8V89h1.9v0.8h-1.9v5.5c0,0.6,0.1,0.9,0.3,1.2c0.2,0.2,0.5,0.3,0.8,0.3
		c0.1,0,0.2,0,0.3,0c0.1,0,0.2,0,0.4-0.1l0.1,0.7c-0.1,0.1-0.3,0.1-0.5,0.2c-0.2,0-0.4,0.1-0.6,0.1c-0.6,0-1.1-0.2-1.4-0.6
		c-0.3-0.4-0.5-1-0.5-1.8v-5.5h-1.5V89h1.5v-2.2H325.2z"/>
	<path id="XMLID_167_" class="st35" d="M329.6,97.4v-7.7h-1.4V89h1.4v-1.2c0-0.8,0.2-1.5,0.6-2c0.4-0.5,1-0.7,1.8-0.7
		c0.2,0,0.3,0,0.5,0c0.2,0,0.4,0.1,0.5,0.1l-0.1,0.8c-0.1,0-0.3-0.1-0.4-0.1c-0.1,0-0.3,0-0.5,0c-0.5,0-0.9,0.2-1.2,0.5
		s-0.4,0.8-0.4,1.4V89h1.9v0.8h-1.9v7.7H329.6z"/>
	<path id="XMLID_169_" class="st35" d="M333.5,93.1c0-1.2,0.3-2.3,1-3.1c0.7-0.8,1.6-1.2,2.7-1.2c1.1,0,2,0.4,2.7,1.2
		c0.7,0.8,1,1.8,1,3.1v0.3c0,1.2-0.3,2.3-1,3.1s-1.6,1.2-2.7,1.2c-1.1,0-2-0.4-2.7-1.2c-0.7-0.8-1-1.8-1-3.1V93.1z M334.5,93.3
		c0,1,0.2,1.8,0.7,2.5c0.5,0.7,1.2,1,2.1,1c0.9,0,1.6-0.3,2.1-1c0.5-0.7,0.7-1.5,0.7-2.5v-0.3c0-1-0.2-1.8-0.8-2.5s-1.2-1-2.1-1
		s-1.6,0.3-2.1,1c-0.5,0.7-0.7,1.5-0.7,2.5V93.3z"/>
	<path id="XMLID_172_" class="st35" d="M346.8,89.8l-0.7,0c-0.6,0-1.1,0.2-1.4,0.5c-0.4,0.3-0.6,0.8-0.8,1.4v5.8H343V89h0.8l0.1,1.4
		v0.1c0.2-0.5,0.6-0.9,1-1.2c0.4-0.3,0.9-0.4,1.5-0.4c0.1,0,0.2,0,0.3,0c0.1,0,0.2,0,0.3,0.1L346.8,89.8z"/>
	<path id="XMLID_174_" class="st35" d="M349.2,89l0.1,1.4c0.3-0.5,0.6-0.9,1.1-1.1c0.5-0.3,1-0.4,1.6-0.4c0.6,0,1.2,0.2,1.6,0.5
		c0.4,0.3,0.7,0.8,0.9,1.4c0.3-0.6,0.6-1,1.1-1.4c0.5-0.3,1-0.5,1.7-0.5c0.9,0,1.6,0.3,2.1,0.9s0.7,1.5,0.7,2.8v4.9h-0.9v-4.9
		c0-1-0.2-1.8-0.6-2.2c-0.4-0.4-0.9-0.6-1.5-0.6c-0.7,0-1.3,0.2-1.7,0.7s-0.6,1-0.7,1.7c0,0.1,0,0.1,0,0.2c0,0.1,0,0.1,0,0.2v5.1
		h-0.9v-4.9c0-1-0.2-1.8-0.6-2.2c-0.4-0.4-0.9-0.7-1.5-0.7c-0.7,0-1.2,0.2-1.6,0.5c-0.4,0.3-0.7,0.8-0.8,1.3v6h-0.9V89H349.2z"/>
	<path id="XMLID_176_" class="st35" d="M363.8,97.4h-1.1v-1.3h1.1V97.4z"/>
</g>
<path id="XMLID_212_" class="st36" d="M1132.2,148.5c19.1-11.6,30.5-26.4,30.5-42.4c0-37.6-62.8-68.1-140.3-68.1
	s-140.3,30.5-140.3,68.1c0,16,11.4,30.8,30.5,42.4H1132.2z"/>
<linearGradient id="XMLID_224_" gradientUnits="userSpaceOnUse" x1="890.6522" y1="95.3326" x2="1153.918" y2="95.3326">
	<stop  offset="7.324219e-03" style="stop-color:#55A7FF"/>
	<stop  offset="1" style="stop-color:#0060D4"/>
</linearGradient>
<path id="XMLID_112_" class="st37" d="M1022.3,42.2c-72.7,0-131.6,28.6-131.6,63.9c0,16.3,12.5,31.1,33.2,42.4h196.9
	c20.6-11.3,33.2-26.1,33.2-42.4C1153.9,70.8,1095,42.2,1022.3,42.2z"/>
<path id="XMLID_53_" class="st28" d="M741,148.5c0.7-2.4,0.7-5.1-0.2-7.6c-1.8-5.5-6.9-9.3-12.7-9.3c-1.4,0-2.8,0.2-4.1,0.6
	c-6.8,2.2-10.7,9.4-8.8,16.2H741z"/>
<path id="XMLID_213_" class="st28" d="M835.8,84c-4.2-13.1-21-19.5-37.4-14.2c-0.6,0.2-1.1,0.4-1.6,0.6
	c-11.6-13.9-33.3-19.5-54.5-12.7c-21.2,6.8-35.5,24.1-36.8,42.1c-0.6,0.2-1.1,0.3-1.7,0.5c-16.4,5.3-26.3,20.2-22.1,33.4
	c2.3,7.3,8.6,12.5,16.4,14.7h11.2c-2.6-9.8,2.8-20.1,12.6-23.3c1.9-0.6,3.9-0.9,5.9-0.9c8.3,0,15.7,5.4,18.3,13.3
	c0.7,2.3,1,4.6,0.9,6.9c6.4-1.5,13.6-3.5,21.4-6c7.3-2.4,13.8-4.8,19.6-7.1c-1.5-1.8-2.6-3.9-3.4-6.2c-3.2-10.1,2.3-20.9,12.4-24.2
	c1.9-0.6,3.9-0.9,5.9-0.9c8.4,0,15.7,5.4,18.3,13.3c0.1,0.2,0.1,0.5,0.2,0.8c1.2-0.8,2.2-1.5,2.9-2C834,105.1,839,94.1,835.8,84z
	 M767.7,105.2c-3.8,0.6-30.5-16-24.1-24.9c5.8-8,17.6-1.4,19.8-1.7c2.2-0.4,10.6-10.9,19.3-4.6C791.6,80.5,771.5,104.6,767.7,105.2z
	"/>
</svg>
